<svg xmlns="http://www.w3.org/2000/svg" width="41.691" height="35.813" viewBox="0 0 41.691 35.813"><defs><style>.a{fill:#1a171b;}</style></defs><g transform="translate(-1165.58 -212.586)"><path class="a" d="M1203.484,212.586h-34.116a3.8,3.8,0,0,0-3.788,3.806v15.057a3.782,3.782,0,0,0,3.788,3.786h34.116a3.782,3.782,0,0,0,3.788-3.786V216.392A3.8,3.8,0,0,0,1203.484,212.586Zm-31.81,21.393,1.866-3.561h25.771l1.867,3.561Zm34.333-2.53a2.525,2.525,0,0,1-2.523,2.53h-.882l-2.352-4.481a.624.624,0,0,0-.562-.338h-26.524a.638.638,0,0,0-.563.338l-2.352,4.481h-.881a2.525,2.525,0,0,1-2.523-2.53V216.392a2.525,2.525,0,0,1,2.523-2.531h34.116a2.525,2.525,0,0,1,2.523,2.531Z"/><path class="a" d="M1179.924,240.318a.646.646,0,0,0,0-.9.632.632,0,0,0-.89,0,3.413,3.413,0,0,0,0,4.839,2.175,2.175,0,0,1,0,3.056.626.626,0,0,0,0,.9.583.583,0,0,0,.439.188.608.608,0,0,0,.451-.188,3.44,3.44,0,0,0,0-4.856A2.138,2.138,0,0,1,1179.924,240.318Z"/><path class="a" d="M1186.871,240.318a.646.646,0,0,0,0-.9.634.634,0,0,0-.891,0,3.415,3.415,0,0,0,0,4.839,2.173,2.173,0,0,1,0,3.056.646.646,0,0,0,0,.9.585.585,0,0,0,.44.188.6.6,0,0,0,.451-.188,3.44,3.44,0,0,0,0-4.856A2.136,2.136,0,0,1,1186.871,240.318Z"/><path class="a" d="M1172.978,240.318a.637.637,0,1,0-.9-.9,3.429,3.429,0,0,0,0,4.839,2.149,2.149,0,0,1,0,3.056.644.644,0,0,0,0,.9.62.62,0,0,0,.449.188.612.612,0,0,0,.452-.188,3.443,3.443,0,0,0,0-4.856A2.136,2.136,0,0,1,1172.978,240.318Z"/><path class="a" d="M1193.818,240.318a.634.634,0,1,0-.891-.9,3.433,3.433,0,0,0,0,4.839,2.149,2.149,0,0,1,0,3.056.644.644,0,0,0,0,.9.6.6,0,0,0,.451.188.584.584,0,0,0,.44-.188,3.443,3.443,0,0,0,0-4.856A2.14,2.14,0,0,1,1193.818,240.318Z"/><path class="a" d="M1200.765,240.318a.634.634,0,1,0-.891-.9,3.431,3.431,0,0,0,0,4.839,2.151,2.151,0,0,1,0,3.056.644.644,0,0,0,0,.9.611.611,0,0,0,.451.188.584.584,0,0,0,.44-.188,3.414,3.414,0,0,0,0-4.856A2.158,2.158,0,0,1,1200.765,240.318Z"/><path class="a" d="M1202.537,216.242h-32.222a1.263,1.263,0,0,0-1.266,1.256v1.931a1.26,1.26,0,0,0,1.266,1.239h32.222a1.261,1.261,0,0,0,1.265-1.239V217.5A1.264,1.264,0,0,0,1202.537,216.242Zm-32.222,3.187v-1.912l32.222-.019v1.912Z"/><path class="a" d="M1201.59,222.711a2.213,2.213,0,1,0,2.212,2.194A2.211,2.211,0,0,0,1201.59,222.711Zm0,3.15a.947.947,0,1,1,.947-.956A.951.951,0,0,1,1201.59,225.861Z"/><path class="a" d="M1195.272,222.711a2.213,2.213,0,1,0,2.211,2.194A2.212,2.212,0,0,0,1195.272,222.711Zm0,3.15a.947.947,0,1,1,.946-.956A.952.952,0,0,1,1195.272,225.861Z"/><path class="a" d="M1188.953,222.711a2.213,2.213,0,1,0,2.212,2.194A2.212,2.212,0,0,0,1188.953,222.711Zm0,3.15a.947.947,0,1,1,.946-.956A.952.952,0,0,1,1188.953,225.861Z"/></g></svg>