<svg xmlns="http://www.w3.org/2000/svg" width="150" height="150" viewBox="0 0 150 150">
  <g id="Group_130037" data-name="Group 130037" transform="translate(-291 -1699)">
    <rect id="NoPath_-_Copy_16_" data-name="NoPath - Copy (16)" width="150" height="150" rx="12" transform="translate(291 1699)" fill="#d4b2b1"/>
    <g id="Group_130036" data-name="Group 130036" transform="translate(215.871 1613.051)">
      <g id="Group_123099" data-name="Group 123099" transform="translate(116.128 126.95)">
        <path id="Path_308447" data-name="Path 308447" d="M131.329,160.618c.171-3.532,1.67-6.477,3.1-9.459,3.6-7.532,7.161-15.085,10.737-22.63.061-.13.12-.261.188-.387a2.038,2.038,0,0,1,1.853-1.192,1.957,1.957,0,0,1,1.862,1.153q2.3,4.19,4.616,8.369c.138.25.283.5.5.881.449-.721.87-1.356,1.249-2.015a2.321,2.321,0,0,1,2.211-1.49c1.141.068,1.577.889,1.986,1.779,2.585,5.632,5.14,11.279,7.79,16.88a25.059,25.059,0,0,1,2.5,8.222c1.235-.511,2.4-1.021,3.586-1.476a22.933,22.933,0,0,1,3.645-1.266,6.8,6.8,0,0,1,4.061,12.85c-3.065,1.365-6.182,2.617-9.292,3.88a2.069,2.069,0,1,1-1.492-3.825c2.911-1.218,5.831-2.416,8.737-3.645a2.794,2.794,0,0,0,1.755-3.041,2.7,2.7,0,0,0-2.422-2.325,3.148,3.148,0,0,0-1.415.224c-2.259.91-4.5,1.857-6.742,2.819a1.289,1.289,0,0,0-.7.623c-1.6,5.268-1.6,5.27-4.362,9.181.288.133.555.266.83.381,4.948,2.073,9.905,4.126,14.844,6.221a6.863,6.863,0,0,1-3,13.167,7.711,7.711,0,0,1-2.493-.591Q148,182.483,120.564,171.012a6.879,6.879,0,0,1,.738-13.091,6.635,6.635,0,0,1,4.3.335Zm15.95-27.058c-1.023,2.171-1.963,4.168-2.9,6.165-2.386,5.058-4.712,10.146-7.182,15.164a15.2,15.2,0,0,0,16.282,22.052c9.345-1.638,15.014-12.364,11.052-20.923q-3.487-7.535-6.993-15.061c-.089-.191-.2-.372-.35-.66-.5.772-.92,1.448-1.359,2.115a2.032,2.032,0,0,1-3.633-.066c-.609-1.039-1.177-2.1-1.765-3.155C149.408,137.368,148.389,135.546,147.279,133.561Zm29.353,50.393c-4.9-2.049-9.665-4.041-14.432-6.017a.767.767,0,0,0-.621.023,20.771,20.771,0,0,1-6.54,2.931l19.212,8.028A4.765,4.765,0,0,1,176.632,183.954Zm-42.8-11.817a26.507,26.507,0,0,1-2.272-6.556,1.073,1.073,0,0,0-.578-.639c-2.284-.993-4.57-1.983-6.887-2.894a3.5,3.5,0,0,0-1.83-.164,2.584,2.584,0,0,0-2.057,2.354,2.715,2.715,0,0,0,1.693,2.9c2.1.912,4.219,1.782,6.331,2.666Q131.026,170.974,133.828,172.137Z" transform="translate(-116.128 -126.95)" fill="#265359"/>
        <path id="Path_308448" data-name="Path 308448" d="M125.239,425.486a4.741,4.741,0,0,1,1.532,5.358c.742-.3,1.363-.546,1.978-.8q6.829-2.854,13.657-5.71c1.362-.569,2.5-.216,2.988.919.5,1.159-.041,2.282-1.416,2.859-6.057,2.544-12.109,5.1-18.179,7.61a6.818,6.818,0,0,1-9.113-3.623,6.891,6.891,0,0,1,3.827-9.119c2.933-1.24,5.88-2.447,8.826-3.656a2.059,2.059,0,1,1,1.574,3.778C129.067,423.883,127.216,424.655,125.239,425.486Z" transform="translate(-116.133 -368.747)" fill="#265359"/>
      </g>
      <path id="Path_308449" data-name="Path 308449" d="M267.758,273.4l3.193,5.07,6.959-12.514c.5,1.043.92,1.934,1.35,2.822,1.036,2.142,2.116,4.263,3.106,6.426a8.586,8.586,0,0,1-9.842,12.009,8.272,8.272,0,0,1-6.359-6.649C265.579,277.988,266.405,275.7,267.758,273.4Z" transform="translate(-124.016 -115.044)" fill="#265359"/>
    </g>
  </g>
</svg>
