<svg xmlns="http://www.w3.org/2000/svg" xmlns:xlink="http://www.w3.org/1999/xlink" width="33.432" height="16.765" viewBox="0 0 33.432 16.765"><defs><path fill="#265359;"></path><style>.a{fill:#265359;}.b{clip-path:url(#a);}</style><clipPath id="a"><rect class="a" width="33.432" height="16.765"/></clipPath></defs><g transform="translate(16.716 8.383)"><g class="b" transform="translate(-16.716 -8.383)"><path d="M10.445,16.712A28.873,28.873,0,0,1,3.113,14.7c-.76-.342-1.064-1.292-1.558-1.938s-.836-1.254-1.292-1.9a1.144,1.144,0,0,1,.114-1.71,1.216,1.216,0,0,1,1.71-.19c1.406.912,2.887,1.748,4.293,2.659a2.089,2.089,0,0,0,1.9.266c1.026-.3,2.089-.608,3.115-.836s.95-.494.418-1.178C10.027,7.556,8.279,5.2,6.494,2.807,6,2.161,5.468,1.591,6.342.756S7.633-.384,8.773.338C12.61,2.883,16.523,5.314,20.4,7.822a2.355,2.355,0,0,0,2.127.342c2.127-.646,4.293-1.178,6.5-1.748a3.966,3.966,0,0,1,3.343.38,1.877,1.877,0,0,1,.722,2.7,3.609,3.609,0,0,1-2.355,1.9L11.2,16.6l-.76.114" transform="translate(0.041 0.042)"/></g></g></svg>
