<svg xmlns="http://www.w3.org/2000/svg" xmlns:xlink="http://www.w3.org/1999/xlink" width="39.716" height="53.072" viewBox="0 0 39.716 53.072"><defs><style>.a{fill:none;}.b{opacity:0.82;}.c{clip-path:url(#a);}.d{fill:#265359;}</style><clipPath id="a"><rect class="a" width="39.716" height="53.072"/></clipPath></defs><g class="b" transform="translate(19.858 26.536)"><g class="c" transform="translate(-19.858 -26.536)"><path class="d" d="M19.059,53.07c-7.677-7.026-14.15-14.9-17.6-24.884C-.62,22.136-.653,16.151,2.47,10.329A19.959,19.959,0,0,1,23.776.375,20.261,20.261,0,0,1,39.617,18.1c.455,5.66-1.171,10.767-3.708,15.678A67.8,67.8,0,0,1,20.686,53.038ZM18.571,3.921C13.334,4.148,8.455,7.076,5.5,13c-2.212,4.391-1.952,8.978-.488,13.5,2.765,8.49,8.164,15.255,14.312,21.533.455.455.781.325,1.171-.065,5.269-5.335,9.921-11.092,13.011-18.02a22.861,22.861,0,0,0,2.277-11.287C35.128,10.264,28.3,3.921,18.571,3.921" transform="translate(0.002 0.015)"/><path class="d" d="M41.968,32.7A9.271,9.271,0,1,1,32.6,41.873,9.3,9.3,0,0,1,41.968,32.7M47.2,42.035A5.222,5.222,0,0,0,42,36.571a5.384,5.384,0,1,0-.1,10.767,5.2,5.2,0,0,0,5.3-5.3" transform="translate(-21.996 -22.063)"/></g></g></svg>