<svg xmlns="http://www.w3.org/2000/svg" xmlns:xlink="http://www.w3.org/1999/xlink" width="27.565" height="28.326" viewBox="0 0 27.565 28.326"><defs><style>.a{fill:none;}.b{clip-path:url(#a);}</style><clipPath id="a"><rect class="a" width="27.565" height="28.326"/></clipPath></defs><g transform="translate(13.783 14.163)"><g class="b" transform="translate(-13.783 -14.163)"><path d="M0,12.074C0,4.764,5.334-.385,11.516.028a10.588,10.588,0,0,1,9.358,6.218A10.576,10.576,0,0,1,19.9,17.49c-.412.607-.339.874.145,1.336,2.4,2.356,4.752,4.76,7.152,7.14.509.486.509.826-.024,1.239a5.12,5.12,0,0,0-.8.8c-.364.461-.655.364-1.018-.024-2.473-2.429-4.921-4.857-7.346-7.335A.894.894,0,0,0,16.68,20.5a10.576,10.576,0,0,1-11.225.073A10.149,10.149,0,0,1,0,12.074m11.007,8.573a9.585,9.585,0,1,0-6.811-2.8,9.585,9.585,0,0,0,6.811,2.8" transform="translate(0 -0.003)"/></g></g></svg>