<svg xmlns="http://www.w3.org/2000/svg" width="56.442" height="86.369" viewBox="0 0 56.442 86.369">
  <g id="Group_128563" data-name="Group 128563" transform="translate(-910.059 -393.649)">
    <path id="Icon_awesome-suitcase-rolling" data-name="Icon awesome-suitcase-rolling" d="M43.7,26.188H6.243C2.795,26.188,0,29.705,0,34.044V70.708c0,4.339,2.795,7.856,6.243,7.856H8.324v2.619A2.4,2.4,0,0,0,10.4,83.8h4.162a2.4,2.4,0,0,0,2.081-2.619V78.564H33.294v2.619A2.4,2.4,0,0,0,35.375,83.8h4.162a2.4,2.4,0,0,0,2.081-2.619V78.564H43.7c3.448,0,6.243-3.517,6.243-7.856V34.044C49.941,29.705,47.146,26.188,43.7,26.188ZM41.618,61.542a1.2,1.2,0,0,1-1.04,1.309H9.364a1.2,1.2,0,0,1-1.04-1.309V58.923a1.2,1.2,0,0,1,1.04-1.309H40.577a1.2,1.2,0,0,1,1.04,1.309Zm0-15.713a1.2,1.2,0,0,1-1.04,1.309H9.364a1.2,1.2,0,0,1-1.04-1.309V43.21A1.2,1.2,0,0,1,9.364,41.9H40.577a1.2,1.2,0,0,1,1.04,1.309ZM18.728,9.856H31.213V21.689h6.243V9.856C37.456,5.517,34.661,2,31.213,2H18.728c-3.448,0-6.243,3.517-6.243,7.856V21.689h6.243Z" transform="translate(910.059 391.649)" fill="#265359"/>
    <g id="Group_72960" data-name="Group 72960" transform="translate(-59.472 31.774)">
      <path id="Path_211070" data-name="Path 211070" d="M281.376,129.443c-.693-.058-1.644-.131-2.593-.217a3.206,3.206,0,0,0-2.927,1.239c-.687.836-1.351,1.7-2.1,2.472-1.2,1.239-2.339,1.225-3.537-.028-.711-.743-1.349-1.559-1.994-2.362a3.368,3.368,0,0,0-3.125-1.318c-1.128.1-2.261.2-3.393.212a1.985,1.985,0,0,1-2.256-2.236,17.836,17.836,0,0,1,.219-2.77,3.8,3.8,0,0,0-1.564-3.926,18.448,18.448,0,0,1-2.27-1.978,2.028,2.028,0,0,1,0-3.2,23.091,23.091,0,0,1,2.39-2.077,3.555,3.555,0,0,0,1.425-3.6,20.43,20.43,0,0,1-.213-2.926,2.035,2.035,0,0,1,2.334-2.328,26.139,26.139,0,0,1,3,.218,3.562,3.562,0,0,0,3.525-1.441A25.912,25.912,0,0,1,270.146,101c1.287-1.34,2.415-1.338,3.712.011.695.723,1.32,1.516,1.948,2.3a3.239,3.239,0,0,0,2.977,1.294c1.155-.1,2.313-.2,3.471-.21a1.95,1.95,0,0,1,2.267,2.137,11.722,11.722,0,0,1-.163,2.461,4.168,4.168,0,0,0,1.789,4.579,12.545,12.545,0,0,1,1.825,1.549c1.266,1.249,1.271,2.374,0,3.6a29.022,29.022,0,0,1-2.243,1.9,3.389,3.389,0,0,0-1.426,3.155c.08.846.143,1.694.228,2.54C284.76,128.645,283.962,129.516,281.376,129.443Z" transform="translate(733.741 317.84) rotate(-1)" fill="#265359" stroke="#fff" stroke-width="2"/>
      <path id="Path_211071" data-name="Path 211071" d="M3.533,4.9c0,.969.005,1.938,0,2.907a1.877,1.877,0,0,1-1.747,2.05A1.874,1.874,0,0,1,.016,7.876C-.014,6.665.008,5.453.007,4.242c0-.747-.016-1.495,0-2.241A1.851,1.851,0,0,1,1.8,0,1.837,1.837,0,0,1,3.532,2.051C3.537,3,3.533,3.949,3.533,4.9Z" transform="translate(1005.702 422.806) rotate(-1)" fill="#fff"/>
      <path id="Path_211072" data-name="Path 211072" d="M1.837,3.584A1.807,1.807,0,0,1,0,1.788,1.8,1.8,0,0,1,1.788,0,1.765,1.765,0,0,1,3.6,1.8,1.755,1.755,0,0,1,1.837,3.584Z" transform="translate(1007.928 433.544) rotate(49)" fill="#fff"/>
    </g>
  </g>
</svg>
