<svg xmlns="http://www.w3.org/2000/svg" width="174.235" height="141.103" viewBox="0 0 174.235 141.103">
  <g id="Group_95146" data-name="Group 95146" transform="translate(-325.136 -1040.868)">
    <path id="Path_253128" data-name="Path 253128" d="M481.458,1124.278v53.564h17.662v3.878H325.386v-3.693h17.419a25.588,25.588,0,0,0,.26-2.558c.009-12.8.048-25.6-.022-38.4-.054-9.885,4.1-16.425,13.368-20.041,2.325-.908,2.863-2.066,2.839-4.37q-.176-16.82,0-33.641c.013-1.328.411-3.137,1.32-3.9,13.509-11.348,27.133-22.556,40.885-33.925,6.909,5.437,13.711,10.775,20.5,16.133,7.051,5.568,14.058,11.192,21.153,16.705a5.757,5.757,0,0,1,2.652,5.273c-.221,5.068-.2,10.16.013,15.228.07,1.613.624,3.731,1.747,4.678,4.843,4.075,7.013,8.959,5.935,15.255a22.078,22.078,0,0,0-.024,3.426Zm-47.452-39.141,7.619,8.026c0-4.886.14-8.963-.084-13.021a5.577,5.577,0,0,0-1.788-3.623c-6.789-5.557-13.709-10.951-20.595-16.39q-8.8-6.946-17.646-13.908c-12.118,10.02-23.977,19.892-35.937,29.639a5.764,5.764,0,0,0-2.406,5.042c.086,21.054.052,42.107.052,63.16v3.063c3.917.79,7.57,1.326,11.112,2.279,9.612,2.587,18.887,6.137,24.848,14.622,2.815,4.005,4.291,8.952,6.475,13.692h9.779v-3.7q0-32.849.036-65.7a5.72,5.72,0,0,1,.866-3.5C422.11,1098.222,428.032,1091.754,434.007,1085.137Zm.082,5.794c-4.381,4.812-8.688,9.321-12.7,14.08a8.959,8.959,0,0,0-2.085,5.243c-.141,21.369-.092,42.74-.092,64.109v3.372H423.6c.69-4.251,1.714-8.268,1.915-12.324.317-6.417.084-12.86.084-19.424h17.677c0,1.392-.027,2.55,0,3.707.252,9.345-1.19,18.819,2.418,28.063h3.669a10.346,10.346,0,0,0,.211-1.4q.019-33.641-.025-67.283a4.527,4.527,0,0,0-1.073-2.8C443.837,1101.214,439.093,1096.242,434.089,1090.931Zm-33.6,86.905a21.907,21.907,0,0,0-8.607-15.968c-6.381-5.173-13.949-7.633-21.817-9.49-7.658-1.806-16.163-.176-22.939-6.127v22.158h28.65v3.844H347.1v5.583Zm53.128-55.891v55.818h14.274v-27.322h9.751c0-7.238.068-14.1-.087-20.957a3.277,3.277,0,0,0-1.909-2.418C468.414,1125.26,461.13,1123.662,453.614,1121.945Zm-14.289,41.872-2.964-.7.181-2.974c1.314-.341,2.676-1.016,2.76-1.825a79.825,79.825,0,0,0,.108-8.245H429.5v21.482h9.821Zm32.681-9.28v23.224h5.429v-23.224Zm-113-14.112v-4.966H346.993c.009,4.923.049,4.964,4.446,4.966C353.857,1140.426,356.275,1140.425,359.011,1140.425Zm0-9.38v-4.819c-9.936-.714-9.323-1.038-11.292,4.819Zm75.476,44.8c-1.677,0-3.359-.083-5.027.046-.551.043-1.058.627-1.587.963.508.368,1.006,1.043,1.522,1.057q5.027.14,10.058-.013c.481-.014.941-.73,1.411-1.12-.449-.308-.882-.852-1.349-.882C437.847,1175.786,436.165,1175.851,434.489,1175.843ZM359,1144.478h-6.77l-.106.722,6.876,2.007Z" fill="#d4b2b1" stroke="#d4b2b1" stroke-width="0.5"/>
    <path id="Path_253130" data-name="Path 253130" d="M368.2,1117.211v-26.3h18.072v26.3Zm14.352-3.974v-11.223H372.026v11.223Zm-7.489-18.365h-3.285l.236,2.917h3.048Zm7.416,2.931c.759-3.082-.493-3.6-2.995-2.869v2.869Z" transform="translate(25.129 29.181)" fill="#d4b2b1" stroke="#d4b2b1" stroke-width="0.5"/>
    <path id="Path_253131" data-name="Path 253131" d="M386.342,1070.268v26.247H368.256v-26.247Zm-3.88,22.518V1081.6H372v11.191Zm-10.716-18.737.249,3.434,3.025-.141v-3.293Zm7.657,3.225h3.007v-3.439l-3.007.266Z" transform="translate(25.161 17.067)" fill="#d4b2b1" stroke="#d4b2b1" stroke-width="0.5"/>
    <path id="Path_253132" data-name="Path 253132" d="M377.165,1051.285a8.9,8.9,0,1,1-8.958,9.1A8.992,8.992,0,0,1,377.165,1051.285Zm5.189,8.84a5.191,5.191,0,0,0-5.05-5.042,5.111,5.111,0,0,0,.119,10.221A5.253,5.253,0,0,0,382.354,1060.126Z" transform="translate(25.129 5.925)" fill="#d4b2b1" stroke="#d4b2b1" stroke-width="0.5"/>
    <path id="Path_253133" data-name="Path 253133" d="M403.95,1104.915H389.542v-14H403.95Zm-3.956-10.079h-6.448v6.067h6.448Z" transform="translate(37.653 29.185)" fill="#d4b2b1" stroke="#d4b2b1" stroke-width="0.5"/>
  </g>
</svg>
