<svg xmlns="http://www.w3.org/2000/svg" width="60.022" height="49.56" viewBox="0 0 60.022 49.56">
  <g id="Group_71412" data-name="Group 71412" transform="translate(-1279.337 -950.576)">
    <path id="Path_211019" data-name="Path 211019" d="M1309.282,999.635q-11.7,0-23.4-.005a6.088,6.088,0,0,1-4.191-1.254,4.906,4.906,0,0,1-1.846-3.828q-.02-15.794,0-31.588c.007-2.99,2.328-5.071,5.581-5.1,3.125-.024,6.25-.032,9.375.009a1.912,1.912,0,0,0,2.038-1.271c.381-.906.868-1.768,1.308-2.65a4.789,4.789,0,0,1,4.46-2.831q6.713-.089,13.429,0a4.753,4.753,0,0,1,4.4,2.783c.509,1,1.038,2,1.5,3.025a1.462,1.462,0,0,0,1.522.938c3.238-.02,6.476-.032,9.712,0a5.271,5.271,0,0,1,5.173,3.118,6.758,6.758,0,0,1,.5,2.889q.016,14.823.006,29.645c0,2.411-.691,4.451-3.05,5.563a7.4,7.4,0,0,1-3.217.553Q1320.937,999.64,1309.282,999.635Zm-.021-3.731q11.867,0,23.735,0c1.743,0,2.136-.393,2.136-2.13q0-15.035,0-30.07c0-1.708-.494-2.2-2.211-2.2-3.1,0-6.194-.029-9.291.008a4.884,4.884,0,0,1-4.8-2.941c-.5-1.01-1.015-2.011-1.508-3.023a1.548,1.548,0,0,0-1.463-.965q-6.546-.012-13.092,0a1.641,1.641,0,0,0-1.6,1.025c-.521,1.123-1.078,2.231-1.66,3.324a4.514,4.514,0,0,1-4.237,2.567q-4.772,0-9.544,0c-1.741,0-2.248.514-2.248,2.27q0,14.992,0,29.985c0,1.73.417,2.149,2.131,2.149Q1297.435,995.906,1309.261,995.9Z" transform="translate(0 0)" fill="#265359" stroke="#265359" stroke-width="1"/>
    <path id="Path_211020" data-name="Path 211020" d="M1293.745,956.12c.926,0,1.854.023,2.78-.007.654-.021.726.356.711.862s.094,1.064-.7,1.062q-2.822-.007-5.646,0c-.786,0-.686-.541-.708-1.05-.025-.566.1-.908.778-.879C1291.89,956.149,1292.818,956.119,1293.745,956.12Z" transform="translate(-3.426 -1.666)" fill="#265359" stroke="#265359" stroke-width="1"/>
    <path id="Path_211021" data-name="Path 211021" d="M1316.133,966.48a15.64,15.64,0,1,1-15.6,15.607A15.472,15.472,0,0,1,1316.133,966.48Zm.027,27.6a11.977,11.977,0,1,0-11.973-11.991A11.767,11.767,0,0,0,1316.16,994.075Z" transform="translate(-6.853 -5.1)" fill="#265359" stroke="#265359" stroke-width="1"/>
    <path id="Path_211022" data-name="Path 211022" d="M1350.695,970.845a1.813,1.813,0,1,1-1.857-1.809A1.912,1.912,0,0,1,1350.695,970.845Z" transform="translate(-22.261 -5.947)" fill="#265359" stroke="#265359" stroke-width="1"/>
    <path id="Path_211023" data-name="Path 211023" d="M1311.795,985.558c-.787.177-.926-.22-.89-.932a8.711,8.711,0,0,1,7.76-7.772c.472-.019,1.007-.122.98.65-.021.606.153,1.2-.833,1.3a6.658,6.658,0,0,0-5.95,5.947C1312.783,985.477,1312.449,985.669,1311.795,985.558Z" transform="translate(-10.285 -8.53)" fill="#265359" stroke="#265359" stroke-width="1"/>
  </g>
</svg>
