<svg xmlns="http://www.w3.org/2000/svg" width="46.811" height="44.295" viewBox="0 0 46.811 44.295"><defs><style>.a{fill:#1a171b;}</style></defs><g transform="translate(-1374.962 -207.895)"><g transform="translate(1374.962 231.158)"><path class="a" d="M1409.814,234.624h-2.831V232.96a2.849,2.849,0,0,0-2.841-2.841h-1.412a2.85,2.85,0,0,0-2.842,2.841v4.148h-13.578V232.96a2.849,2.849,0,0,0-2.842-2.841h-1.42a2.847,2.847,0,0,0-2.833,2.841v1.664h-2.842a1.412,1.412,0,0,0-1.412,1.41v9.22a1.41,1.41,0,0,0,1.412,1.41h2.842v1.664a2.831,2.831,0,0,0,2.833,2.822h1.42a2.833,2.833,0,0,0,2.842-2.822v-4.147h13.578v4.147a2.834,2.834,0,0,0,2.842,2.822h1.412a2.833,2.833,0,0,0,2.841-2.822v-1.664h2.831a1.412,1.412,0,0,0,1.424-1.41v-9.22A1.414,1.414,0,0,0,1409.814,234.624Zm-33.44,10.63v-9.22h2.842v9.22Zm8.515,3.074a1.412,1.412,0,0,1-1.42,1.41h-1.42a1.41,1.41,0,0,1-1.412-1.41V232.96a1.411,1.411,0,0,1,1.412-1.41h1.42a1.413,1.413,0,0,1,1.42,1.41v15.368Zm1.421-5.557v-4.253h13.578v4.253Zm19.253,5.557a1.412,1.412,0,0,1-1.421,1.41h-1.412a1.412,1.412,0,0,1-1.42-1.41V232.96a1.413,1.413,0,0,1,1.42-1.41h1.412a1.413,1.413,0,0,1,1.421,1.41v15.368Zm1.42-3.074v-9.22h2.831l.011,9.22Z" transform="translate(-1374.962 -230.119)"/></g><g transform="translate(1410.069 207.895)"><path class="a" d="M1419.49,214.862H1416.3V210.02a2.128,2.128,0,0,0-2.128-2.125h-3.546a2.126,2.126,0,0,0-2.126,2.125V226.8a2.128,2.128,0,0,0,2.126,2.128h3.546a2.13,2.13,0,0,0,2.128-2.128v-4.841h3.188a.708.708,0,0,0,.715-.716v-5.663A.71.71,0,0,0,1419.49,214.862Zm-4.61,11.936a.707.707,0,0,1-.706.716h-3.546a.705.705,0,0,1-.7-.716V210.02a.7.7,0,0,1,.7-.694h3.546a.7.7,0,0,1,.706.694V226.8Zm3.9-6.251H1416.3v-4.253h2.483Z" transform="translate(-1408.501 -207.895)"/></g><g transform="translate(1385.489 207.895)"><path class="a" d="M1385.723,221.957h3.2V226.8a2.12,2.12,0,0,0,2.125,2.128h3.548a2.127,2.127,0,0,0,2.126-2.128V210.02a2.125,2.125,0,0,0-2.126-2.125h-3.548a2.118,2.118,0,0,0-2.125,2.125v4.842h-3.2a.709.709,0,0,0-.7.716v5.663A.708.708,0,0,0,1385.723,221.957Zm4.612-11.937a.711.711,0,0,1,.715-.694h3.548a.7.7,0,0,1,.706.694V226.8a.707.707,0,0,1-.706.716h-3.548a.715.715,0,0,1-.715-.716V210.02Zm-3.9,6.274h2.486v4.253h-2.486Z" transform="translate(-1385.019 -207.895)"/></g><g transform="translate(1398.312 214.862)"><path class="a" d="M1397.974,215.983h9.221a.723.723,0,0,0,.716-.716.71.71,0,0,0-.716-.716h-9.221a.708.708,0,0,0-.7.716A.721.721,0,0,0,1397.974,215.983Z" transform="translate(-1397.269 -214.551)"/></g><g transform="translate(1398.312 220.547)"><path class="a" d="M1397.974,221.392h9.221a.705.705,0,1,0,0-1.41h-9.221a.7.7,0,0,0,0,1.41Z" transform="translate(-1397.269 -219.982)"/></g></g></svg>