<svg xmlns="http://www.w3.org/2000/svg" width="104.87" height="102.054" viewBox="0 0 104.87 102.054">
  <g id="Group_72959" data-name="Group 72959" transform="translate(20.647 -119.731) rotate(49)">
    <path id="Path_211069" data-name="Path 211069" d="M141.337,131.742c0-2.634-.025-5.219.036-7.8.007-.285.455-.677.785-.819q5.2-2.235,10.432-4.392c.551-.229.859-.462.819-1.161-.427-7.364-.814-14.73-1.215-22.1-.016-.282-.058-.564-.1-.945l-31.879,9.953v-1.259c0-3.383.027-6.767-.022-10.15a1.792,1.792,0,0,1,.99-1.8c9.647-5.8,19.268-11.645,28.916-17.442a1.669,1.669,0,0,0,.911-1.8c-.281-4.453-.681-8.909-.682-13.365a16.48,16.48,0,0,1,5.422-12.4c2.933-2.735,6.261-2.714,9.139.1a17.122,17.122,0,0,1,5.3,13.844,3.651,3.651,0,0,0-.038.43,5.052,5.052,0,0,1-2.331,4.99c-2.337,1.628-2.716,4.451-2.67,7.2a19.114,19.114,0,0,0,.221,3.119,1.51,1.51,0,0,1-.711,1.6,29.081,29.081,0,0,0-3.471,3.221,8.356,8.356,0,0,0,.268,11.557,26.415,26.415,0,0,0,3.191,2.9,2.029,2.029,0,0,1,.773,2.013,33.22,33.22,0,0,0,.133,6.095c.15,1.105,1,2.106,1.49,3.177a4.257,4.257,0,0,1,.549,1.731c-.091,3.093-.255,6.184-.446,9.272a1.022,1.022,0,0,0,.745,1.2c3.491,1.431,6.959,2.918,10.449,4.349a1.22,1.22,0,0,1,.916,1.343c-.058,2.158-.042,4.319-.018,6.478.008.673-.177.951-.912.95q-18.251-.031-36.5-.021A4.307,4.307,0,0,1,141.337,131.742Z" transform="translate(0 0)" fill="#265359"/>
    <path id="Path_211070" data-name="Path 211070" d="M281.376,129.443c-.693-.058-1.644-.131-2.593-.217a3.206,3.206,0,0,0-2.927,1.239c-.687.836-1.351,1.7-2.1,2.472-1.2,1.239-2.339,1.225-3.537-.028-.711-.743-1.349-1.559-1.994-2.362a3.368,3.368,0,0,0-3.125-1.318c-1.128.1-2.261.2-3.393.212a1.985,1.985,0,0,1-2.256-2.236,17.836,17.836,0,0,1,.219-2.77,3.8,3.8,0,0,0-1.564-3.926,18.448,18.448,0,0,1-2.27-1.978,2.028,2.028,0,0,1,0-3.2,23.091,23.091,0,0,1,2.39-2.077,3.555,3.555,0,0,0,1.425-3.6,20.43,20.43,0,0,1-.213-2.926,2.035,2.035,0,0,1,2.334-2.328,26.139,26.139,0,0,1,3,.218,3.562,3.562,0,0,0,3.525-1.441A25.912,25.912,0,0,1,270.146,101c1.287-1.34,2.415-1.338,3.712.011.695.723,1.32,1.516,1.948,2.3a3.239,3.239,0,0,0,2.977,1.294c1.155-.1,2.313-.2,3.471-.21a1.95,1.95,0,0,1,2.267,2.137,11.722,11.722,0,0,1-.163,2.461,4.168,4.168,0,0,0,1.789,4.579,12.545,12.545,0,0,1,1.825,1.549c1.266,1.249,1.271,2.374,0,3.6a29.022,29.022,0,0,1-2.243,1.9,3.389,3.389,0,0,0-1.426,3.155c.08.846.143,1.694.228,2.54C284.76,128.645,283.962,129.516,281.376,129.443Zm-7.284-15.911c0-1.21.006-2.42,0-3.63-.01-1.541-.65-2.618-2.081-2.63a2.285,2.285,0,0,0-2.318,2.521c-.029.952-.007,1.9-.007,2.857,0,1.545-.03,3.09.012,4.634a2.361,2.361,0,0,0,2.286,2.555c1.4,0,2.1-1.1,2.107-2.6C274.1,116,274.091,114.768,274.091,113.532ZM272.08,126.09c1.382-.014,1.892-.8,1.893-2.18,0-1.412-.836-1.85-2.253-1.837-1.353.012-1.912.737-1.912,2.077C269.809,125.525,270.688,126.1,272.08,126.09Z" transform="translate(-81.094 216.345) rotate(-50)" fill="#265359"/>
  </g>
</svg>
