<svg xmlns="http://www.w3.org/2000/svg" width="36.645" height="36.645" viewBox="0 0 36.645 36.645"><defs><style>.a{fill:#fff;}</style></defs><g transform="translate(-47.027 -301.763)"><path class="a" d="M65.335,338.408a18.323,18.323,0,1,1,18.338-18.237A18.314,18.314,0,0,1,65.335,338.408Zm15.409-18.347a15.375,15.375,0,1,0-15.373,15.378A15.308,15.308,0,0,0,80.744,320.061Z" transform="translate(0 0)"/><path class="a" d="M90.49,350.258c0,1.661-.008,3.322,0,4.983.008,1.2.17,1.346,1.391,1.422.409.025.9-.124,1.143.387a.839.839,0,0,1-.837,1.259c-3.123.016-6.246,0-9.369.011-.534,0-.91-.118-.919-.755s.289-.913.908-.9c.265.006.531-.018.8-.02a.933.933,0,0,0,1.046-1.047c0-2.824.032-5.649-.012-8.472-.019-1.2-1.009-1.1-1.833-1.174-.428-.037-1,.179-1.11-.518-.089-.559.022-.946.722-1.028,1.227-.143,2.455-.1,3.682-.153,1.128-.047,2.256-.087,3.381-.161.727-.048,1.021.25,1.011.98-.025,1.727-.008,3.455-.008,5.183Z" transform="translate(-22.028 -26.912)"/><path class="a" d="M87.588,324.216a3.237,3.237,0,0,1,3.265-3.206,3.312,3.312,0,0,1,3.186,3.221,3.276,3.276,0,0,1-3.255,3.245A3.206,3.206,0,0,1,87.588,324.216Z" transform="translate(-25.789 -12.238)"/></g></svg>