<svg xmlns="http://www.w3.org/2000/svg" width="14.027" height="13.876" viewBox="0 0 14.027 13.876">
  <g id="Group_65829" data-name="Group 65829" transform="translate(-1030.035 -664.085)">
    <g id="Group_65820" data-name="Group 65820" transform="translate(1030.035 664.085)">
      <path id="Path_200890" data-name="Path 200890" d="M1042.358,669.207a.219.219,0,0,0-.208-.177h-7.1a5.9,5.9,0,0,0,1-2.7,2.247,2.247,0,0,0-4.494,0,5.9,5.9,0,0,0,1,2.7h-.605a.219.219,0,0,0-.208.177l-1.7,8.5a.219.219,0,0,0,.208.258h13.6a.219.219,0,0,0,.208-.258Zm.382,4.081h-2.432l-.177-1.7h2.268Zm-.426-2.132h-2.226l-.173-1.7h2.059Zm-2.652,0h-2.4v-1.7h2.226Zm-5.859-6.648a1.826,1.826,0,0,1,1.819,1.824c0,1.261-1.343,3.153-1.819,3.777-.476-.624-1.823-2.516-1.823-3.777A1.826,1.826,0,0,1,1033.8,664.507Zm-.745,6.163c0-.133.139-.277.363-.359.12.164.2.258.215.283a.219.219,0,0,0,.331,0c.016-.025.094-.12.217-.283.221.082.36.227.36.359,0,.2-.3.428-.741.428S1033.057,670.872,1033.057,670.67Zm-2.211,5.166h2.681l-.177,1.7h-2.844Zm5.989,1.7h-3.059l.176-1.7h2.882Zm.426,0v-1.911a.217.217,0,0,0-.215-.214H1034l.077-.731a.208.208,0,0,0-.189-.227.2.2,0,0,0-.234.183l-.082.776h-2.637l.341-1.7h1.1a.215.215,0,0,0,.215-.214.21.21,0,0,0-.215-.208h-1.016l.767-3.829h.7c.12.183.236.354.34.505a.807.807,0,0,0-.53.706.837.837,0,0,0,.593.738,2.571,2.571,0,0,0-.328,1.754,1.229,1.229,0,0,0,.719.782,1.839,1.839,0,0,0,1.826-.246c.419-.246.7-.385,1.069-.227a1.064,1.064,0,0,1,.647.845,1.3,1.3,0,0,0,.924,1.066,1.711,1.711,0,0,0,1.236-.17,1.12,1.12,0,0,1,1.495.2.811.811,0,0,0-.53.713c0,.473.514.851,1.166.851s1.171-.378,1.171-.851-.515-.852-1.171-.852a4.065,4.065,0,0,1-2.292-.454,1.357,1.357,0,0,1-.946.158c-.47-.151-.542-.416-.646-.782a1.465,1.465,0,0,0-.883-1.116,1.5,1.5,0,0,0-1.454.252,1.43,1.43,0,0,1-1.441.221.8.8,0,0,1-.483-.511,2.319,2.319,0,0,1,.35-1.532,1.124,1.124,0,0,0,.148.013c.653,0,1.167-.372,1.167-.852a.8.8,0,0,0-.53-.706c.1-.152.221-.322.344-.505h2.053v1.7h-1.523a.214.214,0,0,0,0,.429h1.523v.991a.213.213,0,1,0,.426,0v-.991h2.444l.177,1.7h-1.861a.206.206,0,0,0-.211.208.211.211,0,0,0,.211.214h1.9l.039.366a.213.213,0,0,0,.211.189h.022a.211.211,0,0,0,.189-.233l-.032-.322h2.472l.764,3.823Zm4.187-1.835c.439,0,.745.227.745.429s-.306.422-.745.422-.744-.221-.744-.422S1041.011,675.7,1041.449,675.7Z" transform="translate(-1030.035 -664.085)" fill="#92a9ac"/>
    </g>
    <g id="Group_65821" data-name="Group 65821" transform="translate(1033.816 671.792)">
      <path id="Path_200891" data-name="Path 200891" d="M1039.605,682.9a.21.21,0,0,0-.231.189l-.107,1.015a.21.21,0,0,0,.189.233.029.029,0,0,0,.022.007.218.218,0,0,0,.211-.2l.1-1.015A.214.214,0,0,0,1039.605,682.9Z" transform="translate(-1039.266 -682.9)" fill="#92a9ac"/>
    </g>
    <g id="Group_65822" data-name="Group 65822" transform="translate(1032.777 665.328)">
      <path id="Path_200892" data-name="Path 200892" d="M1038.776,668.141a1.023,1.023,0,1,0-1.022,1.022A1.019,1.019,0,0,0,1038.776,668.141Zm-1.022.6a.6.6,0,1,1,.6-.6A.6.6,0,0,1,1037.754,668.74Z" transform="translate(-1036.729 -667.119)" fill="#92a9ac"/>
    </g>
  </g>
</svg>
