<svg xmlns="http://www.w3.org/2000/svg" xmlns:xlink="http://www.w3.org/1999/xlink" width="98.973" height="92.244" viewBox="0 0 98.973 92.244">
  <defs>
    <clipPath id="clip-path">
      <rect id="Rectangle_2905" data-name="Rectangle 2905" width="82.573" height="81.343" fill="none"/>
    </clipPath>
  </defs>
  <g id="Group_72961" data-name="Group 72961" transform="translate(-919 -375)">
    <g id="Artwork_9" data-name="Artwork 9" transform="translate(960.287 415.672)">
      <g id="Group_7728" data-name="Group 7728" transform="translate(-41.287 -40.672)" clip-path="url(#clip-path)">
        <path id="Path_4449" data-name="Path 4449" d="M43.282,107.163H10.8c-1.373,0-1.373,0-1.373,1.37v8.6a2.973,2.973,0,0,1-2.983,3.213c-1.7-.047-2.746-1.417-2.746-3.26V77.211A2.963,2.963,0,0,1,6.636,74c1.752-.047,2.841,1.323,2.841,3.165v22.913c0,.945.237,1.228,1.184,1.228H31.4c.9,0,1.184-.283,1.184-1.181-.047-3.4,0-6.85,0-10.3a6.634,6.634,0,0,1,6.96-6.756c9.469.142,18.986.047,28.456.047a14.26,14.26,0,0,1,7.481,1.8c4.64,2.74,7.291,6.756,7.386,12.189.095,6.709.047,13.464,0,20.173a2.9,2.9,0,0,1-3.693,2.929,2.977,2.977,0,0,1-2.036-2.835v-8.6c0-1.8.189-1.654-1.7-1.654H43.282Zm14.488-5.858H75.81c1.278,0,1.278,0,1.278-1.181v-2.5a8.408,8.408,0,0,0-6.96-8.409,28.42,28.42,0,0,0-5.3-.094H40.015c-1.562,0-1.562,0-1.562,1.559,0,3.165.047,6.331,0,9.543,0,.945.284,1.228,1.231,1.228H57.818" transform="translate(-1.948 -39.039)" fill="#265359"/>
        <path id="Path_4450" data-name="Path 4450" d="M82.505,25.292a2.9,2.9,0,0,1-3.882,2.976,10.423,10.423,0,0,1-1.562-.85L42.213,6.773a1.66,1.66,0,0,0-1.941,0L7.129,26.426,4.951,27.7c-1.941,1.134-3.646.9-4.64-.709s-.237-3.165,1.61-4.252l15.814-9.354Q28.388,7.08,39.041.726a3.842,3.842,0,0,1,4.4,0L80.612,22.788a3.28,3.28,0,0,1,1.894,2.551" transform="translate(0.068 -0.017)" fill="#265359"/>
        <path id="Path_4451" data-name="Path 4451" d="M31.338,109.772a8.135,8.135,0,0,1-8.238-8.031,8.239,8.239,0,0,1,16.477-.142,8.135,8.135,0,0,1-8.238,8.173m-.047-10.488a2.27,2.27,0,0,0-2.32,2.362,2.365,2.365,0,0,0,2.32,2.409,2.507,2.507,0,0,0,2.415-2.457,2.365,2.365,0,0,0-2.415-2.315" transform="translate(-12.162 -49.301)" fill="#265359"/>
      </g>
    </g>
    <g id="Group_72960" data-name="Group 72960" transform="translate(-8 19)">
      <path id="Path_211070" data-name="Path 211070" d="M281.376,129.443c-.693-.058-1.644-.131-2.593-.217a3.206,3.206,0,0,0-2.927,1.239c-.687.836-1.351,1.7-2.1,2.472-1.2,1.239-2.339,1.225-3.537-.028-.711-.743-1.349-1.559-1.994-2.362a3.368,3.368,0,0,0-3.125-1.318c-1.128.1-2.261.2-3.393.212a1.985,1.985,0,0,1-2.256-2.236,17.836,17.836,0,0,1,.219-2.77,3.8,3.8,0,0,0-1.564-3.926,18.448,18.448,0,0,1-2.27-1.978,2.028,2.028,0,0,1,0-3.2,23.091,23.091,0,0,1,2.39-2.077,3.555,3.555,0,0,0,1.425-3.6,20.43,20.43,0,0,1-.213-2.926,2.035,2.035,0,0,1,2.334-2.328,26.139,26.139,0,0,1,3,.218,3.562,3.562,0,0,0,3.525-1.441A25.912,25.912,0,0,1,270.146,101c1.287-1.34,2.415-1.338,3.712.011.695.723,1.32,1.516,1.948,2.3a3.239,3.239,0,0,0,2.977,1.294c1.155-.1,2.313-.2,3.471-.21a1.95,1.95,0,0,1,2.267,2.137,11.722,11.722,0,0,1-.163,2.461,4.168,4.168,0,0,0,1.789,4.579,12.545,12.545,0,0,1,1.825,1.549c1.266,1.249,1.271,2.374,0,3.6a29.022,29.022,0,0,1-2.243,1.9,3.389,3.389,0,0,0-1.426,3.155c.08.846.143,1.694.228,2.54C284.76,128.645,283.962,129.516,281.376,129.443Z" transform="translate(733.741 317.84) rotate(-1)" fill="#265359" stroke="#fff" stroke-width="2"/>
      <path id="Path_211071" data-name="Path 211071" d="M3.533,4.9c0,.969.005,1.938,0,2.907a1.877,1.877,0,0,1-1.747,2.05A1.874,1.874,0,0,1,.016,7.876C-.014,6.665.008,5.453.007,4.242c0-.747-.016-1.495,0-2.241A1.851,1.851,0,0,1,1.8,0,1.837,1.837,0,0,1,3.532,2.051C3.537,3,3.533,3.949,3.533,4.9Z" transform="translate(1005.702 422.806) rotate(-1)" fill="#fff"/>
      <path id="Path_211072" data-name="Path 211072" d="M1.837,3.584A1.807,1.807,0,0,1,0,1.788,1.8,1.8,0,0,1,1.788,0,1.765,1.765,0,0,1,3.6,1.8,1.755,1.755,0,0,1,1.837,3.584Z" transform="translate(1007.928 433.544) rotate(49)" fill="#fff"/>
    </g>
  </g>
</svg>
