<svg xmlns="http://www.w3.org/2000/svg" width="29.081" height="29.641" viewBox="0 0 29.081 29.641"><defs><style>.a{fill:#265359;}</style></defs><g transform="translate(-468.865 -541.362)"><path class="a" d="M502.127,541.362a8.376,8.376,0,1,1-8.4,8.349A8.3,8.3,0,0,1,502.127,541.362Zm-.047,14.471a6.1,6.1,0,1,0-6.072-6.163A6.2,6.2,0,0,0,502.08,555.833Z" transform="translate(-18.689 0)"/><path class="a" d="M497.946,629.016a1,1,0,0,1-.654,1.076,1.138,1.138,0,0,1-1.378-.389c-.489-.65-.912-1.351-1.424-1.981a14.27,14.27,0,0,0-22.928,1.025c-.152.225-.29.459-.445.682-.514.743-1.164.965-1.753.6s-.663-1.033-.21-1.844a14.966,14.966,0,0,1,2.167-2.889,16.666,16.666,0,0,1,26.062,2.4A2.629,2.629,0,0,1,497.946,629.016Z" transform="translate(0 -59.197)"/></g></svg>