<svg xmlns="http://www.w3.org/2000/svg" width="709.345" height="698.169" viewBox="0 0 709.345 698.169"><defs><style>.a{fill:#e0e0e0;}.b{fill:#ebebeb;}.c{opacity:0.35;}.d{fill:#ff725e;}.e{fill:#263238;}.f{fill:#fff;}.g{fill:#f5f5f5;}.h{fill:#265359;}.i{fill:#d4b2b1;}.j{opacity:0.6;}.k{fill:#455a64;}.l{opacity:0.3;}.m{fill:#ffbe9d;}.n{fill:#eb996e;}</style></defs><g transform="translate(-35.154 -56.306)"><g transform="translate(164.859 175.336)"><g transform="translate(0 284.683)"><g transform="translate(424.257 129.787)"><path class="a" d="M407.358,379.382,370.62,538.893l15.531-.038,36.821-157.969Z" transform="translate(-370.62 -379.382)"/></g><g transform="translate(528.013 129.787)"><path class="a" d="M433.453,379.382,470.32,538.893h14.761L449.41,379.382Z" transform="translate(-433.453 -379.382)"/></g><g transform="translate(436.197 9.984)"><path class="a" d="M377.851,306.831l20.918,109.82H422.54L400.2,306.831Z" transform="translate(-377.851 -306.831)"/></g><g transform="translate(41.899 129.787)"><path class="a" d="M169.037,379.382,139.073,538.893h15.254l31.305-159.511Z" transform="translate(-139.073 -379.382)"/></g><g transform="translate(134.875 129.787)"><path class="a" d="M195.377,379.382l34.257,158.64h15.072l-33.08-158.64Z" transform="translate(-195.377 -379.382)"/></g><g transform="translate(47.066 9.984)"><path class="a" d="M142.2,306.831l20.918,109.82h23.771l-22.344-109.82Z" transform="translate(-142.202 -306.831)"/></g><path class="b" d="M113.7,300.785l4.279,19.967H595.292l-5.57-19.967Z" transform="translate(-113.7 -300.785)"/><g transform="translate(9.123 38.776)"><path class="b" d="M119.225,324.267l5.037,19.967H598.349l-4.311-19.967Z" transform="translate(-119.225 -324.267)"/></g><g transform="translate(18.541 78.918)"><path class="b" d="M124.928,348.577l4.7,19.967H602.242l-4.468-19.967Z" transform="translate(-124.928 -348.577)"/></g><g transform="translate(54.672 119.803)"><rect class="b" width="509.641" height="19.967"/></g></g><g class="c" transform="translate(335.313)"><path class="d" d="M339.254,285.615a22.463,22.463,0,0,1-19.484-33.636l64.38-112.3a22.235,22.235,0,0,1,19.418-11.29h.073a22.231,22.231,0,0,1,19.416,11.173l65.067,111.9a22.463,22.463,0,0,1-19.35,33.753l-129.448.4ZM403.639,135.1h-.05a15.6,15.6,0,0,0-13.62,7.918l-64.38,112.3a15.755,15.755,0,0,0,13.666,23.591h.05l129.447-.4a15.755,15.755,0,0,0,13.572-23.673L417.257,142.931A15.6,15.6,0,0,0,403.639,135.1Z" transform="translate(-316.758 -128.388)"/><g transform="translate(74.234 49.345)"><path class="d" d="M361.727,164.22l3.012,41.881a6.8,6.8,0,0,0,6.437,6.3h0a6.8,6.8,0,0,0,7.111-6.1l4.29-42.155a5.336,5.336,0,0,0-5.43-5.874l-10.22.231A5.334,5.334,0,0,0,361.727,164.22Z" transform="translate(-361.712 -158.27)"/><g transform="translate(0.809 64.238)"><path class="d" d="M382.166,210.54a10.227,10.227,0,1,1-6.6-12.872A10.226,10.226,0,0,1,382.166,210.54Z" transform="translate(-362.202 -197.171)"/></g></g></g></g><g transform="translate(298.422 56.306)"><g transform="translate(0)"><path class="e" d="M397.588,571.961l-166.712-.1c-20.05-.011-36.3-17.1-36.293-38.17l.081-439.226c0-21.082,16.274-38.169,36.336-38.157l166.714.1c20.05.012,36.3,17.1,36.293,38.17l-.083,439.226C433.92,554.89,417.65,571.974,397.588,571.961Z" transform="translate(-194.583 -56.306)"/><g transform="translate(11.046 15.536)"><path class="f" d="M393.18,65.816l-32.323-.02c-4.335,0-7.85,3.857-7.85,8.618l0,6.161c0,4.762-3.516,8.622-7.85,8.618l-63-.038c-4.335,0-7.849-3.866-7.847-8.628l0-6.161c0-4.762-3.514-8.625-7.849-8.628l-11.368-.007-28.29-.018c-14.049-.008-25.445,11.957-25.447,26.723l-.081,428.715c0,14.758,11.376,26.725,25.419,26.735l166.379.1c14.049.01,25.444-11.956,25.448-26.722L418.6,92.55C418.6,77.792,407.221,65.826,393.18,65.816Z" transform="translate(-201.272 -65.714)"/></g><g transform="translate(45.945 455.247)"><g transform="translate(0 0.944)"><path class="a" d="M232.963,333.721v10.5a1.152,1.152,0,0,1-1.77.974l-8.252-5.248a1.156,1.156,0,0,1,0-1.95l8.252-5.248A1.152,1.152,0,0,1,232.963,333.721Z" transform="translate(-222.406 -332.565)"/></g><g transform="translate(63.896)"><path class="a" d="M275.57,339.246a7.235,7.235,0,1,1-7.236-7.253A7.244,7.244,0,0,1,275.57,339.246Z" transform="translate(-261.1 -331.993)"/></g><g transform="translate(130.309 0.944)"><path class="a" d="M1.869,0h9.61a1.87,1.87,0,0,1,1.87,1.87v9.64a1.869,1.869,0,0,1-1.869,1.869H1.87A1.87,1.87,0,0,1,0,11.51V1.869A1.869,1.869,0,0,1,1.869,0Z"/></g></g><g transform="translate(38.173 112.913)"><g transform="translate(0 9.982)"><circle class="g" cx="82.14" cy="82.14" r="82.14" transform="translate(0 164.279) rotate(-90)"/><g transform="translate(22.717 36.564)"><path class="h" d="M-151.493,193.059a17.063,17.063,0,0,1,7.262-9.962c2.773-1.775,5.364-3.828,8.064-5.719a3.945,3.945,0,0,1,1.6-.643c3.1-.485,6.215-.912,9.715-1.415-9.426-2.134-13.7-8.282-14.077-17.136-.3-7,2.68-12.488,9.207-15.842l-23.074,3.24c.049,4.31-1.942,7.052-6.175,8.2.491,3.626.974,7.216,1.467,10.8.324,2.363.732,4.718.957,7.089a2.857,2.857,0,0,1-.67,1.94c-3.181,3.582-7.435,5.327-11.869,6.737a10.461,10.461,0,0,0-2.143.743c-.408.237-.609.832-.9,1.266.459.155.985.539,1.371.43,6.29-1.782,12.139-4.307,16.516-9.489a22.911,22.911,0,0,1,8.815-6.529,13.563,13.563,0,0,1,3.909-1c3.255-.28,5.271,1.6,5.35,4.885a8.665,8.665,0,0,1-3.061,6.916,26.658,26.658,0,0,1-4.673,3.216,19.962,19.962,0,0,0-8.793,9.872,94.558,94.558,0,0,1-6.358,12.234,25.3,25.3,0,0,1-15.55,11.038,1.686,1.686,0,0,1-2.045-.684c-4.9-6.014-9.859-11.98-14.751-18a1.862,1.862,0,0,1-.292-1.639c4.644-8.205,9.384-16.356,14.037-24.558a10.076,10.076,0,0,1,6.737-4.923c2.677-.665,5.347-1.359,8.217-2.09-.386-2.865-.761-5.749-1.163-8.63-.36-2.577-.746-5.15-1.124-7.724-.339-2.3.321-3.266,2.617-3.591q16.594-2.35,33.2-4.658,18.048-2.532,36.093-5.08c2.436-.345,3.339.22,3.685,2.648q2.6,18.275,5.128,36.559c.282,2.032-.454,2.98-2.437,3.26q-25.7,3.614-51.408,7.186c-1.14.157-1.719.43-1.781,1.709a6.424,6.424,0,0,1-2.788,5.1,41.124,41.124,0,0,1-4.717,3.155A19.912,19.912,0,0,1-151.493,193.059Zm58.6-48.554c-4.424.045-7.1-2.046-8.216-6.186l-23.092,3.256c7.178,1.411,11.5,5.8,13.185,12.545,2.172,8.679-.254,15.76-8.757,20.5l23.353-3.3c-.121-4.5,2.092-7.074,6.145-8.217Zm-32.244,23.5a7.879,7.879,0,0,1,.154.884c.07,1.363.755,1.674,2.061,1.494,1.255-.174,1.8-.667,1.48-1.9-.266-1.037.2-1.533,1.075-2.006a4.817,4.817,0,0,0,2.73-4.8,4.673,4.673,0,0,0-3.5-4.415,40.115,40.115,0,0,1-3.9-1.115c-.73-.317-1.246-1.128-1.859-1.718.72-.549,1.376-1.411,2.175-1.577a22.3,22.3,0,0,1,4.26-.072c.073-.79.536-2.334.173-2.561a12.813,12.813,0,0,0-3.658-1.044,2.587,2.587,0,0,1-.1-.532c-.028-1.331-.751-1.608-1.947-1.438-1.122.16-1.955.472-1.593,1.817.275,1.022-.287,1.408-1.054,1.861a4.729,4.729,0,0,0-2.538,4.732,4.424,4.424,0,0,0,3.2,3.921c1.219.437,2.512.658,3.76,1.017,1.113.319,2.371.689,2.215,2.148-.148,1.4-1.4,1.7-2.57,1.768-1.493.085-2.994.02-4.609.02-1.056,2.384-.731,3.028,1.942,3.34C-126.6,167.906-125.948,167.941-125.138,168.007Z" transform="translate(203.055 -132.258)"/><path class="h" d="M-195.253,192.757a8.336,8.336,0,0,1,1.827,1.29q8.151,9.817,16.215,19.705a2.419,2.419,0,0,1-.323,3.821q-2.221,1.9-4.523,3.714a2.334,2.334,0,0,1-3.687-.391q-8.181-9.9-16.3-19.845c-1.009-1.234-1.017-2.53.057-3.485,1.658-1.474,3.406-2.851,5.154-4.22A6.4,6.4,0,0,1-195.253,192.757Z" transform="translate(202.801 -130.86)"/><path class="h" d="M-154.577,196.252a13.826,13.826,0,0,0,.662-1.473,1.908,1.908,0,0,1,2.352-1.517c2.364.194,4.4-.923,6.323-2.195.488-.323.972-.653,1.515-1.017C-144.1,194-149.381,197.029-154.577,196.252Z" transform="translate(203.915 -130.922)"/><path class="h" d="M-156.644,200.267c.394-1.666,1.222-2.16,2.963-2.24a53.833,53.833,0,0,0,7.71-1.392C-146.572,199.564-150.947,201.231-156.644,200.267Z" transform="translate(203.867 -130.77)"/><path class="h" d="M-149.184,163.533a2.4,2.4,0,0,1-2.4-2.371,2.431,2.431,0,0,1,2.41-2.368,2.365,2.365,0,0,1,2.369,2.378A2.348,2.348,0,0,1-149.184,163.533Z" transform="translate(203.984 -131.645)"/><path class="f" d="M-126.506,167.671c-.81-.066-1.459-.1-2.1-.176-2.672-.312-3-.957-1.942-3.34,1.615,0,3.116.064,4.609-.02,1.166-.066,2.422-.37,2.57-1.768.156-1.459-1.1-1.828-2.215-2.147-1.248-.359-2.541-.58-3.76-1.017a4.424,4.424,0,0,1-3.2-3.921,4.729,4.729,0,0,1,2.538-4.732c.766-.453,1.329-.839,1.054-1.861-.362-1.345.471-1.657,1.593-1.817,1.2-.17,1.919.107,1.947,1.438a2.583,2.583,0,0,0,.1.532,12.812,12.812,0,0,1,3.658,1.044c.363.227-.1,1.771-.173,2.561a22.3,22.3,0,0,0-4.26.072c-.8.166-1.455,1.027-2.175,1.577.613.589,1.128,1.4,1.859,1.718a40.117,40.117,0,0,0,3.9,1.115,4.673,4.673,0,0,1,3.5,4.415,4.817,4.817,0,0,1-2.73,4.8c-.878.474-1.341.969-1.075,2.006.316,1.232-.225,1.725-1.48,1.9-1.305.18-1.991-.131-2.061-1.494A7.887,7.887,0,0,0-126.506,167.671Z" transform="translate(204.424 -131.921)"/><path class="h" d="M-100.635,154.751a2.412,2.412,0,0,1-2.442,2.329,2.424,2.424,0,0,1-2.313-2.46,2.414,2.414,0,0,1,2.446-2.325A2.393,2.393,0,0,1-100.635,154.751Z" transform="translate(205.052 -131.795)"/></g></g></g><g transform="translate(105.418 56.718)"><path class="a" d="M267.811,95.437a13.51,13.51,0,0,1,3.289-1.43l.679-3.256,5.5-.1.791,3.232a13.421,13.421,0,0,1,3.339,1.314l2.783-1.825,3.96,3.824-1.724,2.842a13.531,13.531,0,0,1,1.43,3.293l3.256.677.1,5.5-3.232.793a13.448,13.448,0,0,1-1.314,3.339l1.823,2.781-3.823,3.96-2.844-1.724a13.431,13.431,0,0,1-3.291,1.43l-.677,3.258-5.5.1-.793-3.232a13.508,13.508,0,0,1-3.339-1.313l-2.781,1.823-3.96-3.823,1.724-2.844a13.459,13.459,0,0,1-1.43-3.291l-3.258-.679-.1-5.5,3.232-.791a13.482,13.482,0,0,1,1.313-3.339l-1.823-2.782,3.823-3.96,2.845,1.724Zm2.933,7.332a5.9,5.9,0,1,0,8.349-.147A5.9,5.9,0,0,0,270.744,102.769Z" transform="translate(-258.422 -90.653)"/></g><g transform="translate(30.918 66.881)"><g transform="translate(0.001 5.146)"><path class="e" d="M227.361,101.734c-1.736,0-3.937-.04-6.138-.079-2.629-.048-5.254-.092-7.081-.074h-.01a.826.826,0,0,1-.01-1.651c1.838-.023,4.485.026,7.13.074,2.629.05,5.256.1,7.081.074h.01a.826.826,0,0,1,.01,1.651C228.045,101.733,227.713,101.734,227.361,101.734Z" transform="translate(-213.307 -99.923)"/></g><path class="e" d="M219.165,109.278a.825.825,0,0,1-.618-.277l-5.032-5.667a.826.826,0,0,1,.018-1.118l4.908-5.152a.825.825,0,1,1,1.2,1.138l-4.383,4.6,4.528,5.1a.826.826,0,0,1-.618,1.374Z" transform="translate(-213.306 -96.807)"/></g><g transform="translate(204.417 63.875)"><g transform="translate(0.001)"><circle class="e" cx="2.566" cy="2.566" r="2.566"/></g><g transform="translate(0 8.091)"><path class="e" d="M323.507,102.453a2.567,2.567,0,1,1-2.566-2.566A2.567,2.567,0,0,1,323.507,102.453Z" transform="translate(-318.373 -99.887)"/></g><g transform="translate(0.001 16.182)"><circle class="e" cx="2.566" cy="2.566" r="2.566"/></g></g><g transform="translate(41.261 317.586)"><path class="e" d="M243,249.058c0,.238-5.245.431-11.713.431s-11.713-.193-11.713-.431,5.243-.429,11.713-.429S243,248.822,243,249.058Z" transform="translate(-219.57 -248.629)"/></g><g transform="translate(42.442 344.998)"><path class="e" d="M284.591,265.658c0,.238-14.4.431-32.151.431s-32.154-.193-32.154-.431,14.393-.429,32.154-.429S284.591,265.421,284.591,265.658Z" transform="translate(-220.285 -265.229)"/></g><g transform="translate(42.442 372.23)"><path class="e" d="M284.591,282.149c0,.238-14.4.431-32.151.431s-32.154-.193-32.154-.431,14.393-.429,32.154-.429S284.591,281.913,284.591,282.149Z" transform="translate(-220.285 -281.72)"/></g><g transform="translate(157.947 335.145)"><rect class="b" width="44.098" height="20.567" rx="6.227"/><g transform="translate(1.546 1.67)"><path class="a" d="M308.395,268.886a8.613,8.613,0,1,1-8.613-8.613A8.614,8.614,0,0,1,308.395,268.886Z" transform="translate(-291.168 -260.273)"/></g></g><g transform="translate(157.947 362.377)"><path class="b" d="M324.046,296.32H300.515a10.283,10.283,0,0,1-10.283-10.284h0a10.283,10.283,0,0,1,10.283-10.283h23.531a10.283,10.283,0,0,1,10.284,10.283h0A10.284,10.284,0,0,1,324.046,296.32Z" transform="translate(-290.232 -275.753)"/><g transform="translate(1.545 1.67)"><circle class="a" cx="8.613" cy="8.613" r="8.613"/></g></g><g transform="translate(42.442 399.647)"><path class="e" d="M284.591,298.752c0,.238-14.4.429-32.151.429s-32.154-.191-32.154-.429,14.393-.429,32.154-.429S284.591,298.515,284.591,298.752Z" transform="translate(-220.285 -298.323)"/></g><g transform="translate(157.947 392.839)"><path class="b" d="M324.046,314.767H300.515a10.283,10.283,0,0,1-10.283-10.284h0A10.283,10.283,0,0,1,300.515,294.2h23.531a10.283,10.283,0,0,1,10.284,10.283h0A10.284,10.284,0,0,1,324.046,314.767Z" transform="translate(-290.232 -294.2)"/><g transform="translate(1.545 1.67)"><circle class="a" cx="8.613" cy="8.613" r="8.613"/></g></g></g></g><g transform="translate(535.164 569.149)"><g transform="translate(64.283 8.032)"><path class="h" d="M376.877,371.736Q388.922,457.5,400.965,543.26l6.268.2C403.235,485.206,398.977,425.789,376.877,371.736Z" transform="translate(-376.877 -371.736)"/></g><g transform="translate(97.634)"><path class="h" d="M430.617,366.872c-16.824,18.43-23.591,43.783-27.851,68.373-6.044,34.871-6.592,76.043-4.781,111.386l8.79.2A483.827,483.827,0,0,1,430.617,366.872Z" transform="translate(-397.074 -366.872)"/></g><g transform="translate(0 49.024)"><path class="h" d="M406.659,457.043c-1.934-8.5-4.145-17.141-8.995-24.38-6.554-9.777-17.228-15.962-27.97-20.775s-22.042-8.664-31.745-15.328c10.828,17.757,35.406,22.481,47.923,39.088,6.227,8.263,8.811,18.629,11.252,28.683,5.322,21.926,8.6,40.9,13.919,62.824h7.122A560.67,560.67,0,0,0,406.659,457.043Z" transform="translate(-337.949 -396.56)"/></g><g transform="translate(113.754 53.637)"><path class="h" d="M406.836,525.475s6.032-68.122,10.5-80.629,46.755-47.064,46.349-45.438-31.712,39.437-36.184,47.162-12.2,78.9-12.2,78.9Z" transform="translate(-406.836 -399.353)"/></g></g><g transform="translate(35.154 101.071)"><g transform="translate(0 0)"><g transform="translate(77.263 557.127)"><path class="i" d="M128.393,420.8l-46.45,38.1,47.1,58.032c5.268-4.838-7.971-43.9-7.971-43.9l30.762-23.189Z" transform="translate(-81.943 -420.798)"/><g class="j" transform="translate(22.483 31.727)"><path class="f" d="M100.158,440.533a3.055,3.055,0,0,0-4.036.557,2.934,2.934,0,0,0,.517,4c1.2.9,3.484.665,4.269-.613s.385-3.524-1-4.105" transform="translate(-95.558 -440.011)"/></g><g class="j" transform="translate(0.182 34.07)"><path class="f" d="M82.053,445.3l4.673-3.869,43.165,57.534s.95,3.5-1.115,4.673Z" transform="translate(-82.053 -441.43)"/></g><g transform="translate(32.635 49.649)"><path class="e" d="M109.263,454.15c-.291.221-1.569-1.092-3.611-1.746-2.026-.708-3.838-.431-3.937-.783-.157-.306,1.881-1.258,4.34-.423C108.519,452.013,109.573,454,109.263,454.15Z" transform="translate(-101.706 -450.864)"/></g><g transform="translate(35.216 59.257)"><path class="e" d="M110.668,458.491c-.223.287-1.7-.55-3.681-.538-1.98-.048-3.473.761-3.689.469-.261-.231,1.24-1.774,3.7-1.739C109.461,456.695,110.933,458.265,110.668,458.491Z" transform="translate(-103.269 -456.683)"/></g><g transform="translate(38.095 67.97)"><path class="e" d="M105.053,464.424c-.269-.208.827-1.752,2.969-2.284,2.14-.548,3.836.292,3.7.6-.1.35-1.635.165-3.387.629C106.57,463.8,105.309,464.684,105.053,464.424Z" transform="translate(-105.013 -461.959)"/></g><g transform="translate(41.377 41.027)"><path class="e" d="M112.24,451.489c-.355.091-1.019-1.526-2.427-3.04-1.379-1.542-2.928-2.352-2.806-2.7.073-.33,2.109.035,3.744,1.841S112.575,451.447,112.24,451.489Z" transform="translate(-107 -445.643)"/></g><g transform="translate(47.956 28.004)"><path class="e" d="M115.408,449.655c-.114.1-1.2-.88-2.343-2.92a16.736,16.736,0,0,1-1.534-3.8,17.764,17.764,0,0,1-.471-2.388,4.6,4.6,0,0,1-.028-1.432,1.589,1.589,0,0,1,1.4-1.354,2,2,0,0,1,1.656.715,4.941,4.941,0,0,1,.735,1.212,13.575,13.575,0,0,1,.845,2.31,13.238,13.238,0,0,1,.416,4.109c-.154,2.358-.839,3.676-.973,3.625-.2-.053.157-1.428.074-3.635a14.924,14.924,0,0,0-.644-3.777,13.761,13.761,0,0,0-.839-2.086c-.339-.746-.758-1.273-1.159-1.209-.15.028-.2.055-.274.329a3.754,3.754,0,0,0,.025,1.05,19.518,19.518,0,0,0,.37,2.247,20.756,20.756,0,0,0,1.2,3.684C114.755,448.377,115.565,449.535,115.408,449.655Z" transform="translate(-110.984 -437.756)"/></g><g transform="translate(51.658 33.831)"><path class="e" d="M113.243,447.317c-.126-.064.433-1.452,2.185-3.045a12.095,12.095,0,0,1,5.869-2.878,3.1,3.1,0,0,1,2.972.662,1.753,1.753,0,0,1,.175,1.873,5.078,5.078,0,0,1-.824,1.163,8.355,8.355,0,0,1-1.955,1.592,8.629,8.629,0,0,1-4.011,1.2c-2.424.086-3.722-.822-3.644-.923.064-.21,1.414.334,3.564.028a8.616,8.616,0,0,0,3.476-1.3,7.691,7.691,0,0,0,1.636-1.415c.543-.593.852-1.227.6-1.407a2.14,2.14,0,0,0-1.777-.245,12.492,12.492,0,0,0-2.16.56,13.423,13.423,0,0,0-3.357,1.79C114.227,446.272,113.411,447.436,113.243,447.317Z" transform="translate(-113.226 -441.285)"/></g><g transform="translate(25.404 31.061)"><path class="i" d="M97.327,439.666l.563,60.072,74.742-.319c-.467-7.137-39.2-21.307-39.2-21.307l1.219-38.5Z" transform="translate(-97.327 -439.608)"/></g><g class="j" transform="translate(36.225 66.294)"><path class="f" d="M106.043,461.074a3.052,3.052,0,0,0-2.1,3.492,2.934,2.934,0,0,0,3.443,2.107c1.452-.376,2.7-2.3,2.2-3.709s-2.507-2.51-3.824-1.8" transform="translate(-103.88 -460.944)"/></g><g class="j" transform="translate(25.873 84.884)"><path class="f" d="M97.7,478.267l-.084-6.065,71.884,2.437s3.324,1.455,2.943,3.8Z" transform="translate(-97.611 -472.202)"/></g><g transform="translate(55.928 68.846)"><path class="e" d="M122.606,462.822c-.01.365-1.833.538-3.625,1.721-1.821,1.134-2.741,2.718-3.076,2.574-.337-.068.2-2.252,2.391-3.644C120.475,462.061,122.683,462.487,122.606,462.822Z" transform="translate(-115.812 -462.49)"/></g><g transform="translate(65.642 72.242)"><path class="e" d="M126.628,464.693c.086.353-1.493.981-2.726,2.528-1.278,1.513-1.584,3.184-1.947,3.169-.343.059-.6-2.077.966-3.975C124.473,464.506,126.62,464.344,126.628,464.693Z" transform="translate(-121.694 -464.546)"/></g><g transform="translate(74.624 75.442)"><path class="e" d="M127.579,472.794c-.332.079-.847-1.742.081-3.745s2.632-2.806,2.787-2.5c.208.3-.895,1.375-1.633,3.032C128.038,471.217,127.94,472.756,127.579,472.794Z" transform="translate(-127.133 -466.484)"/></g><g transform="translate(54.258 59.076)"><path class="e" d="M122.569,457.871c-.152.334-1.828-.163-3.89-.015-2.066.107-3.668.806-3.859.494-.211-.263,1.349-1.62,3.782-1.762C121.03,456.428,122.748,457.584,122.569,457.871Z" transform="translate(-114.8 -456.573)"/></g><g transform="translate(48.825 45.531)"><path class="e" d="M122.894,454.352c0,.15-1.437.383-3.744,0a16.84,16.84,0,0,1-3.92-1.186,17.84,17.84,0,0,1-2.155-1.133,4.562,4.562,0,0,1-1.133-.875,1.591,1.591,0,0,1-.177-1.94,2,2,0,0,1,1.6-.842,4.888,4.888,0,0,1,1.405.188,13.221,13.221,0,0,1,5.791,3.04c1.742,1.6,2.34,2.959,2.214,3.03-.165.12-1.014-1.017-2.784-2.337a14.909,14.909,0,0,0-3.346-1.866,13.918,13.918,0,0,0-2.152-.654c-.793-.2-1.466-.206-1.668.145-.074.135-.083.188.084.419a3.705,3.705,0,0,0,.832.639,19.4,19.4,0,0,0,1.983,1.121,20.618,20.618,0,0,0,3.625,1.372C121.49,454.06,122.9,454.154,122.894,454.352Z" transform="translate(-111.51 -448.371)"/></g><g transform="translate(58.716 40.149)"><path class="e" d="M118.52,457c-.129.056-.859-1.248-1-3.611a12.169,12.169,0,0,1,.492-4.1,12.351,12.351,0,0,1,.945-2.277,3.091,3.091,0,0,1,2.38-1.9,1.75,1.75,0,0,1,1.569,1.037,5.036,5.036,0,0,1,.39,1.371,8.391,8.391,0,0,1,.013,2.522,8.624,8.624,0,0,1-1.582,3.872c-1.453,1.944-2.974,2.386-3.005,2.264-.122-.183,1.146-.893,2.256-2.761a8.6,8.6,0,0,0,1.169-3.521,7.725,7.725,0,0,0-.078-2.163c-.121-.794-.421-1.433-.718-1.351-.372-.005-1,.6-1.3,1.232a12.622,12.622,0,0,0-.918,2.033,13.455,13.455,0,0,0-.708,3.739C118.322,455.579,118.719,456.944,118.52,457Z" transform="translate(-117.5 -445.111)"/></g></g><g transform="translate(72.526 240.257)"><path class="e" d="M115.619,228.909S105.146,240.125,100,250.872s-8.433,36.392-8.433,36.392S77.1,319.48,79.3,335.964,96.229,465.175,96.229,465.175s-.728,109.588,9.7,129.126l2.328,10.547,42.135-7.48h0l-.263-6.325,9.952-214.876,25.356-146.284Z" transform="translate(-79.074 -228.909)"/><g transform="translate(34.205 1.707)"><path class="e" d="M195.114,260.189s25.192,138.7,27.414,162.777-83.527,151-83.527,151L99.788,533.135l56.277-104.611L137.773,323.1l25.445-93.152,26.727.938Z" transform="translate(-99.788 -229.943)"/></g><g transform="translate(20.325 79.704)"><path class="k" d="M91.383,528.746a28.656,28.656,0,0,0,.3,3.066c.256,2.01.751,4.966,1.45,8.782,1.4,7.634,3.674,18.7,6.726,32.529l.064.287.292-.051,42.15-7.388.319-.055.015-.325c1.171-28.92,2.571-63.487,4.074-100.554,1.556-39.886,3-76.869,4.179-107.21l0,.036c3.159-24.375,5.771-44.531,7.6-58.635.882-7.007,1.574-12.507,2.051-16.3.22-1.846.39-3.276.509-4.282.109-.969.135-1.471.135-1.471s-.106.492-.254,1.455q-.218,1.506-.623,4.269c-.527,3.785-1.291,9.275-2.264,16.27-1.907,14.094-4.635,34.235-7.931,58.59l0,.018v.018c-1.232,30.34-2.731,67.319-4.35,107.2-1.448,37.07-2.8,71.637-3.927,100.559l.332-.38-42.119,7.573.355.234c-3.131-13.8-5.5-24.847-7-32.455-.748-3.8-1.3-6.746-1.608-8.744-.175-1-.271-1.759-.34-2.271S91.383,528.746,91.383,528.746Z" transform="translate(-91.383 -277.176)"/></g></g><g transform="translate(43.916 120.886)"><path class="k" d="M61.749,218.585S87.841,162.346,94,159.354s23.855-3.986,26.259-.626L73.5,226.069Z" transform="translate(-61.749 -156.621)"/></g><g transform="translate(0 174.611)"><path class="k" d="M80.43,189.8a5.224,5.224,0,0,0-3.782-.489l-.038.01c-8.1,2.029-37.729,9.976-41.034,18.386C31.744,217.46,55.184,344.294,58.2,347.728s49.622-2.338,51.049-7.748S94.093,197.867,94.093,197.867Z" transform="translate(-35.154 -189.155)"/><g transform="translate(2.458 87.04)"><path class="k" d="M42.684,241.865s-2.639.15-5.268,5.991,2,53.151,5.486,57.991,13.643,5.861,13.643,5.861Z" transform="translate(-36.643 -241.865)"/></g><g transform="translate(40.77 3.644)"><path class="e" d="M79.5,341.117a1.4,1.4,0,0,1-.236-.317l-.619-.974a43.477,43.477,0,0,1-2.138-3.889,71.231,71.231,0,0,1-5.324-15.413,198.088,198.088,0,0,1-3.7-23.9c-.966-9.051-2.025-18.989-3.136-29.422-2.247-20.873-4.122-39.807-4.434-53.584-.172-6.884-.03-12.459.18-16.3.1-1.924.216-3.413.312-4.422.046-.461.084-.837.116-1.146a1.343,1.343,0,0,1,.068-.39,1.36,1.36,0,0,1,.02.395c-.008.312-.018.69-.03,1.153q-.055,1.625-.15,4.424c-.107,3.841-.157,9.4.092,16.269.466,13.736,2.434,32.643,4.681,53.513,1.087,10.433,2.124,20.369,3.066,29.42a208.251,208.251,0,0,0,3.5,23.853,75.467,75.467,0,0,0,5.033,15.405c.811,1.737,1.486,3.068,1.987,3.947l.543,1.016A1.435,1.435,0,0,1,79.5,341.117Z" transform="translate(-59.844 -191.362)"/></g><g transform="translate(8.44 78.136)"><path class="e" d="M77.388,236.513a46.949,46.949,0,0,1-5.522,1.04c-3.413.59-8.11,1.494-13.235,2.761s-9.7,2.664-13,3.734a46.217,46.217,0,0,1-5.368,1.655,5.22,5.22,0,0,1,1.347-.694c.888-.4,2.193-.926,3.821-1.536a122.133,122.133,0,0,1,26.34-6.521c1.724-.221,3.124-.363,4.1-.424A5.144,5.144,0,0,1,77.388,236.513Z" transform="translate(-40.266 -236.473)"/></g><g transform="translate(7.874 81.796)"><path class="e" d="M39.94,238.689a2.762,2.762,0,0,1,.2.776c.109.613.243,1.354.4,2.249.348,2.091.814,4.888,1.38,8.283,1.169,6.993,2.867,16.637,5,27.24S51.21,297.4,52.833,304.3c.789,3.351,1.44,6.112,1.925,8.174.2.887.362,1.622.5,2.229a2.735,2.735,0,0,1,.117.793,2.857,2.857,0,0,1-.284-.748c-.178-.6-.395-1.319-.654-2.19-.555-1.905-1.306-4.676-2.193-8.113-1.774-6.871-4.033-16.416-6.169-27.035s-3.735-20.293-4.751-27.316c-.51-3.511-.888-6.358-1.113-8.329-.1-.9-.177-1.655-.243-2.274A2.783,2.783,0,0,1,39.94,238.689Z" transform="translate(-39.923 -238.689)"/></g><g transform="translate(41.015 1.598)"><path class="e" d="M60.042,213.223a12.926,12.926,0,0,1,.263-3.516,76.176,76.176,0,0,1,4.335-16.4,12.81,12.81,0,0,1,1.509-3.184c.238.092-1.632,5.111-3.3,11.483C61.15,207.972,60.294,213.259,60.042,213.223Z" transform="translate(-59.992 -190.123)"/></g></g><g transform="translate(166.101 31.031)"><path class="e" d="M174.388,150.061c-.272-4.772-.869-28-1.144-31.532a19.587,19.587,0,0,0-5.842-12.775c-3.5-3.255-8.95-4.648-13.248-2.556h0a8.188,8.188,0,0,0-5.861,5.74c-9.777,34.76-8.232,71.77-12.552,107.717,12.758,2.076,29.93,1.227,42.838.552C178.579,188.5,176.15,181.048,174.388,150.061Z" transform="translate(-135.741 -102.207)"/><g transform="translate(22.895 9.892)"><path class="k" d="M159.978,195.167a4,4,0,0,1-.1-.928c-.033-.7-.073-1.584-.124-2.665-.074-2.431-.177-5.752-.3-9.806-.177-8.384-.414-19.771-.679-32.353-.1-6.316-.188-12.327-.272-17.816-.033-2.731-.064-5.332-.094-7.774a38.79,38.79,0,0,0-.462-6.693,10.913,10.913,0,0,0-4.974-7.859,8.724,8.724,0,0,0-3.365-1.027c0-.013.079-.026.236-.036a3.861,3.861,0,0,1,.7.007,6.79,6.79,0,0,1,2.584.771,9.529,9.529,0,0,1,3.212,2.815,12.965,12.965,0,0,1,2.186,5.215,38.019,38.019,0,0,1,.575,6.8c.055,2.441.112,5.041.172,7.773.1,5.489.22,11.5.339,17.814.168,12.585.32,23.972.433,32.358.015,4.056.026,7.378.035,9.809-.013,1.083-.023,1.967-.033,2.668A3.9,3.9,0,0,1,159.978,195.167Z" transform="translate(-149.606 -108.197)"/></g><g transform="translate(21.435 30.421)"><path class="k" d="M148.953,173.892a10.076,10.076,0,0,1-.155-2.1c-.045-1.347-.074-3.3-.076-5.71-.012-4.823.094-11.483.277-18.835.2-7.266.385-13.836.523-18.827.076-2.277.14-4.189.19-5.7a10.083,10.083,0,0,1,.17-2.092,10.044,10.044,0,0,1,.155,2.094c.045,1.347.076,3.3.078,5.712.01,4.822-.1,11.483-.279,18.837-.2,7.264-.385,13.833-.523,18.823-.076,2.279-.139,4.189-.19,5.705A10.1,10.1,0,0,1,148.953,173.892Z" transform="translate(-148.721 -120.629)"/></g></g><g transform="translate(54.339 104.821)"><g transform="translate(0 18.799)"><path class="h" d="M117.4,158.276c-1.668,0-32.8,2.224-40.021,35.574s-9.315,80.086-9.315,80.086l33.773-3.38Z" transform="translate(-68.061 -158.276)"/></g><g transform="translate(15.179)"><path class="h" d="M126.7,158.314l5.494-10.128,47.8-1.295,3.238,8.625,28.218,10.174-2.213,125.064,20.9,115.434s-.206,16.609-55.925,21.941L169.8,367.785l-27.825-.654.756,58.932s-49.113-.8-64.677-11.913c0,0-4.718-56.156,8.683-96.581,11.736-35.4,16.312-44.559,16.312-44.559L104.064,166.9Z" transform="translate(-77.253 -146.892)"/></g><g class="l" transform="translate(20.935 20.237)"><path d="M109.644,159.147q-14.453,61.791-28.9,123.578l9.789,10.382a29.215,29.215,0,0,0,16.893-26.291c-.051-5.709-1.807-11.283-2.043-16.987-.535-12.879,6.592-24.686,9.847-37.158C119.832,195.01,116.516,176.057,109.644,159.147Z" transform="translate(-80.739 -159.147)"/></g><g transform="translate(137.229 17.205)"><path class="h" d="M157.345,157.311c11.49,2.122,20.473,14.352,23.08,27.461,1.526,7.674,6,44.7,6,44.7l2.464,13.564s2.064,46.661-7.834,51.87c-11.558,6.08-18.188-.59-21.992-5.481s-7.9-36.692-7.9-36.692l4.348-76.091Z" transform="translate(-151.164 -157.311)"/></g><g transform="translate(137.765 35.924)"><path class="e" d="M162.608,168.647a8.126,8.126,0,0,1-.134,1.339q-.2,1.424-.547,3.813c-.525,3.392-1.262,8.153-2.167,14-.951,5.933-2.076,12.955-3.324,20.744-.636,3.905-1.3,8-2,12.246-.708,4.246-1.547,8.62-1.914,13.138a46.583,46.583,0,0,0-.033,7.793l-.008-.055c3.58,16.023,6.934,30.186,9.451,40.324,1.276,5,2.31,9.043,3.047,11.929.353,1.339.634,2.406.845,3.213a6.246,6.246,0,0,1,.244,1.133,6.423,6.423,0,0,1-.4-1.087c-.249-.8-.578-1.853-.991-3.175-.822-2.774-1.973-6.815-3.3-11.871-2.665-10.109-6.123-24.253-9.73-40.281l0-.028,0-.026a47.063,47.063,0,0,1,.026-7.938c.372-4.582,1.222-8.975,1.94-13.209s1.394-8.333,2.046-12.235c1.316-7.778,2.5-14.789,3.506-20.714,1.017-5.828,1.846-10.572,2.436-13.954q.443-2.373.707-3.788A7.7,7.7,0,0,1,162.608,168.647Z" transform="translate(-151.488 -168.647)"/></g><g transform="translate(21.267 17.201)"><g transform="translate(5.025)"><path class="k" d="M83.983,166.765l8.775,117.115S109.142,209.2,109.813,190.1s-3.322-32.567-3.322-32.567S90.611,155.037,83.983,166.765Z" transform="translate(-83.983 -157.309)"/></g><g transform="translate(0 1.965)"><path class="e" d="M80.945,158.5a7.882,7.882,0,0,1,2.92,1.605,6.52,6.52,0,0,1,2.041,3.081,18.056,18.056,0,0,1,.875,4.358c.284,3.113.264,5.917.271,7.944a15.664,15.664,0,0,1-.129,3.288,10.567,10.567,0,0,1-.479-3.266c-.162-2.024-.239-4.83-.52-7.883-.268-3.024-.964-5.793-2.462-7.068A31.1,31.1,0,0,1,80.945,158.5Z" transform="translate(-80.94 -158.498)"/></g></g><g transform="translate(64.707 11.955)"><path class="e" d="M124.542,165.6c-.04.036-.386-.324-.991-1.024s-1.47-1.739-2.541-3.057l.49-.069c-1.192,3.45-2.994,8.456-5.071,14.066l-.292.791-.452-.682c-.243-.367-.533-.746-.77-1.153a46.136,46.136,0,0,1-3.425-7.791c-.87-2.452-1.587-4.677-2.2-6.536s-1.123-3.36-1.5-4.388a7.83,7.83,0,0,1-.53-1.623,5.732,5.732,0,0,1,.839,1.5c.476,1,1.075,2.472,1.764,4.313.7,1.909,1.5,4.085,2.376,6.465a49.964,49.964,0,0,0,3.415,7.616c.225.39.494.736.72,1.083l-.745.109c2.091-5.6,4-10.572,5.347-13.965l.19-.476.3.4A36.83,36.83,0,0,1,124.542,165.6Z" transform="translate(-107.246 -154.132)"/></g><g transform="translate(101.296 15.358)"><path class="e" d="M148.089,156.193a6.317,6.317,0,0,1-.585,1.567c-.428.984-1.073,2.4-1.907,4.13s-1.854,3.785-3.053,6.036a58.926,58.926,0,0,1-4.323,7.144l-.547.738-.211-.9-.091-.385c-1.351-5.766-2.528-11-3.344-14.816l.53.13a20.95,20.95,0,0,1-3.8,2.886c-.887.652-1.3,1.115-1.356,1.067a4.031,4.031,0,0,1,1.144-1.329,26.753,26.753,0,0,0,3.545-3.025l.38-.456.149.586c.964,3.778,2.234,8.993,3.585,14.759l.091.385-.76-.165a66.015,66.015,0,0,0,4.312-6.993l3.207-5.932q1.256-2.336,2.148-4A6.468,6.468,0,0,1,148.089,156.193Z" transform="translate(-129.403 -156.192)"/></g><g transform="translate(76.765 22.2)"><path class="f" d="M120.615,161.084s-4.635,60.281-5.844,68.029,2.918,129.262,2.918,129.262l27.153,1.737s.281-100.318,0-101.008.125-70.828.125-70.828l-6.166-27.94-10.5,12.439Z" transform="translate(-114.548 -160.336)"/></g><g transform="translate(110.792 80.042)"><path class="e" d="M137.491,195.569c.063.129-.95.352-1.438,1.655a2.6,2.6,0,0,0,.126,2.181,2.382,2.382,0,0,0,4.178-.773,2.6,2.6,0,0,0-.662-2.081,3.786,3.786,0,0,0-1.934-1.032c-.01-.043.215-.168.664-.155a2.74,2.74,0,0,1,1.7.761,3.12,3.12,0,0,1,1.011,2.629,3.119,3.119,0,0,1-5.649,1.042,3.119,3.119,0,0,1,0-2.815,2.742,2.742,0,0,1,1.321-1.319C137.23,195.49,137.484,195.526,137.491,195.569Z" transform="translate(-135.154 -195.363)"/></g><g transform="translate(110.792 132.661)"><path class="e" d="M137.491,227.434c.063.129-.95.352-1.438,1.656a2.6,2.6,0,0,0,.126,2.18,2.382,2.382,0,0,0,4.178-.773,2.6,2.6,0,0,0-.662-2.081,3.8,3.8,0,0,0-1.934-1.032c-.01-.043.215-.168.664-.155a2.74,2.74,0,0,1,1.7.761,3.12,3.12,0,0,1,1.011,2.629,3.119,3.119,0,0,1-5.649,1.042,3.119,3.119,0,0,1,0-2.816,2.743,2.743,0,0,1,1.321-1.319C137.23,227.355,137.484,227.391,137.491,227.434Z" transform="translate(-135.154 -227.228)"/></g><g transform="translate(113.199 196.303)"><path class="e" d="M138.949,265.974c.063.129-.951.352-1.438,1.656a2.594,2.594,0,0,0,.125,2.18,2.382,2.382,0,0,0,4.178-.773,2.608,2.608,0,0,0-.662-2.081,3.8,3.8,0,0,0-1.935-1.032c-.008-.043.216-.168.665-.155a2.74,2.74,0,0,1,1.7.761,3.122,3.122,0,0,1,1.011,2.629,3.119,3.119,0,0,1-5.649,1.042,3.119,3.119,0,0,1,0-2.816,2.736,2.736,0,0,1,1.321-1.319C138.688,265.895,138.942,265.931,138.949,265.974Z" transform="translate(-136.612 -265.768)"/></g><g class="l" transform="translate(139.585 48.101)"><path d="M163.736,207.7c-.591-4.807-1.869-9.525-2.188-14.358-.38-5.773.613-11.645-.52-17.319-3.93,6.554-4.815,14.479-4.847,22.121s.7,15.332-.385,22.9c-.74,5.174-2.427,11.412-3.058,16.6s.862,8.068,2.378,15.872C160.346,238.72,165.655,223.269,163.736,207.7Z" transform="translate(-152.59 -176.021)"/></g><g transform="translate(134.77 67.492)"><g transform="translate(0.008 0)"><path class="h" d="M156.475,187.764a61.081,61.081,0,0,1-6.8,53.991" transform="translate(-149.68 -187.764)"/></g><path class="h" d="M149.683,241.756c-.147-.094,1.66-2.7,3.828-7.3a63.6,63.6,0,0,0,3.2-8.306,63.23,63.23,0,0,0,2.71-21.531,63.922,63.922,0,0,0-1.044-8.843c-.961-4.989-2.066-7.959-1.9-8.015a11.053,11.053,0,0,1,.844,2.058,24.238,24.238,0,0,1,.8,2.484c.266.983.621,2.091.854,3.352a57.316,57.316,0,0,1,1.238,8.924,59.8,59.8,0,0,1-2.745,21.809,57.272,57.272,0,0,1-3.412,8.336c-.538,1.166-1.156,2.15-1.658,3.037a23.42,23.42,0,0,1-1.39,2.208A11.169,11.169,0,0,1,149.683,241.756Z" transform="translate(-149.675 -187.764)"/></g><g transform="translate(41.801 125.932)"><path class="e" d="M111.118,244.405a16.39,16.39,0,0,1-3.177-2.566,77.388,77.388,0,0,1-12.6-15.1,16.455,16.455,0,0,1-1.957-3.585,23.006,23.006,0,0,1,2.46,3.245c1.463,2.034,3.532,4.807,5.976,7.74s4.805,5.459,6.546,7.262A23.334,23.334,0,0,1,111.118,244.405Z" transform="translate(-93.375 -223.154)"/></g><g transform="translate(41.644 125.969)"><path class="e" d="M100.308,246.093a12.659,12.659,0,0,1-1.676-3.114A69.254,69.254,0,0,1,93.668,226.7a12.715,12.715,0,0,1-.345-3.521c.254-.041,1.209,5.248,3.147,11.564C98.383,241.063,100.543,245.986,100.308,246.093Z" transform="translate(-93.28 -223.176)"/></g><g transform="translate(83.542 114.384)"><path class="e" d="M136.892,219.231c-.088.121-1-.523-2.631-1.169A15.431,15.431,0,0,0,121.1,219c-1.524.869-2.337,1.635-2.439,1.529-.068-.058.6-1,2.117-2.046a14.037,14.037,0,0,1,13.732-.976A6.025,6.025,0,0,1,136.892,219.231Z" transform="translate(-118.652 -216.161)"/></g></g><g transform="translate(39.435 122.022)"><g transform="translate(13.749 65.616)"><path class="m" d="M78.614,227.74s-12.124,13.2-11.2,22.415S72.635,279.649,84,279.035s21.647-18.884,23.183-33.39,0-48.6,0-48.6L90.993,200.69Z" transform="translate(-67.362 -197.044)"/></g><path class="e" d="M59.933,169.06c8.39,10.719,29.187,36.562,29.187,36.562l19.566-4.962a3.57,3.57,0,0,0,2.664-3.015h0a3.57,3.57,0,0,0-.74-2.657L83.193,160.278a7.815,7.815,0,0,0-8.874-2.472l-12.54,4.7A4.219,4.219,0,0,0,59.933,169.06Z" transform="translate(-59.035 -157.309)"/><g transform="translate(1.596 2.69)"><path class="k" d="M108.642,195.219a15.116,15.116,0,0,1-1.884-1.807c-1.163-1.21-2.83-2.977-4.827-5.218-4-4.47-9.35-10.823-14.845-18.156-1.374-1.833-2.695-3.638-3.95-5.4s-2.457-3.455-4.1-4.36c-1.64-.954-3.514-.555-5.141.018l-4.64,1.579-6.742,2.236a15.223,15.223,0,0,1-2.51.708,15.176,15.176,0,0,1,2.4-1.025l6.652-2.492,4.61-1.681a11.1,11.1,0,0,1,2.74-.667,5.423,5.423,0,0,1,3.007.626c1.887,1.024,3.156,2.839,4.411,4.566l3.953,5.373c5.481,7.312,10.735,13.708,14.614,18.273l4.617,5.392A15.358,15.358,0,0,1,108.642,195.219Z" transform="translate(-60.002 -158.938)"/></g><g transform="translate(11.102 8.007)"><path class="f" d="M66.661,162.31a1.643,1.643,0,1,1-.75,2.2,1.708,1.708,0,0,1,.75-2.2" transform="translate(-65.759 -162.158)"/></g><g transform="translate(15.132 30.856)"><path class="m" d="M81.857,176.727l-9.043,1.508L69.482,181.2a3.744,3.744,0,0,0-1.25,3.291,8.771,8.771,0,0,0,2.054,4.389,25.378,25.378,0,0,0,3.933,3.933s-3.185,5.152,1.747,7.755c0,0-.327,5.344,4.837,5.892,0,0,1.506,5.07,5.39,5.344l4.023,3.973-1.23,2.442,17.951.552s.134-9.839-.715-14.333a32.361,32.361,0,0,0-1.4-5.687c.913-5.066-2.867-7.167-3.435-6.818,0,0,8.569-2.242,7.469-8.141l-8.225,2.119-15.077,3.142,9.657-6.476a7.354,7.354,0,0,0,1.27-1.491c.824-1.3,2.041-3.664,1-5.04-.446-.589-12.33,4.384-12.33,4.384l-7.305,6.818-2.3-3.273S83.044,182.388,81.857,176.727Z" transform="translate(-68.199 -175.995)"/><g transform="translate(20.432 15.934)"><path class="n" d="M94.478,185.742c.026.253-3.189.713-7,1.83-3.823,1.1-6.785,2.427-6.9,2.2-.109-.193,2.743-1.9,6.658-3.025C91.142,185.6,94.466,185.52,94.478,185.742Z" transform="translate(-80.572 -185.644)"/></g><g transform="translate(22.696 21.955)"><path class="n" d="M89.448,198.907a27.591,27.591,0,0,0,3-3.2l.3-.411.218.477a2.839,2.839,0,0,0,1.468,1.4,2.214,2.214,0,0,0,2.165-.132.892.892,0,0,0,.309-.938c-.081-.487-.163-.981-.248-1.485a20.623,20.623,0,0,0-.616-3.045,2.064,2.064,0,0,0-2.013-1.443,9.717,9.717,0,0,0-2.74.509l-4.847,1.191a23.923,23.923,0,0,1-4.5.88,24.731,24.731,0,0,1,4.353-1.47l4.761-1.359a9.97,9.97,0,0,1,3-.591,3.032,3.032,0,0,1,1.7.512,3.067,3.067,0,0,1,1.092,1.461,19.36,19.36,0,0,1,.644,3.222c.078.515.155,1.021.231,1.519a1.715,1.715,0,0,1-.634,1.658,2.909,2.909,0,0,1-2.944.157A3.422,3.422,0,0,1,92.409,196l.517.066a11.59,11.59,0,0,1-2.409,2.272C89.873,198.782,89.476,198.952,89.448,198.907Z" transform="translate(-81.943 -189.29)"/></g><g transform="translate(6.084 6.65)"><path class="n" d="M80.138,180.031c.175.172-1.77,2.409-4.029,5.268s-4,5.259-4.208,5.127,1.234-2.766,3.534-5.661S79.976,179.869,80.138,180.031Z" transform="translate(-71.883 -180.021)"/></g><g transform="translate(12.964 12.782)"><path class="n" d="M81.15,183.8c.074.238-1.881.829-3.243,2.769-1.415,1.9-1.364,3.943-1.613,3.947-.1.012-.282-.5-.236-1.352A6.2,6.2,0,0,1,79.792,184C80.59,183.686,81.128,183.7,81.15,183.8Z" transform="translate(-76.049 -183.735)"/></g></g></g><g transform="translate(100.518)"><g transform="translate(4.77 0.529)"><path class="e" d="M163.13,115.894c-1.384-3.633-.841-7.685-1.385-11.534-1.2-8.476-8.017-15.28-15.91-18.594-7.343-3.083-16.317-2.424-25.169.426A33.783,33.783,0,0,0,104.832,96.48a26.615,26.615,0,0,0-4.923,23.9l43.365-6.26c4.054,3.364,8.207,6.784,13.128,8.663a8.967,8.967,0,0,0,4.525.727,4.041,4.041,0,0,0,3.377-2.778C164.7,119.088,163.731,117.473,163.13,115.894Z" transform="translate(-98.914 -83.735)"/></g><g transform="translate(11.437)"><path class="e" d="M133.548,83.793c9.493-1.6,17.833,2.064,25.83,7.424a47.572,47.572,0,0,1,17.484,22.423c3.654,9.459,4.568,23.138,1.739,32.876a29.487,29.487,0,0,1-18.594,19.989c-13.057,4.61-28.14,4.049-39.176-4.317s-17.332-22.182-17.844-36.02c-.353-9.533,1.937-19.284,7.274-27.191s13.846-13.812,23.287-15.186" transform="translate(-102.952 -83.415)"/></g><g transform="translate(5.641 15.568)"><g transform="translate(21.667 95.789)"><path class="m" d="M112.563,150.85" transform="translate(-112.563 -150.85)"/></g><path class="m" d="M120.757,180.9l.352,7.733,17.033,30.14,24.829-31.714.841-79.187a7.071,7.071,0,0,0-6.589-6.929l-37.845-8.067c-12.053-.819-19.481,14.264-19.788,26.342-.34,13.417-.226,29.813,1.734,39.741,3.945,19.964,19.433,21.941,19.433,21.941" transform="translate(-99.442 -92.843)"/></g><g transform="translate(9.618 0.613)"><g transform="translate(0 45.524)"><g transform="translate(0 0.642)"><g transform="translate(1.598 9.383)"><path class="e" d="M102.818,119.849a2.579,2.579,0,0,0,2.581,2.507,2.467,2.467,0,0,0,2.569-2.423,2.579,2.579,0,0,0-2.579-2.507A2.468,2.468,0,0,0,102.818,119.849Z" transform="translate(-102.818 -117.426)"/></g><path class="e" d="M101.9,114.646c.33.324,2.228-1.194,5-1.291,2.768-.135,4.855,1.214,5.144.862.142-.155-.206-.748-1.116-1.361a7.085,7.085,0,0,0-4.133-1.106,6.8,6.8,0,0,0-3.965,1.447C102,113.883,101.733,114.5,101.9,114.646Z" transform="translate(-101.85 -111.743)"/></g><g transform="translate(26.32)"><g transform="translate(0.435 9.549)"><path class="e" d="M118.052,119.56a2.576,2.576,0,0,0,2.581,2.505,2.463,2.463,0,0,0,2.568-2.421,2.578,2.578,0,0,0-2.578-2.507A2.467,2.467,0,0,0,118.052,119.56Z" transform="translate(-118.052 -117.137)"/></g><path class="e" d="M117.834,114.257c.332.324,2.231-1.194,5-1.29,2.766-.137,4.855,1.212,5.144.862.14-.157-.2-.75-1.118-1.362a7.076,7.076,0,0,0-4.132-1.106,6.794,6.794,0,0,0-3.965,1.448C117.939,113.494,117.672,114.111,117.834,114.257Z" transform="translate(-117.789 -111.354)"/></g><g transform="translate(10.882 0.829)"><path class="e" d="M115.58,135c.007-.159-1.727-.391-4.533-.644-.71-.046-1.385-.162-1.523-.641a3.6,3.6,0,0,1,.393-2.115q.9-2.606,1.891-5.468c2.619-7.783,4.487-14.172,4.171-14.274s-2.692,6.123-5.311,13.9q-.941,2.878-1.8,5.5a4.1,4.1,0,0,0-.264,2.792,1.781,1.781,0,0,0,1.2.991,4.864,4.864,0,0,0,1.207.122C113.831,135.209,115.575,135.156,115.58,135Z" transform="translate(-108.44 -111.856)"/></g><g transform="translate(17.338 48.657)"><path class="n" d="M112.35,149.65a55.975,55.975,0,0,0,26.629-8.83s-6.24,14.157-26.413,13.032Z" transform="translate(-112.35 -140.82)"/></g><g transform="translate(19.316 28.514)"><path class="n" d="M114.381,130.036a4.475,4.475,0,0,1,4.041-1.389,3.367,3.367,0,0,1,2.564,1.64,3.783,3.783,0,0,1,.244,3.831,3.358,3.358,0,0,1-3.6,1.055,8.539,8.539,0,0,1-3.385-1.556,2.246,2.246,0,0,1-.631-1.115,2.99,2.99,0,0,1,.766-2.467" transform="translate(-113.547 -128.622)"/></g></g><g transform="translate(26.512 39.648)"><path class="e" d="M117.923,110.083c.3.743,3.057.282,6.321.552,3.273.2,5.932,1.057,6.338.365.18-.33-.3-1.022-1.392-1.712a11.037,11.037,0,0,0-9.644-.7C118.371,109.115,117.793,109.73,117.923,110.083Z" transform="translate(-117.905 -107.796)"/></g><g transform="translate(0.313 33.86)"><path class="e" d="M102.121,107.349c.51.609,2.4-.116,4.691-.231,2.289-.2,4.255.263,4.678-.413.185-.327-.145-.945-1.017-1.509a6.8,6.8,0,0,0-7.55.517C102.136,106.391,101.895,107.049,102.121,107.349Z" transform="translate(-102.04 -104.291)"/></g><g transform="translate(13.983)"><path class="e" d="M162.648,110.024c-3.91-11.531-21.025-27.26-33.154-26.185l-19.177,12a18.722,18.722,0,0,0,12.965,14.081c3.448.979,7.583,1.189,9.677,4.1,2.138,2.972,1,7.38,3,10.45,2.766,4.254,10.1,3.914,12.2,8.531.92,2.018.5,4.457,1.458,6.458,1.272,2.665,8.143,5.948,10.94,5s2.718-5.738,3.592-8.268a13.294,13.294,0,0,0,.241-8.922C163.063,121.613,164.514,115.526,162.648,110.024Z" transform="translate(-110.318 -83.786)"/></g><g transform="translate(55.965 57.537)"><path class="m" d="M135.742,124.29c-.053-1.494,1.544-5.086,3.012-5.372,3.922-.763,11.042-.713,11.485,9.3.6,13.689-13.263,11.472-13.306,11.08C136.9,138.994,135.924,129.455,135.742,124.29Z" transform="translate(-135.741 -118.629)"/></g><g transform="translate(61.099 61.89)"><path class="n" d="M138.861,132.213c.059-.048.246.155.657.322a2.383,2.383,0,0,0,1.785-.041c1.422-.594,2.538-2.944,2.5-5.415a7.9,7.9,0,0,0-.819-3.387,2.759,2.759,0,0,0-1.874-1.75,1.217,1.217,0,0,0-1.379.715c-.167.391-.068.662-.139.687-.038.036-.3-.215-.22-.786a1.534,1.534,0,0,1,.5-.882,1.807,1.807,0,0,1,1.3-.406,3.353,3.353,0,0,1,2.584,2.013,8.107,8.107,0,0,1,1,3.78c.035,2.763-1.263,5.4-3.218,6.065a2.563,2.563,0,0,1-2.2-.266C138.9,132.543,138.815,132.239,138.861,132.213Z" transform="translate(-138.85 -121.266)"/></g></g><g transform="translate(0 8.317)"><path class="e" d="M123.608,88.661c-1.267,5.572-9.746,12.709-13.47,17.042-7.106,8.271-8.447,9.49-8.387,34.433-3.342-6.4-5.973-17.57-5.707-24.781A29.873,29.873,0,0,1,104,95.736c5.02-5.183,12.471-8.12,19.611-7.076" transform="translate(-96.026 -88.451)"/></g><g transform="translate(25.687 12.68)"><path class="k" d="M168.806,105.094a13.562,13.562,0,0,1-2.327.575,27.222,27.222,0,0,1-2.773.481c-1.087.14-2.322.353-3.7.424a65.817,65.817,0,0,1-9.706.089,68.015,68.015,0,0,1-23.018-5.631,65.633,65.633,0,0,1-8.57-4.559c-1.194-.7-2.19-1.46-3.09-2.087a27.5,27.5,0,0,1-2.238-1.7,13.254,13.254,0,0,1-1.8-1.585,13.554,13.554,0,0,1,1.99,1.331c.618.457,1.381,1.006,2.305,1.584s1.929,1.308,3.131,1.97a72.115,72.115,0,0,0,8.569,4.361,78.7,78.7,0,0,0,11.158,3.724,78.764,78.764,0,0,0,11.614,1.848,72.527,72.527,0,0,0,9.614.084c1.372-.033,2.6-.2,3.687-.3s2.016-.221,2.774-.342A13.461,13.461,0,0,1,168.806,105.094Z" transform="translate(-111.581 -91.093)"/></g><g transform="translate(44.591 28.657)"><path class="k" d="M162.764,108.611a6.334,6.334,0,0,1-1.587.386,39.384,39.384,0,0,1-4.416.556,54.922,54.922,0,0,1-28.536-5.628,39.026,39.026,0,0,1-3.872-2.19,6.25,6.25,0,0,1-1.323-.959c.074-.124,2.058,1.078,5.444,2.629a61.72,61.72,0,0,0,28.254,5.572C160.451,108.828,162.743,108.469,162.764,108.611Z" transform="translate(-123.029 -100.769)"/></g><g transform="translate(69.685 36.841)"><path class="k" d="M156.326,105.725a8.67,8.67,0,0,1,.461,2.061,53.361,53.361,0,0,1,.561,5.725,82.73,82.73,0,0,1,0,8.532,55.454,55.454,0,0,1-1.407,10.379,27.542,27.542,0,0,1-10.63,15.5,26.715,26.715,0,0,1-5.081,2.735,8.537,8.537,0,0,1-2,.674,12.6,12.6,0,0,1,1.868-.971,32.038,32.038,0,0,0,4.873-2.92,25.272,25.272,0,0,0,5.821-5.984,27.771,27.771,0,0,0,4.341-9.234A58.885,58.885,0,0,0,156.576,122c.208-3.179.231-6.055.182-8.466s-.167-4.363-.294-5.707A12.3,12.3,0,0,1,156.326,105.725Z" transform="translate(-138.226 -105.725)"/></g><g transform="translate(29.205 74.317)"><path class="e" d="M117.69,135.293a4.525,4.525,0,0,0,2.132-.52,2.634,2.634,0,0,0,1.22-1.815,3.184,3.184,0,0,0-.725-2.569,3.678,3.678,0,0,0-2.472-1.174,4.238,4.238,0,0,0-2.274.492c-1.222.654-1.736,1.445-1.848,1.357-.084-.033.244-.991,1.539-1.881a4.508,4.508,0,0,1,2.622-.761,4.3,4.3,0,0,1,3.078,1.4,3.843,3.843,0,0,1,.857,3.289,3.157,3.157,0,0,1-1.7,2.193C118.608,136.013,117.6,135.354,117.69,135.293Z" transform="translate(-113.712 -128.42)"/></g></g><g transform="translate(196.957 161.686)"><g transform="translate(21.201)"><path class="m" d="M167.266,213.575l7.363-15.7c1.222-4.9,6.209-6.561,12.322-6.993l6.463-2.64s4.713-6.787,9.072-6.694A1.624,1.624,0,0,1,204,182.7h0a1.614,1.614,0,0,1-.192,1.346l-5.3,8.153-4.216,2.092s3.955.954,5.52-.525S206.7,188.1,206.7,188.1s4.037-7.291,9.3-6.746a.967.967,0,0,1,.76,1.405l-4.031,7.778s7.347-11.041,14.347-6.921l-7.763,8.446s11.262-6.386,15.759-1.042L206.551,202.8l-16.426,3.222-5.75,15.579-5.055-2.88Z" transform="translate(-167.266 -181.328)"/></g><g transform="translate(0 16.544)"><path class="m" d="M192.7,227.451s.872,27.912-4.28,35.609-14.721,18.122-26.576,9.772l-7.421-28.091S166.5,231.5,168.694,226.079c5.474-13.521,14.3-34.732,14.3-34.732l15.732,7Z" transform="translate(-154.427 -191.347)"/></g><g transform="translate(4.861 48.738)"><path class="n" d="M168.56,210.845a21.669,21.669,0,0,1-1.78,3.526c-1.156,2.137-2.7,5.111-4.247,8.476s-2.776,6.486-3.639,8.757a21.365,21.365,0,0,1-1.5,3.653,15.668,15.668,0,0,1,.928-3.851,77.422,77.422,0,0,1,7.935-17.34A15.607,15.607,0,0,1,168.56,210.845Z" transform="translate(-157.371 -210.843)"/></g><g transform="translate(44.401 10.823)"><path class="n" d="M189.363,187.923c.1.216-1.618,1.232-3.839,2.269s-4.1,1.706-4.2,1.491,1.618-1.232,3.839-2.269S189.263,187.708,189.363,187.923Z" transform="translate(-181.315 -187.883)"/></g><g transform="translate(54.816 8.583)"><path class="n" d="M187.625,196.186c-.058-.106.728-.6,2.081-1.179l2.375-.973,1.376-.583a2.663,2.663,0,0,0,1.161-.842c1.432-1.625,2.616-3.293,3.552-4.411.913-1.13,1.605-1.8,1.729-1.651a3.082,3.082,0,0,1-.31.556l-.928,1.455a41.863,41.863,0,0,1-3.412,4.635,4.569,4.569,0,0,1-.664.623,3.866,3.866,0,0,1-.788.406c-.5.211-.976.388-1.435.552-.918.324-1.747.585-2.442.8A9.016,9.016,0,0,1,187.625,196.186Z" transform="translate(-187.622 -186.526)"/></g></g></g></g></g></svg>