<svg xmlns="http://www.w3.org/2000/svg" width="22.272" height="29.755" viewBox="0 0 22.272 29.755"><defs><style>.a{fill:#265359;}</style></defs><g transform="translate(-261.845 -254.205)"><path class="a" d="M272.538,283.96c-4.311-3.924-7.939-8.345-9.867-13.941A11.98,11.98,0,0,1,263.236,260a11.119,11.119,0,0,1,20.838,4.373A16.18,16.18,0,0,1,282,273.164a37.979,37.979,0,0,1-8.54,10.8Zm-.284-27.551a8.571,8.571,0,0,0-7.33,5.088,9.673,9.673,0,0,0-.274,7.572c1.544,4.767,4.578,8.561,8.03,12.07.258.263.433.18.653-.042a34.211,34.211,0,0,0,7.291-10.1,12.945,12.945,0,0,0,1.277-6.322C281.539,259.975,277.719,256.41,272.255,256.409Z" transform="translate(0 0)"/><path class="a" d="M299.687,286.863a5.2,5.2,0,1,1-5.252,5.143A5.225,5.225,0,0,1,299.687,286.863Zm2.931,5.246a2.926,2.926,0,0,0-2.926-3.071,3.018,3.018,0,1,0-.038,6.036A2.925,2.925,0,0,0,302.619,292.109Z" transform="translate(-26.647 -26.702)"/></g></svg>