<svg xmlns="http://www.w3.org/2000/svg" width="35.801" height="35.772" viewBox="0 0 35.801 35.772"><defs><style>.a{fill:#fff;}</style></defs><g transform="translate(-1114.978 -891.446)"><g transform="translate(1115.397 891.446)"><path class="a" d="M1147.681,900.1a13.835,13.835,0,0,0,2.367-3.831c.612-1.432,1.143-3.349.193-4.3-1.779-1.77-7,1.4-8.155,2.561l-3.719,3.96-2.858-.627.62-.612a1.615,1.615,0,0,0,0-2.271l-.427-.435a1.613,1.613,0,0,0-2.279,0l-2.368,2.367-2.793-.595.709-.709a1.638,1.638,0,0,0,0-2.287l-.435-.418a1.6,1.6,0,0,0-2.27,0l-2.464,2.448-2.971-.644a2.724,2.724,0,0,0-1.81.241l-2.055,1.03a1.638,1.638,0,0,0,.08,2.963l14.742,6.506-7.543,8a.5.5,0,0,1-.427.178l-3.39-.144a4.874,4.874,0,0,0-2.712.74l-1.828,1.142a1.09,1.09,0,0,0,.169,1.932l5.78,2.3-1.691,1.69a.553.553,0,0,0,0,.774.585.585,0,0,0,.387.144.6.6,0,0,0,.386-.144l1.681-1.692,2.3,5.764a1.087,1.087,0,0,0,.918.693h.1a1.089,1.089,0,0,0,.926-.514l1.143-1.835a4.76,4.76,0,0,0,.732-2.706l-.145-3.382a.594.594,0,0,1,.169-.434l8.01-7.553,6.506,14.75a1.606,1.606,0,0,0,1.458.981h.04a1.627,1.627,0,0,0,1.466-.9l1.037-2.061a2.721,2.721,0,0,0,.226-1.8l-.637-2.979,2.456-2.447a1.623,1.623,0,0,0,0-2.287l-.427-.418a1.612,1.612,0,0,0-2.278,0l-.709.709-.6-2.8,2.367-2.367a1.6,1.6,0,0,0,0-2.271l-.427-.435a1.616,1.616,0,0,0-2.278,0l-.62.614-.612-2.851Zm-13.492-4.781a.569.569,0,0,1,.37-.162.54.54,0,0,1,.37.162l.436.435a.51.51,0,0,1,.144.369.576.576,0,0,1-.144.371l-1.112,1.112-1.932-.419Zm-7.156-1.659a.547.547,0,0,1,.74,0l.427.436a.516.516,0,0,1,0,.74l-1.2,1.207-1.93-.417Zm-9.549,4.284a.518.518,0,0,1-.329-.483.563.563,0,0,1,.305-.517l2.053-1.03a1.717,1.717,0,0,1,1.089-.145l16.9,3.641-3.061,3.234-10.754-4.7a.557.557,0,0,0-.717.29.541.541,0,0,0,.282.708l10.4,4.54-1.072,1.128Zm10.522,19.224a1.655,1.655,0,0,0-.515,1.257l.145,3.379a3.8,3.8,0,0,1-.565,2.11l-1.159,1.835-2.472-6.214,2.134-2.141a.535.535,0,0,0,0-.757.517.517,0,0,0-.766,0l-2.133,2.126-6.214-2.48,1.835-1.142a3.609,3.609,0,0,1,1.979-.58h.114l3.381.161a1.7,1.7,0,0,0,1.264-.515l17.831-18.918c1.289-1.289,5.685-3.479,6.6-2.561.307.321.354,1.287-.418,3.122a12.7,12.7,0,0,1-2.126,3.479Zm19.363-3.156a.514.514,0,0,1,.748,0l.428.419a.53.53,0,0,1,0,.74l-1.966,1.964-.41-1.931Zm-1.651-7.165a.5.5,0,0,1,.371-.16.471.471,0,0,1,.369.16l.435.435a.528.528,0,0,1,0,.74l-1.868,1.867-.419-1.932Zm.717,14.749a1.713,1.713,0,0,1-.145,1.095l-1.038,2.061a.528.528,0,0,1-.508.305.557.557,0,0,1-.492-.338l-6.665-15.1,1.136-1.063,4.54,10.4a.52.52,0,0,0,.491.322.49.49,0,0,0,.216-.048.533.533,0,0,0,.281-.709l-4.692-10.755,3.243-3.061Z" transform="translate(-1115.379 -891.446)"/></g><g transform="translate(1143.53 895.676)"><path class="a" d="M1142.831,895.491h-.008a.537.537,0,0,0-.538.53.553.553,0,0,0,.53.565,1.418,1.418,0,0,1,1.4,1.4.55.55,0,0,0,.547.531h.008a.554.554,0,0,0,.531-.565A2.538,2.538,0,0,0,1142.831,895.491Z" transform="translate(-1142.284 -895.491)"/></g><g transform="translate(1114.978 902.253)"><path class="a" d="M1115.9,906.282l3.574-3.574a.533.533,0,0,0,0-.757.524.524,0,0,0-.772,0l-3.568,3.558a.554.554,0,0,0,0,.773.517.517,0,0,0,.388.16A.505.505,0,0,0,1115.9,906.282Z" transform="translate(-1114.978 -901.781)"/></g><g transform="translate(1120.931 905.114)"><path class="a" d="M1121.6,909.006l3.567-3.558a.544.544,0,0,0-.765-.773l-3.566,3.574a.521.521,0,0,0,0,.757.5.5,0,0,0,.377.161A.509.509,0,0,0,1121.6,909.006Z" transform="translate(-1120.671 -904.517)"/></g><g transform="translate(1135.291 922.568)"><path class="a" d="M1138.136,921.366l-3.575,3.575a.535.535,0,0,0,0,.757.524.524,0,0,0,.386.161.545.545,0,0,0,.388-.161l3.566-3.558a.555.555,0,0,0,0-.774A.544.544,0,0,0,1138.136,921.366Z" transform="translate(-1134.404 -921.209)"/></g><g transform="translate(1132.434 916.615)"><path class="a" d="M1136.166,915.685a.517.517,0,0,0-.765,0l-3.566,3.558a.539.539,0,0,0,0,.773.508.508,0,0,0,.38.16.518.518,0,0,0,.385-.16l3.567-3.574A.535.535,0,0,0,1136.166,915.685Z" transform="translate(-1131.672 -915.516)"/></g></g></svg>