<svg xmlns="http://www.w3.org/2000/svg" width="22.105" height="29.459" viewBox="0 0 22.105 29.459"><defs><style>.a{fill:#265359;}</style></defs><g transform="translate(-1120.079 -133.913)"><path class="a" d="M1126.44,163.372a15.14,15.14,0,0,1-1.889-2.422.926.926,0,0,0-1.03-.47c-.772.142-1.557.206-2.338.3-.349.042-.714.106-.965-.228-.269-.359-.1-.7.071-1.042q1.7-3.473,3.4-6.949a2.876,2.876,0,0,0-1.037-3.748,1.854,1.854,0,0,1-.887-2.363,2.456,2.456,0,0,0-.312-2.284,1.621,1.621,0,0,1,.334-2.44,2.024,2.024,0,0,0,.758-2.077,1.74,1.74,0,0,1,1.481-2.062,1.847,1.847,0,0,0,1.509-1.35,1.767,1.767,0,0,1,2.371-1.258,1.835,1.835,0,0,0,1.907-.457,1.859,1.859,0,0,1,2.758.009,1.7,1.7,0,0,0,1.7.365,1.808,1.808,0,0,1,2.441,1.143,2.345,2.345,0,0,0,1.742,1.5,1.634,1.634,0,0,1,1.381,1.872,2.55,2.55,0,0,0,.943,2.419,1.542,1.542,0,0,1,.283,2.242,2.508,2.508,0,0,0-.268,2.519,1.634,1.634,0,0,1-.921,2.182c-.812.375-1,1.016-1.28,1.8a3.163,3.163,0,0,0,.437,2.685q1.505,3.131,2.97,6.28c.428.918.122,1.346-.866,1.237-.825-.09-1.651-.177-2.469-.309a.755.755,0,0,0-.824.352,26.908,26.908,0,0,1-1.95,2.548h-.394a1.7,1.7,0,0,1-.7-.839q-1.625-3.471-3.268-6.933c-.1-.209-.143-.563-.378-.565-.287,0-.315.371-.421.594q-1.656,3.492-3.288,7a1.662,1.662,0,0,1-.608.747Zm.964-27.056a.661.661,0,0,0-.68.553,2.979,2.979,0,0,1-2.291,2.036.669.669,0,0,0-.578.9,2.766,2.766,0,0,1-1.105,2.83c-.345.285-.451.593-.166.959a3.025,3.025,0,0,1,.408,3.21.608.608,0,0,0,.324.822,3.429,3.429,0,0,1,1.776,2.68c.062.548.3.748.839.75a2.908,2.908,0,0,1,2.582,1.3.853.853,0,0,0,1.284.284,2.763,2.763,0,0,1,2.876,0,.732.732,0,0,0,1.154-.262,2.744,2.744,0,0,1,2.646-1.378.713.713,0,0,0,.855-.756,2.856,2.856,0,0,1,1.647-2.438.772.772,0,0,0,.4-1.167,2.652,2.652,0,0,1,.331-2.789.8.8,0,0,0-.144-1.279,2.871,2.871,0,0,1-1.006-2.884.626.626,0,0,0-.589-.832,2.785,2.785,0,0,1-2.245-1.8.962.962,0,0,0-1.294-.626,2.766,2.766,0,0,1-2.71-.786.682.682,0,0,0-1.117,0,2.909,2.909,0,0,1-2.787.756C1127.669,136.364,1127.518,136.339,1127.4,136.316Zm-5.384,22.923c.686-.076,1.374-.137,2.057-.233a1.062,1.062,0,0,1,1.149.554c.29.461.626.893.945,1.336.169.234.342.364.517,0q1.534-3.185,3.069-6.369c.131-.272.161-.458-.267-.384a1.8,1.8,0,0,1-1.769-.761c-.18-.22-.355-.443-.544-.654-.477-.532-1.138-.383-1.726-.4-.426-.015-.456.477-.6.771-.893,1.822-1.766,3.654-2.64,5.485A.945.945,0,0,0,1122.02,159.239ZM1132.336,154c.18.414.286.675.4.929q1.307,2.79,2.621,5.577c.107.226.113.59.41.61.239.016.34-.3.48-.492,1.544-2.059.708-1.735,3.381-1.409.191.023.416.138.561-.028.16-.182-.027-.37-.107-.537q-1.319-2.785-2.65-5.563a1.274,1.274,0,0,0-2.244-.23A2.42,2.42,0,0,1,1132.336,154Z"/><path class="a" d="M1161.391,162.954a6.253,6.253,0,0,1-5.942,6.361,6.345,6.345,0,0,1-6.455-5.727,6.209,6.209,0,1,1,12.4-.634Zm-6.26,4.927A4.792,4.792,0,1,0,1150.35,163,4.767,4.767,0,0,0,1155.131,167.881Z" transform="translate(-24.002 -19.07)"/></g></svg>