<svg xmlns="http://www.w3.org/2000/svg" xmlns:xlink="http://www.w3.org/1999/xlink" width="78.051" height="51.404" viewBox="0 0 78.051 51.404"><defs><style>.a{fill:#265359;}.b{clip-path:url(#a);}</style><clipPath id="a"><rect class="a" width="78.051" height="51.404" transform="translate(0 0)"/></clipPath></defs><g transform="translate(0 0)"><g class="b"><path class="a" d="M39.208,0Q54.724,0,70.242,0c5.3,0,7.792,2.44,7.8,7.664q.02,18.045,0,36.09c-.006,5.137-2.5,7.64-7.588,7.642q-31.379.01-62.757,0c-5.148,0-7.676-2.47-7.683-7.547q-.024-18.159,0-36.319C.019,2.554,2.553.013,7.485.007Q23.346-.013,39.208,0m-.18,21.007c-10.81,0-21.62.04-32.43-.037-1.948-.014-2.715.466-2.677,2.561.119,6.668.031,13.339.05,20.008.01,3.113.813,3.9,4,3.9q31.053.016,62.1,0c3.192,0,4-.786,4.007-3.894.019-6.671-.068-13.342.051-20.009.036-2.088-.717-2.582-2.672-2.567-10.81.078-21.62.037-32.431.037m0-11.158H54.2c5.825,0,11.651-.04,17.475.022,1.738.018,2.522-.512,2.433-2.373-.13-2.715-.97-3.539-4.16-3.54q-29.09-.012-58.177,0c-1.609,0-3.223-.053-4.828.033-2.191.118-2.928,1.246-3.012,3.745-.078,2.321,1.417,2.118,2.9,2.118q16.1-.006,32.192,0"/><path class="a" d="M21.42,42.612a7.494,7.494,0,0,1-7.507-7.14,7.608,7.608,0,0,1,7.316-7.607,7.564,7.564,0,0,1,7.5,7.411,7.481,7.481,0,0,1-7.308,7.336"/><path class="a" d="M13.6,42.616A7.364,7.364,0,1,1,13.85,27.9c.667.048,1.524-.033,1.909.579.487.778-.416,1.2-.789,1.706A8.16,8.16,0,0,0,14.834,40.2c.4.56,1.464.969.9,1.851-.443.686-1.374.526-2.133.563"/><path class="a" d="M38.954,37.137c-1.222,0-2.444.025-3.666,0a1.832,1.832,0,0,1-2-1.787,1.773,1.773,0,0,1,1.764-2.015c2.59-.1,5.19-.1,7.777.034a1.762,1.762,0,0,1,1.645,2.106,1.722,1.722,0,0,1-1.854,1.653c-1.221.045-2.443.011-3.666.013"/><path class="a" d="M52.17,37.144c-1.146,0-2.292.019-3.438,0-1.246-.023-2.09-.619-2.107-1.912A1.818,1.818,0,0,1,48.507,33.3c2.517-.08,5.041-.083,7.556.037a1.9,1.9,0,0,1-.226,3.795c-1.221.035-2.444.008-3.667.009"/><path class="a" d="M65.677,37.128c-1.294,0-2.59.043-3.882-.014a1.886,1.886,0,0,1-.15-3.761c2.579-.118,5.171-.112,7.751,0a1.76,1.76,0,0,1,1.71,2.043,1.787,1.787,0,0,1-2,1.744c-1.141.026-2.283.006-3.426.006Z"/></g></g></svg>