<svg xmlns="http://www.w3.org/2000/svg" width="56.193" height="80.407" viewBox="0 0 56.193 80.407"><defs><style>.a{fill:#265359;}.b{fill:#00b13d;}.c{fill:#c00;}</style></defs><g transform="translate(-1150.783 -594.508)"><path class="a" d="M1150.8,640.192q0-11.758,0-23.515c.01-6.972,4.047-10.991,11.032-11.012,2.8-.008,5.6-.056,8.4-.013,1.2.018,1.652-.179,1.319-1.574a7.446,7.446,0,0,1,3-8.213,7.558,7.558,0,0,1,8.6-.031,7.473,7.473,0,0,1,3.059,8.193c-.3,1.292-.055,1.651,1.251,1.628,3.109-.055,6.22-.021,9.331.016a9.861,9.861,0,0,1,10.166,10.142q.048,24.448,0,48.9a9.879,9.879,0,0,1-10.01,10.141q-18.1.125-36.205,0c-5.766-.044-9.883-4.357-9.923-10.208C1150.756,656.492,1150.8,648.342,1150.8,640.192Zm51.244.071c0-8.089.023-16.178-.01-24.267-.015-3.584-1.827-5.327-5.432-5.391-3.049-.054-3.049-.054-3.06,2.843-.012,3.271-.613,3.87-3.966,3.875q-10.173.013-20.347,0c-4.724,0-4.875-.149-5.031-4.9-.01-.311-.014-.623-.052-.93a.89.89,0,0,0-.858-.833c-3.794-.438-7.588.336-7.57,5.677.056,15.929.013,31.858.025,47.787,0,4.053,1.749,5.809,5.786,5.814q17.36.022,34.721,0c4.083,0,5.783-1.7,5.794-5.783C1202.057,656.193,1202.044,648.228,1202.04,640.264Zm-23.178-40.827a2.736,2.736,0,0,0-2.805,2.62,2.809,2.809,0,1,0,5.619-.008A2.735,2.735,0,0,0,1178.862,599.436Z" transform="translate(0 0)"/><path class="b" d="M1166.425,688.9a2.154,2.154,0,0,1,1.29-2.1,2.041,2.041,0,0,1,2.427.359,16.972,16.972,0,0,1,1.923,2.272c.8,1.141,1.323.981,1.986-.149.88-1.5,1.848-2.956,2.873-4.362,1.045-1.432,2.428-1.757,3.516-.889,1.278,1.02,1.139,2.241.321,3.477-1.784,2.7-3.541,5.417-5.388,8.072-1.311,1.884-3,1.893-4.421.078-1.3-1.664-2.537-3.384-3.806-5.076A2.817,2.817,0,0,1,1166.425,688.9Z" transform="translate(-5.481 -31.204)"/><path class="a" d="M1200.526,644.261c-1.986,0-3.971.04-5.956-.008-1.926-.047-2.925-.891-2.966-2.375-.042-1.5.951-2.484,2.824-2.511,4.156-.06,8.314-.049,12.47,0,1.508.017,2.685.635,2.774,2.37.077,1.5-.952,2.452-2.818,2.507C1204.747,644.306,1202.635,644.258,1200.526,644.261Z" transform="translate(-14.304 -15.705)"/><path class="a" d="M1200.667,670.138c-2.048,0-4.1.038-6.142-.014-1.9-.049-2.908-.928-2.924-2.417s.981-2.444,2.87-2.47q6.141-.086,12.284,0c1.9.024,2.91.941,2.926,2.421.016,1.545-1.036,2.432-3.059,2.476C1204.639,670.173,1202.653,670.14,1200.667,670.138Z" transform="translate(-14.304 -24.771)"/><path class="a" d="M1200.647,696.012c-2.047,0-4.1.042-6.142-.012-1.892-.05-2.9-.946-2.9-2.435s.993-2.426,2.891-2.451q6.141-.083,12.284,0c1.9.025,2.9.952,2.906,2.44s-1,2.4-2.893,2.447C1204.743,696.054,1202.694,696.012,1200.647,696.012Z" transform="translate(-14.304 -33.838)"/><path class="c" d="M1173.562,663.457a3.78,3.78,0,1,1-3.766,3.747A3.667,3.667,0,0,1,1173.562,663.457Z" transform="translate(-6.663 -24.161)"/><path class="c" d="M1173.569,637.221a3.865,3.865,0,1,1-3.767,3.872A3.933,3.933,0,0,1,1173.569,637.221Z" transform="translate(-6.665 -14.968)"/></g></svg>