<svg xmlns="http://www.w3.org/2000/svg" width="42.788" height="46.856" viewBox="0 0 42.788 46.856"><defs><style>.a{fill:#fff;}</style></defs><g transform="translate(-1031.262 -741.261)"><g transform="translate(1031.262 741.261)"><path class="a" d="M1052.656,741.261a21.274,21.274,0,0,0-21.394,21.1.688.688,0,0,0,.442.654.7.7,0,0,0,.769-.149,8.527,8.527,0,0,1,11.931,0c.011.022.03.022.052.044a.643.643,0,0,0,.169.105.578.578,0,0,0,.255.063h.03a.587.587,0,0,0,.264-.063.577.577,0,0,0,.168-.105c.021-.022.043-.022.053-.044a10.393,10.393,0,0,1,14.47-.041c.011.021.032.021.041.041h0a.574.574,0,0,0,.233.149.632.632,0,0,0,.274.063h.03a.728.728,0,0,0,.413-.168c.021-.022.051-.022.062-.044s.033-.021.044-.041a8.535,8.535,0,0,1,11.889.041.622.622,0,0,0,.494.212.706.706,0,0,0,.274-.063.694.694,0,0,0,.431-.654A21.274,21.274,0,0,0,1052.656,741.261ZM1032.747,760.8a19.847,19.847,0,0,1,16.517-17.832c-2.847,3.016-4.829,9.76-5.048,17.9a10.028,10.028,0,0,0-11.468-.063Zm12.891,0c.307-10.9,3.773-18.106,7.018-18.106s6.713,7.208,7.02,18.106A11.827,11.827,0,0,0,1045.638,760.8Zm15.46.063c-.22-8.135-2.212-14.88-5.048-17.9a19.847,19.847,0,0,1,16.517,17.832A9.988,9.988,0,0,0,1061.1,760.863Z" transform="translate(-1031.262 -741.261)"/></g><g transform="translate(1036.216 762.76)"><path class="a" d="M1064.242,761.226h-6.924v-1.243a.746.746,0,0,0-.19-.486,7.915,7.915,0,0,0-11.6,0,.76.76,0,0,0-.2.486v1.243H1038.4a3.525,3.525,0,0,0-3.521,3.521V768.6h0v6.343h0v3.878a3.507,3.507,0,0,0,3.521,3.5h25.84a3.507,3.507,0,0,0,3.521-3.5V764.746A3.526,3.526,0,0,0,1064.242,761.226Zm-27.938,8.052a7.38,7.38,0,0,0,6.628-6.64h16.779a7.4,7.4,0,0,0,6.639,6.64v5a7.4,7.4,0,0,0-6.639,6.639h-16.779a7.379,7.379,0,0,0-6.628-6.639Zm30.047-4.531v3.1a5.963,5.963,0,0,1-5.206-5.207h3.1A2.115,2.115,0,0,1,1066.35,764.746Zm-19.6-4.468a6.509,6.509,0,0,1,9.148,0v.947h-9.148Zm-8.346,2.359h3.107a5.983,5.983,0,0,1-5.206,5.207v-3.1A2.107,2.107,0,0,1,1038.4,762.637Zm-2.1,16.188v-3.118a5.982,5.982,0,0,1,5.206,5.206H1038.4A2.1,2.1,0,0,1,1036.3,778.825Zm27.938,2.088h-3.1a5.961,5.961,0,0,1,5.206-5.206v3.118A2.109,2.109,0,0,1,1064.242,780.913Z" transform="translate(-1034.881 -756.967)"/></g></g></svg>