<svg xmlns="http://www.w3.org/2000/svg" width="37.524" height="31.211" viewBox="0 0 37.524 31.211"><defs><style>.a{fill:#fff;}</style></defs><g transform="translate(-369.844 -919.657)"><path class="a" d="M394.788,990.839c0-2.142.005-4.284,0-6.425,0-.823.106-1.618,1.142-1.615,1.013,0,1.189.811,1.192,1.616.016,3.627.007,7.254.013,10.882,0,1.362.019,1.374,1.4,1.379.726,0,1.456-.055,2.175.014,1.019.1,1.445-.23,1.371-1.318-.088-1.307-.031-2.624-.017-3.937a5.552,5.552,0,1,1,11.095.013c.01,1.416.027,2.833-.007,4.249-.017.7.222,1.013.952.988,1.035-.036,2.074-.041,3.108,0,.77.032,1.022-.272,1.016-1.031-.028-3.558-.012-7.116-.011-10.674,0-.311,0-.622.006-.933.021-.711.32-1.23,1.084-1.256s1.11.481,1.2,1.169a9.49,9.49,0,0,1,.048,1.241q0,5.8,0,11.607c0,1.921-.318,2.225-2.223,2.227-1.934,0-3.869.013-5.8-.006-1.257-.012-1.683-.424-1.7-1.689-.029-1.969,0-3.938-.018-5.907-.025-2.114-1.253-3.4-3.2-3.4s-3.165,1.312-3.184,3.419c-.016,1.8,0,3.593-.006,5.389,0,1.884-.3,2.188-2.138,2.19-1.934,0-3.869.011-5.8,0-1.3-.01-1.674-.381-1.681-1.664C394.779,995.192,394.788,993.015,394.788,990.839Z" transform="translate(-19.031 -48.173)"/><path class="a" d="M388.579,919.659a1.472,1.472,0,0,1,1.031.412q8.547,6.814,17.094,13.63c.605.483.937,1.085.375,1.781s-1.2.488-1.812,0c-5.157-4.114-10.336-8.2-15.458-12.357a1.519,1.519,0,0,0-2.329-.013c-4.9,3.988-9.864,7.9-14.806,11.845q-.284.226-.571.447c-.656.5-1.364.842-1.99.036-.6-.769-.1-1.329.516-1.824q8.427-6.717,16.846-13.442A1.742,1.742,0,0,1,388.579,919.659Z" transform="translate(0 0)"/></g></svg>