<svg xmlns="http://www.w3.org/2000/svg" xmlns:xlink="http://www.w3.org/1999/xlink" width="150" height="150" viewBox="0 0 150 150">
  <defs>
    <clipPath id="clip-path">
      <rect id="Rectangle_2905" data-name="Rectangle 2905" width="68.974" height="67.947" fill="none"/>
    </clipPath>
  </defs>
  <g id="Group_130035" data-name="Group 130035" transform="translate(-307 -1368)">
    <rect id="NoPath_-_Copy_73_" data-name="NoPath - Copy (73)" width="150" height="150" rx="12" transform="translate(307 1368)" fill="#d4b2b1"/>
    <g id="Artwork_9" data-name="Artwork 9" transform="translate(388.366 1449.63)">
      <g id="Group_7728" data-name="Group 7728" transform="translate(-41.287 -40.672)" clip-path="url(#clip-path)">
        <path id="Path_4449" data-name="Path 4449" d="M36.763,101.7H9.632c-1.147,0-1.147,0-1.147,1.144v7.182a2.484,2.484,0,0,1-2.492,2.683A2.438,2.438,0,0,1,3.7,109.988V76.682A2.475,2.475,0,0,1,6.152,74a2.363,2.363,0,0,1,2.373,2.644V95.782c0,.789.2,1.026.989,1.026H26.836c.751,0,.989-.237.989-.987-.04-2.841,0-5.722,0-8.6a5.542,5.542,0,0,1,5.814-5.643c7.91.118,15.859.039,23.769.039a11.912,11.912,0,0,1,6.249,1.5A11.533,11.533,0,0,1,69.827,93.3c.079,5.6.04,11.247,0,16.851a2.424,2.424,0,0,1-3.085,2.447,2.487,2.487,0,0,1-1.7-2.368v-7.182c0-1.5.158-1.381-1.424-1.381H36.763Zm12.1-4.893H63.934c1.068,0,1.068,0,1.068-.987V93.73a7.023,7.023,0,0,0-5.814-7.024,23.737,23.737,0,0,0-4.43-.079H34.034c-1.305,0-1.305,0-1.305,1.3,0,2.644.04,5.288,0,7.971,0,.789.237,1.026,1.028,1.026H48.9" transform="translate(-2.237 -44.796)" fill="#265359"/>
        <path id="Path_4450" data-name="Path 4450" d="M68.9,21.132a2.42,2.42,0,0,1-3.243,2.486,8.707,8.707,0,0,1-1.305-.71L35.24,5.663a1.387,1.387,0,0,0-1.622,0L5.934,22.079,4.114,23.145c-1.622.947-3.045.75-3.876-.592S.041,19.909,1.583,19l13.21-7.814q8.9-5.268,17.8-10.576a3.209,3.209,0,0,1,3.678,0L67.314,19.041A2.74,2.74,0,0,1,68.9,21.172" transform="translate(0.078 -0.02)" fill="#265359"/>
        <path id="Path_4451" data-name="Path 4451" d="M29.981,107.084a6.8,6.8,0,0,1-6.882-6.709,6.882,6.882,0,0,1,13.763-.118,6.8,6.8,0,0,1-6.882,6.827m-.04-8.761A1.9,1.9,0,0,0,28,100.3a1.975,1.975,0,0,0,1.938,2.013,2.094,2.094,0,0,0,2.017-2.052,1.976,1.976,0,0,0-2.017-1.934" transform="translate(-13.964 -56.572)" fill="#265359"/>
      </g>
    </g>
  </g>
</svg>
