<svg xmlns="http://www.w3.org/2000/svg" xmlns:xlink="http://www.w3.org/1999/xlink" width="24.672" height="24.358" viewBox="0 0 24.672 24.358"><defs><style>.a{fill:none;}.b{clip-path:url(#a);}.c{fill:#265359;}</style><clipPath id="a"><rect class="a" width="24.672" height="24.358"/></clipPath></defs><g transform="translate(12.336 12.179)"><g class="b" transform="translate(-12.336 -12.179)"><path class="c" d="M15.527,83.929h-9.7c-.41,0-.41,0-.41.41v2.575a.89.89,0,0,1-.891.962A.873.873,0,0,1,3.7,86.9V74.96A.886.886,0,0,1,4.577,74a.846.846,0,0,1,.849.948v6.861c0,.283.071.368.354.368h6.2c.269,0,.354-.085.354-.354-.014-1.019,0-2.051,0-3.084a1.984,1.984,0,0,1,2.08-2.023c2.829.042,5.673.014,8.5.014a4.253,4.253,0,0,1,2.235.538,4.136,4.136,0,0,1,2.207,3.65c.028,2.009.014,4.032,0,6.041a.868.868,0,0,1-1.1.877.891.891,0,0,1-.608-.849V84.41c0-.538.057-.5-.509-.5H15.527Zm4.329-1.754h5.39c.382,0,.382,0,.382-.354v-.75a2.516,2.516,0,0,0-2.08-2.518,8.473,8.473,0,0,0-1.584-.028H14.551c-.467,0-.467,0-.467.467,0,.948.014,1.9,0,2.858,0,.283.085.368.368.368H19.87" transform="translate(-3.177 -63.529)"/><path class="c" d="M24.561,7.6a.866.866,0,0,1-1.16.891,3.112,3.112,0,0,1-.467-.255L12.522,2.051a.5.5,0,0,0-.58,0L2.04,7.936l-.651.382C.809,8.657.3,8.587,0,8.106s-.071-.948.481-1.273l4.725-2.8Q8.392,2.143,11.575.24a1.146,1.146,0,0,1,1.316,0L24,6.846a.982.982,0,0,1,.566.764" transform="translate(0.111 -0.028)"/><path class="c" d="M25.561,98.337a2.433,2.433,0,0,1-2.462-2.4,2.462,2.462,0,1,1,4.923-.042,2.433,2.433,0,0,1-2.462,2.447M25.547,95.2a.679.679,0,0,0-.693.707.707.707,0,0,0,.693.721.75.75,0,0,0,.721-.736.707.707,0,0,0-.721-.693" transform="translate(-19.832 -80.229)"/></g></g></svg>