<svg xmlns="http://www.w3.org/2000/svg" width="55.664" height="55.664" viewBox="0 0 55.664 55.664">
  <g id="Group_101569" data-name="Group 101569" transform="translate(-1181 -141.058)">
    <g id="Group_101568" data-name="Group 101568">
      <g id="Group_101567" data-name="Group 101567">
        <g id="Twitter" transform="translate(1181 141.058)">
          <ellipse id="Oval" cx="27.832" cy="27.832" rx="27.832" ry="27.832" fill="#fff"/>
        </g>
      </g>
    </g>
    <path id="Icon_awesome-linkedin-in" data-name="Icon awesome-linkedin-in" d="M6.387,28.72H.471V9.671H6.387ZM3.426,8.885A3.442,3.442,0,1,1,6.851,5.426,3.455,3.455,0,0,1,3.426,8.885Zm25.1,19.836h-5.9V19.447c0-2.21-.045-5.044-3.075-5.044C16.472,14.4,16,16.8,16,19.288V28.72H10.092V9.671h5.673v2.6h.083a6.215,6.215,0,0,1,5.6-3.076c5.987,0,7.087,3.942,7.087,9.063V28.72Z" transform="translate(1194.484 153.447)" fill="#265359"/>
  </g>
</svg>
