<svg xmlns="http://www.w3.org/2000/svg" xmlns:xlink="http://www.w3.org/1999/xlink" width="14.716" height="19.665" viewBox="0 0 14.716 19.665"><defs><style>.a{fill:none;}.b{clip-path:url(#a);}</style><clipPath id="a"><rect class="a" width="14.716" height="19.665"/></clipPath></defs><g transform="translate(7.358 9.833)"><g class="b" transform="translate(-7.358 -9.833)"><path d="M7.06,19.65A22.585,22.585,0,0,1,.54,10.43,7.947,7.947,0,0,1,.913,3.813,7.4,7.4,0,0,1,8.808.125a7.508,7.508,0,0,1,5.87,6.569A10.608,10.608,0,0,1,13.3,12.5a25.122,25.122,0,0,1-5.641,7.135ZM6.879,1.439A5.634,5.634,0,0,0,2.034,4.8a6.383,6.383,0,0,0-.181,5,20.71,20.71,0,0,0,5.3,7.979c.169.169.289.121.434-.024a22.787,22.787,0,0,0,4.821-6.677A8.471,8.471,0,0,0,13.255,6.9c-.241-3.11-2.772-5.46-6.376-5.46" transform="translate(0.003 0.02)"/><path d="M36.071,32.7A3.435,3.435,0,1,1,32.6,36.1a3.447,3.447,0,0,1,3.471-3.4m1.94,3.459a1.935,1.935,0,0,0-1.928-2.025,1.995,1.995,0,1,0-.036,3.989,1.928,1.928,0,0,0,1.965-1.965" transform="translate(-28.67 -28.759)"/></g></g></svg>