<svg xmlns="http://www.w3.org/2000/svg" width="230.279" height="116.893" viewBox="0 0 230.279 116.893">
  <g id="Group_124326" data-name="Group 124326" transform="translate(-13.549 -18.896)">
    <g id="Group_123165" data-name="Group 123165" transform="translate(0 0)">
      <g id="Group_123148" data-name="Group 123148" transform="translate(40.808 19.396)">
        <path id="Path_308605" data-name="Path 308605" d="M456.472,213.373a69.5,69.5,0,0,1-9.9,35.862H326.713a69.834,69.834,0,1,1,129.759-35.862Z" transform="translate(-311.416 -138.146)" fill="#265359" opacity="0.28"/>
        <g id="Group_123145" data-name="Group 123145" transform="translate(0.926 10.654)">
          <path id="Path_308606" data-name="Path 308606" d="M324.076,182.747H301.591c-.9,0-1.621-1.224-1.621-2.734h0c0-1.51.726-2.734,1.621-2.734h22.486c.895,0,1.62,1.224,1.62,2.734h0C325.7,181.523,324.971,182.747,324.076,182.747Z" transform="translate(-284.836 -168.494)" fill="#fbfaf8"/>
          <rect id="Rectangle_62500" data-name="Rectangle 62500" width="33.752" height="5.468" rx="2.734" transform="translate(81.762)" fill="#fbfaf8"/>
          <path id="Path_308607" data-name="Path 308607" d="M624.284,258.059H586.351a2.734,2.734,0,0,1-2.734-2.734h0a2.734,2.734,0,0,1,2.734-2.734h37.933a2.734,2.734,0,0,1,2.734,2.734h0A2.734,2.734,0,0,1,624.284,258.059Z" transform="translate(-468.103 -212.461)" fill="#fbfaf8"/>
          <path id="Path_308608" data-name="Path 308608" d="M662.388,278.965H624.455a2.734,2.734,0,0,1-2.734-2.734h0a2.734,2.734,0,0,1,2.734-2.734h37.933a2.734,2.734,0,0,1,2.734,2.734h0A2.734,2.734,0,0,1,662.388,278.965Z" transform="translate(-490.348 -224.666)" fill="#fbfaf8"/>
          <path id="Path_308609" data-name="Path 308609" d="M346.742,244.223H308.809a2.734,2.734,0,0,1-2.734-2.734h0a2.734,2.734,0,0,1,2.734-2.734h37.934a2.734,2.734,0,0,1,2.734,2.734h0A2.734,2.734,0,0,1,346.742,244.223Z" transform="translate(-306.075 -204.384)" fill="#fbfaf8"/>
        </g>
        <g id="Group_123147" data-name="Group 123147" transform="translate(0)">
          <g id="Group_123146" data-name="Group 123146">
            <line id="Line_531" data-name="Line 531" x1="125.162" y2="0.095" transform="translate(11.232 115.798)" fill="none" stroke="#265359" stroke-linecap="round" stroke-miterlimit="10" stroke-width="1" stroke-dasharray="7.945 7.945"/>
            <path id="Path_308612" data-name="Path 308612" d="M311.021,238.662a81.926,81.926,0,0,1-7.172-32.861,75.225,75.225,0,1,1,150.451,0c0,11.8-4.043,25.83-8.888,35.77" transform="translate(-303.849 -130.574)" fill="none" stroke="#265359" stroke-linecap="round" stroke-miterlimit="10" stroke-width="1" stroke-dasharray="7.951 7.951"/>
          </g>
        </g>
        <ellipse id="Ellipse_882" data-name="Ellipse 882" cx="28.504" cy="28.504" rx="28.504" ry="28.504" transform="translate(46.413 36.132)" fill="#fff"/>
      </g>
      <g id="Group_123149" data-name="Group 123149" transform="translate(31.289 43.952)">
        <line id="Line_532" data-name="Line 532" x1="5.23" y2="5.23" fill="none" stroke="#265359" stroke-linecap="round" stroke-miterlimit="10" stroke-width="1"/>
        <line id="Line_533" data-name="Line 533" x2="5.23" y2="5.23" fill="none" stroke="#265359" stroke-linecap="round" stroke-miterlimit="10" stroke-width="1"/>
      </g>
      <g id="Group_123151" data-name="Group 123151" transform="translate(97.553 34.885)">
        <line id="Line_536" data-name="Line 536" x1="5.87" y2="5.87" fill="none" stroke="#265359" stroke-linecap="round" stroke-miterlimit="10" stroke-width="1"/>
        <line id="Line_537" data-name="Line 537" x2="5.87" y2="5.87" fill="none" stroke="#265359" stroke-linecap="round" stroke-miterlimit="10" stroke-width="1"/>
      </g>
      <g id="Group_123152" data-name="Group 123152" transform="translate(211.306 106.456)">
        <line id="Line_538" data-name="Line 538" x1="5.444" y2="5.444" fill="none" stroke="#265359" stroke-linecap="round" stroke-miterlimit="10" stroke-width="1"/>
        <line id="Line_539" data-name="Line 539" x2="5.444" y2="5.444" fill="none" stroke="#265359" stroke-linecap="round" stroke-miterlimit="10" stroke-width="1"/>
      </g>
      <g id="Group_123153" data-name="Group 123153" transform="translate(206.613 43.952)">
        <line id="Line_540" data-name="Line 540" x1="5.23" y2="5.23" fill="none" stroke="#265359" stroke-linecap="round" stroke-miterlimit="10" stroke-width="1"/>
        <line id="Line_541" data-name="Line 541" x2="5.23" y2="5.23" fill="none" stroke="#265359" stroke-linecap="round" stroke-miterlimit="10" stroke-width="1"/>
      </g>
      <g id="Group_123154" data-name="Group 123154" transform="translate(171.978 21.112)">
        <line id="Line_542" data-name="Line 542" x1="5.709" y2="5.709" fill="none" stroke="#265359" stroke-linecap="round" stroke-miterlimit="10" stroke-width="1"/>
        <line id="Line_543" data-name="Line 543" x2="5.709" y2="5.709" fill="none" stroke="#265359" stroke-linecap="round" stroke-miterlimit="10" stroke-width="1"/>
      </g>
      <circle id="Ellipse_878" data-name="Ellipse 878" cx="3.401" cy="3.401" r="3.401" transform="translate(14.049 70.18)" fill="none" stroke="#265359" stroke-linecap="round" stroke-miterlimit="10" stroke-width="1"/>
      <path id="Path_308613" data-name="Path 308613" d="M273.1,332.056a3.572,3.572,0,1,1-5.041.325A3.572,3.572,0,0,1,273.1,332.056Z" transform="translate(-241.63 -228.283)" fill="none" stroke="#265359" stroke-linecap="round" stroke-miterlimit="10" stroke-width="1"/>
      <circle id="Ellipse_879" data-name="Ellipse 879" cx="3.401" cy="3.401" r="3.401" transform="translate(236.527 122.227)" fill="none" stroke="#265359" stroke-linecap="round" stroke-miterlimit="10" stroke-width="1"/>
      <path id="Path_308614" data-name="Path 308614" d="M564.093,185.388a3.5,3.5,0,1,1-3.5-3.5A3.5,3.5,0,0,1,564.093,185.388Z" transform="translate(-410.888 -141.137)" fill="none" stroke="#265359" stroke-linecap="round" stroke-miterlimit="10" stroke-width="1"/>
      <circle id="Ellipse_881" data-name="Ellipse 881" cx="3.401" cy="3.401" r="3.401" transform="translate(200.384 79.914)" fill="none" stroke="#265359" stroke-linecap="round" stroke-miterlimit="10" stroke-width="1"/>
    </g>
    <g id="Group_123100" data-name="Group 123100" transform="translate(102.936 71.244)">
      <g id="Group_123099" data-name="Group 123099">
        <path id="Path_308447" data-name="Path 308447" d="M121.9,139.735a9.287,9.287,0,0,1,1.176-3.592c1.368-2.86,2.719-5.729,4.077-8.594.023-.049.046-.1.071-.147a.774.774,0,0,1,.7-.452.743.743,0,0,1,.707.438q.873,1.591,1.753,3.178c.053.1.108.189.191.335.17-.274.33-.515.474-.765a.881.881,0,0,1,.84-.566c.433.026.6.338.754.676.982,2.139,1.952,4.283,2.958,6.41a9.516,9.516,0,0,1,.949,3.122c.469-.194.911-.388,1.362-.56a8.712,8.712,0,0,1,1.384-.481,2.582,2.582,0,0,1,1.542,4.88c-1.164.518-2.348.994-3.528,1.473a.786.786,0,1,1-.566-1.453c1.106-.462,2.214-.917,3.318-1.384a1.061,1.061,0,0,0,.667-1.155,1.026,1.026,0,0,0-.92-.883,1.2,1.2,0,0,0-.537.085c-.858.346-1.71.705-2.56,1.071a.489.489,0,0,0-.268.236,8.107,8.107,0,0,1-1.656,3.486c.109.05.211.1.315.145,1.879.787,3.761,1.567,5.637,2.362a2.606,2.606,0,0,1-1.14,5,2.928,2.928,0,0,1-.947-.224q-10.426-4.337-20.844-8.693a2.612,2.612,0,0,1,.28-4.971,2.52,2.52,0,0,1,1.633.127Zm6.057-10.275-1.1,2.341c-.906,1.921-1.789,3.853-2.727,5.758a5.765,5.765,0,1,0,10.38.429q-1.324-2.861-2.656-5.719c-.034-.072-.075-.141-.133-.251-.188.293-.349.55-.516.8a.772.772,0,0,1-1.379-.025c-.231-.395-.447-.8-.67-1.2ZM139.1,148.6c-1.862-.778-3.67-1.534-5.48-2.285a.291.291,0,0,0-.236.009,7.888,7.888,0,0,1-2.484,1.113l7.3,3.049A1.809,1.809,0,0,1,139.1,148.6Zm-16.255-4.487a10.067,10.067,0,0,1-.863-2.49.407.407,0,0,0-.219-.243c-.867-.377-1.735-.753-2.615-1.1a1.33,1.33,0,0,0-.7-.062.981.981,0,0,0-.781.894,1.031,1.031,0,0,0,.643,1.1c.8.346,1.6.677,2.4,1.012Q121.786,143.667,122.85,144.109Z" transform="translate(-116.128 -126.95)" fill="#265359"/>
        <path id="Path_308448" data-name="Path 308448" d="M119.276,421.309a1.636,1.636,0,0,1,.528,1.849c.256-.1.47-.188.683-.277l4.713-1.97a.716.716,0,0,1,1.031.317.727.727,0,0,1-.489.987c-2.09.878-4.178,1.76-6.273,2.626a2.353,2.353,0,0,1-3.145-1.25,2.378,2.378,0,0,1,1.32-3.147c1.012-.428,2.029-.845,3.045-1.262a.711.711,0,1,1,.543,1.3C120.6,420.756,119.958,421.022,119.276,421.309Z" transform="translate(-116.133 -399.387)" fill="#265359"/>
      </g>
      <path id="Path_308449" data-name="Path 308449" d="M266.59,268.523l1.1,1.75,2.4-4.318c.172.36.318.668.466.974.358.739.73,1.471,1.072,2.217a2.963,2.963,0,0,1-3.4,4.144,2.854,2.854,0,0,1-2.194-2.294A3.3,3.3,0,0,1,266.59,268.523Z" transform="translate(-255.866 -256.466)" fill="#265359"/>
    </g>
  </g>
</svg>
