<svg xmlns="http://www.w3.org/2000/svg" xmlns:xlink="http://www.w3.org/1999/xlink" width="229.988" height="116.753" viewBox="0 0 229.988 116.753">
  <defs>
    <clipPath id="clip-path">
      <rect id="Rectangle_2904" data-name="Rectangle 2904" width="30.521" height="21.161" fill="none"/>
    </clipPath>
  </defs>
  <g id="Group_124324" data-name="Group 124324" transform="translate(-13.532 -18.872)">
    <g id="Group_123165" data-name="Group 123165" transform="translate(0 0)">
      <g id="Group_123148" data-name="Group 123148" transform="translate(40.756 19.372)">
        <path id="Path_308605" data-name="Path 308605" d="M456.3,213.284a69.414,69.414,0,0,1-9.886,35.817H326.7A69.745,69.745,0,1,1,456.3,213.284Z" transform="translate(-311.423 -138.153)" fill="#265359" opacity="0.28"/>
        <g id="Group_123145" data-name="Group 123145" transform="translate(0.925 10.641)">
          <path id="Path_308606" data-name="Path 308606" d="M324.046,182.74H301.589c-.894,0-1.619-1.223-1.619-2.73h0c0-1.508.725-2.731,1.619-2.731h22.457c.894,0,1.618,1.222,1.618,2.731h0C325.664,181.517,324.939,182.74,324.046,182.74Z" transform="translate(-284.855 -168.506)" fill="#fbfaf8"/>
          <rect id="Rectangle_62500" data-name="Rectangle 62500" width="33.709" height="5.461" rx="2.73" transform="translate(81.659)" fill="#fbfaf8"/>
          <path id="Path_308607" data-name="Path 308607" d="M624.233,258.052H586.347a2.73,2.73,0,0,1-2.73-2.731h0a2.73,2.73,0,0,1,2.73-2.73h37.885a2.73,2.73,0,0,1,2.731,2.73h0A2.731,2.731,0,0,1,624.233,258.052Z" transform="translate(-468.249 -212.512)" fill="#fbfaf8"/>
          <path id="Path_308608" data-name="Path 308608" d="M662.337,278.958H624.452a2.731,2.731,0,0,1-2.731-2.73h0a2.731,2.731,0,0,1,2.731-2.731h37.885a2.731,2.731,0,0,1,2.73,2.731h0A2.73,2.73,0,0,1,662.337,278.958Z" transform="translate(-490.515 -224.728)" fill="#fbfaf8"/>
          <path id="Path_308609" data-name="Path 308609" d="M346.691,244.216H308.805a2.731,2.731,0,0,1-2.73-2.731h0a2.73,2.73,0,0,1,2.73-2.73h37.885a2.73,2.73,0,0,1,2.731,2.73h0A2.731,2.731,0,0,1,346.691,244.216Z" transform="translate(-306.075 -204.428)" fill="#fbfaf8"/>
        </g>
        <g id="Group_123147" data-name="Group 123147" transform="translate(0)">
          <g id="Group_123146" data-name="Group 123146">
            <line id="Line_531" data-name="Line 531" x1="125.004" y2="0.095" transform="translate(11.218 115.657)" fill="none" stroke="#265359" stroke-linecap="round" stroke-miterlimit="10" stroke-width="1" stroke-dasharray="7.945 7.945"/>
            <path id="Path_308612" data-name="Path 308612" d="M311.012,238.525a81.823,81.823,0,0,1-7.163-32.819,75.13,75.13,0,1,1,150.26,0c0,11.789-4.038,25.8-8.877,35.725" transform="translate(-303.849 -130.574)" fill="none" stroke="#265359" stroke-linecap="round" stroke-miterlimit="10" stroke-width="1" stroke-dasharray="7.951 7.951"/>
          </g>
        </g>
        <ellipse id="Ellipse_882" data-name="Ellipse 882" cx="28.468" cy="28.468" rx="28.468" ry="28.468" transform="translate(46.272 36.087)" fill="#fff"/>
      </g>
      <g id="Group_123149" data-name="Group 123149" transform="translate(31.249 43.896)">
        <line id="Line_532" data-name="Line 532" x1="5.223" y2="5.223" fill="none" stroke="#265359" stroke-linecap="round" stroke-miterlimit="10" stroke-width="1"/>
        <line id="Line_533" data-name="Line 533" x2="5.223" y2="5.223" fill="none" stroke="#265359" stroke-linecap="round" stroke-miterlimit="10" stroke-width="1"/>
      </g>
      <g id="Group_123151" data-name="Group 123151" transform="translate(97.43 34.84)">
        <line id="Line_536" data-name="Line 536" x1="5.863" y2="5.863" fill="none" stroke="#265359" stroke-linecap="round" stroke-miterlimit="10" stroke-width="1"/>
        <line id="Line_537" data-name="Line 537" x2="5.863" y2="5.863" fill="none" stroke="#265359" stroke-linecap="round" stroke-miterlimit="10" stroke-width="1"/>
      </g>
      <g id="Group_123152" data-name="Group 123152" transform="translate(211.038 106.321)">
        <line id="Line_538" data-name="Line 538" x1="5.437" y2="5.437" fill="none" stroke="#265359" stroke-linecap="round" stroke-miterlimit="10" stroke-width="1"/>
        <line id="Line_539" data-name="Line 539" x2="5.437" y2="5.437" fill="none" stroke="#265359" stroke-linecap="round" stroke-miterlimit="10" stroke-width="1"/>
      </g>
      <g id="Group_123153" data-name="Group 123153" transform="translate(206.351 43.896)">
        <line id="Line_540" data-name="Line 540" x1="5.223" y2="5.223" fill="none" stroke="#265359" stroke-linecap="round" stroke-miterlimit="10" stroke-width="1"/>
        <line id="Line_541" data-name="Line 541" x2="5.223" y2="5.223" fill="none" stroke="#265359" stroke-linecap="round" stroke-miterlimit="10" stroke-width="1"/>
      </g>
      <g id="Group_123154" data-name="Group 123154" transform="translate(171.761 21.085)">
        <line id="Line_542" data-name="Line 542" x1="5.702" y2="5.702" fill="none" stroke="#265359" stroke-linecap="round" stroke-miterlimit="10" stroke-width="1"/>
        <line id="Line_543" data-name="Line 543" x2="5.702" y2="5.702" fill="none" stroke="#265359" stroke-linecap="round" stroke-miterlimit="10" stroke-width="1"/>
      </g>
      <circle id="Ellipse_878" data-name="Ellipse 878" cx="3.396" cy="3.396" r="3.396" transform="translate(14.032 70.091)" fill="none" stroke="#265359" stroke-linecap="round" stroke-miterlimit="10" stroke-width="1"/>
      <path id="Path_308613" data-name="Path 308613" d="M273.1,332.055a3.568,3.568,0,1,1-5.035.324A3.568,3.568,0,0,1,273.1,332.055Z" transform="translate(-241.662 -228.414)" fill="none" stroke="#265359" stroke-linecap="round" stroke-miterlimit="10" stroke-width="1"/>
      <circle id="Ellipse_879" data-name="Ellipse 879" cx="3.396" cy="3.396" r="3.396" transform="translate(236.228 122.072)" fill="none" stroke="#265359" stroke-linecap="round" stroke-miterlimit="10" stroke-width="1"/>
      <path id="Path_308614" data-name="Path 308614" d="M564.084,185.384a3.492,3.492,0,1,1-3.492-3.492A3.493,3.493,0,0,1,564.084,185.384Z" transform="translate(-411.073 -141.189)" fill="none" stroke="#265359" stroke-linecap="round" stroke-miterlimit="10" stroke-width="1"/>
      <circle id="Ellipse_881" data-name="Ellipse 881" cx="3.396" cy="3.396" r="3.396" transform="translate(200.13 79.813)" fill="none" stroke="#265359" stroke-linecap="round" stroke-miterlimit="10" stroke-width="1"/>
    </g>
    <g id="Artwork_8" data-name="Artwork 8" transform="translate(100.632 76.386)">
      <g id="Group_7727" data-name="Group 7727" transform="translate(0)" clip-path="url(#clip-path)">
        <path id="Path_4447" data-name="Path 4447" d="M14.709,20.531c.113-2.529.507-4.917.733-7.333.085-.73.113-1.461.2-2.191s-.141-.618-.648-.393a33.245,33.245,0,0,1-8.229,2.529,3.163,3.163,0,0,1-2.621-.674A26.609,26.609,0,0,1,.252,8.282C-.143,7.776.027,7.5.59,7.327a3.25,3.25,0,0,1,1.888.056,15.442,15.442,0,0,1,2.255.927A4.154,4.154,0,0,0,8.622,8.2c4.565-2.388,9.244-4.5,13.865-6.771A13.67,13.67,0,0,1,26.715-.006a4.69,4.69,0,0,1,3.241.759c.7.45.789.955.338,1.686a6.223,6.223,0,0,1-2.734,2.3c-1.465.7-2.959,1.349-4.453,1.995a1.772,1.772,0,0,0-1.015,1.152c-1.24,3.652-2.705,7.192-3.8,10.9A3.58,3.58,0,0,1,15.1,21.121c-.535,0-.31-.45-.366-.59" transform="translate(-0.027 0.034)" fill="#265359"/>
        <path id="Path_4448" data-name="Path 4448" d="M32.547,5.56a2.226,2.226,0,0,1-1.043.73L28.291,7.779a.791.791,0,0,1-.845.028L23.3,5.11c-.535-.337-.507-.618,0-.983a4.17,4.17,0,0,1,3.3-.646A22.2,22.2,0,0,1,30.518,4.8l2.029.759" transform="translate(-16.455 -2.441)" fill="#265359"/>
      </g>
    </g>
  </g>
</svg>
