<svg xmlns="http://www.w3.org/2000/svg" width="587.053" height="327.108" viewBox="0 0 587.053 327.108">
  <g id="Group_125062" data-name="Group 125062" transform="translate(-204.386 -82.971)">
    <g id="Group_123148" data-name="Group 123148">
      <path id="Path_308605" data-name="Path 308605" d="M652.371,311.32a166.991,166.991,0,0,1-23.783,86.165H340.6A167.788,167.788,0,1,1,652.371,311.32Z" fill="#265359" opacity="0.28"/>
      <g id="Group_123145" data-name="Group 123145">
        <path id="Path_308606" data-name="Path 308606" d="M397.681,190.416H306.539a6.569,6.569,0,0,1-6.569-6.568h0a6.569,6.569,0,0,1,6.569-6.569h91.142a6.569,6.569,0,0,1,6.568,6.569h0A6.569,6.569,0,0,1,397.681,190.416Z" fill="#fbfaf8"/>
        <rect id="Rectangle_62500" data-name="Rectangle 62500" width="104.279" height="13.137" rx="6.568" transform="translate(502.524 156.173)" fill="#fbfaf8"/>
        <path id="Path_308607" data-name="Path 308607" d="M681.327,265.728H590.185a6.569,6.569,0,0,1-6.568-6.569h0a6.569,6.569,0,0,1,6.568-6.568h91.142a6.569,6.569,0,0,1,6.569,6.568h0A6.569,6.569,0,0,1,681.327,265.728Z" fill="#fbfaf8"/>
        <path id="Path_308608" data-name="Path 308608" d="M719.432,286.634H628.29a6.569,6.569,0,0,1-6.569-6.568h0a6.569,6.569,0,0,1,6.569-6.569h91.142A6.569,6.569,0,0,1,726,280.066h0A6.569,6.569,0,0,1,719.432,286.634Z" fill="#fbfaf8"/>
        <path id="Path_308609" data-name="Path 308609" d="M403.785,251.892H312.643a6.569,6.569,0,0,1-6.568-6.569h0a6.569,6.569,0,0,1,6.568-6.568h91.142a6.569,6.569,0,0,1,6.569,6.568h0A6.569,6.569,0,0,1,403.785,251.892Z" fill="#fbfaf8"/>
      </g>
      <g id="Group_123147" data-name="Group 123147">
        <g id="Group_123146" data-name="Group 123146">
          <line id="Line_531" data-name="Line 531" x1="297.922" transform="translate(333.64 408.484)" fill="none" stroke="#265359" stroke-linecap="round" stroke-miterlimit="10" stroke-width="2" stroke-dasharray="7.945 7.945"/>
          <path id="Path_308612" data-name="Path 308612" d="M329.98,408.743c-10.57-22.969-26.131-70.475-26.131-97.423a180.742,180.742,0,1,1,361.484,0c0,28.36-15.3,73.54-26.943,97.423" fill="none" stroke="#265359" stroke-linecap="round" stroke-miterlimit="10" stroke-width="2" stroke-dasharray="7.951 7.951"/>
        </g>
      </g>
    </g>
    <g id="Group_123149" data-name="Group 123149">
      <line id="Line_532" data-name="Line 532" x1="8.995" y2="8.995" transform="translate(280.978 189.573)" fill="none" stroke="#265359" stroke-linecap="round" stroke-miterlimit="10" stroke-width="2"/>
      <line id="Line_533" data-name="Line 533" x2="8.995" y2="8.995" transform="translate(280.978 189.573)" fill="none" stroke="#265359" stroke-linecap="round" stroke-miterlimit="10" stroke-width="2"/>
    </g>
    <g id="Group_123150" data-name="Group 123150">
      <line id="Line_534" data-name="Line 534" x1="8.995" y2="8.995" transform="translate(205.8 373.145)" fill="none" stroke="#265359" stroke-linecap="round" stroke-miterlimit="10" stroke-width="2"/>
      <line id="Line_535" data-name="Line 535" x2="8.995" y2="8.995" transform="translate(205.8 373.145)" fill="none" stroke="#265359" stroke-linecap="round" stroke-miterlimit="10" stroke-width="2"/>
    </g>
    <g id="Group_123151" data-name="Group 123151">
      <line id="Line_536" data-name="Line 536" x1="8.995" y2="8.995" transform="translate(440.19 167.788)" fill="none" stroke="#265359" stroke-linecap="round" stroke-miterlimit="10" stroke-width="2"/>
      <line id="Line_537" data-name="Line 537" x2="8.995" y2="8.995" transform="translate(440.19 167.788)" fill="none" stroke="#265359" stroke-linecap="round" stroke-miterlimit="10" stroke-width="2"/>
    </g>
    <g id="Group_123152" data-name="Group 123152">
      <line id="Line_538" data-name="Line 538" x1="8.995" y2="8.995" transform="translate(713.499 343.836)" fill="none" stroke="#265359" stroke-linecap="round" stroke-miterlimit="10" stroke-width="2"/>
      <line id="Line_539" data-name="Line 539" x2="8.995" y2="8.995" transform="translate(713.499 343.836)" fill="none" stroke="#265359" stroke-linecap="round" stroke-miterlimit="10" stroke-width="2"/>
    </g>
    <g id="Group_123153" data-name="Group 123153">
      <line id="Line_540" data-name="Line 540" x1="8.995" y2="8.995" transform="translate(702.223 189.573)" fill="none" stroke="#265359" stroke-linecap="round" stroke-miterlimit="10" stroke-width="2"/>
      <line id="Line_541" data-name="Line 541" x2="8.995" y2="8.995" transform="translate(702.223 189.573)" fill="none" stroke="#265359" stroke-linecap="round" stroke-miterlimit="10" stroke-width="2"/>
    </g>
    <g id="Group_123154" data-name="Group 123154">
      <line id="Line_542" data-name="Line 542" x1="8.995" y2="8.995" transform="translate(619.008 134.697)" fill="none" stroke="#265359" stroke-linecap="round" stroke-miterlimit="10" stroke-width="2"/>
      <line id="Line_543" data-name="Line 543" x2="8.995" y2="8.995" transform="translate(619.008 134.697)" fill="none" stroke="#265359" stroke-linecap="round" stroke-miterlimit="10" stroke-width="2"/>
    </g>
    <circle id="Ellipse_878" data-name="Ellipse 878" cx="5.653" cy="5.653" r="5.653" transform="translate(239.556 252.591)" fill="none" stroke="#265359" stroke-linecap="round" stroke-miterlimit="10" stroke-width="2"/>
    <path id="Path_308613" data-name="Path 308613" d="M276.558,332.574a5.653,5.653,0,1,1-7.978.514A5.653,5.653,0,0,1,276.558,332.574Z" fill="none" stroke="#265359" stroke-linecap="round" stroke-miterlimit="10" stroke-width="2"/>
    <circle id="Ellipse_879" data-name="Ellipse 879" cx="5.653" cy="5.653" r="5.653" transform="translate(779.133 377.643)" fill="none" stroke="#265359" stroke-linecap="round" stroke-miterlimit="10" stroke-width="2"/>
    <path id="Path_308614" data-name="Path 308614" d="M568.407,187.545a5.654,5.654,0,1,1-5.654-5.653A5.654,5.654,0,0,1,568.407,187.545Z" fill="none" stroke="#265359" stroke-linecap="round" stroke-miterlimit="10" stroke-width="2"/>
    <circle id="Ellipse_880" data-name="Ellipse 880" cx="5.653" cy="5.653" r="5.653" transform="translate(415.94 83.971)" fill="none" stroke="#265359" stroke-linecap="round" stroke-miterlimit="10" stroke-width="2"/>
    <circle id="Ellipse_881" data-name="Ellipse 881" cx="5.653" cy="5.653" r="5.653" transform="translate(692.292 275.979)" fill="none" stroke="#265359" stroke-linecap="round" stroke-miterlimit="10" stroke-width="2"/>
    <circle id="Ellipse_883" data-name="Ellipse 883" cx="63.5" cy="63.5" r="63.5" transform="translate(422.12 241.511)" fill="#fff"/>
    <g id="Group_125063" data-name="Group 125063" transform="matrix(0.259, -0.966, 0.966, 0.259, -274.57, 1423.094)">
      <path id="Path_315886" data-name="Path 315886" d="M1281.788,470.892c-7.2,9.682-18.531,8.214-24.226,2.556-5.6-5.56-7.359-16.825,2.449-24.292q-5.855-5.844-11.68-11.659c-3.345-3.344-3.323-5.86.031-9.247,1.368-1.381,2.685-2.813,4.007-4.2,3.349,2.9,5.375,3.226,7.341,1.357s1.713-3.956-.834-7.179c1.816-1.932,3.49-4.012,5.473-5.738,1.861-1.619,4.692-1.218,6.615.654,2.758,2.686,5.456,5.433,8.179,8.155q12.252,12.249,24.5,24.5c3.178,3.179,3.169,5.812.006,9-1.333,1.345-2.641,2.716-3.564,3.666a35.851,35.851,0,0,0-5.633-1.832c-.75-.118-1.854.743-2.495,1.439-1.759,1.912-1.328,3.865,1.108,6.593a82.706,82.706,0,0,1-5.642,6.074C1285.769,472.221,1283.677,471.816,1281.788,470.892Zm-20.983-26.023a10.022,10.022,0,0,1,.846.929c1.044,1.432,2.232,1.663,4.071,1.382a17.9,17.9,0,0,1,7.17.329c8.13,2.191,12.711,10.353,10.749,18.75-.227.969-.323,1.661.87,1.789,1.594.17,3.982-2.987,3.429-4.487a7.415,7.415,0,0,1,1.532-8.084c2.147-2.334,4.922-3.283,7.9-2.139,1.838.707,2.742.128,3.846-1.1,1.554-1.733,1.631-2.194.023-3.8q-10.549-10.56-21.111-21.108c-.355-.354-.758-.659-.944-.819Zm7.761,29.51a11.993,11.993,0,1,0-12.048-11.9A11.975,11.975,0,0,0,1268.567,474.379Zm7.769-50.876c-2.41-2.4-4.889-4.855-7.342-7.332-.8-.812-1.6-1.446-2.772-.689-1.859,1.2-2.648,2.669-2.181,3.964a7.5,7.5,0,0,1-1.6,8.23c-2.177,2.292-4.977,3.2-7.927,2.027a2.616,2.616,0,0,0-3.555.982c-.293.368-.874.635-.95,1.022-.151.767-.384,1.9.014,2.33,2.564,2.759,5.29,5.368,7.873,7.938Z" transform="translate(0 0)" fill="#265359"/>
      <path id="Path_315887" data-name="Path 315887" d="M1342.919,607.089c0,1.122-.012,2.244,0,3.366.017,1.172-.449,2-1.685,2.052s-1.833-.745-1.853-1.907q-.06-3.453,0-6.908c.018-1.14.556-1.972,1.8-1.961s1.737.818,1.733,1.993C1342.915,604.846,1342.919,605.967,1342.919,607.089Z" transform="matrix(-0.259, -0.966, 0.966, -0.259, 1026.685, 1915.471)" fill="#265359"/>
      <path id="Path_315888" data-name="Path 315888" d="M1341.836,662.3a1.774,1.774,0,0,1-1.781-1.784,1.625,1.625,0,0,1,1.781-1.609,1.711,1.711,0,0,1,1.751,1.609A1.917,1.917,0,0,1,1341.836,662.3Z" transform="matrix(-0.259, -0.966, 0.966, -0.259, 983.952, 1927.508)" fill="#265359"/>
    </g>
  </g>
</svg>
