<svg xmlns="http://www.w3.org/2000/svg" xmlns:xlink="http://www.w3.org/1999/xlink" width="230.279" height="116.893" viewBox="0 0 230.279 116.893">
  <defs>
    <clipPath id="clip-path">
      <rect id="Rectangle_6374" data-name="Rectangle 6374" width="26.209" height="25.875" fill="none"/>
    </clipPath>
  </defs>
  <g id="Group_124325" data-name="Group 124325" transform="translate(-13.549 -9.5)">
    <g id="Group_123165" data-name="Group 123165" transform="translate(0 -9.396)">
      <g id="Group_123148" data-name="Group 123148" transform="translate(40.808 19.396)">
        <path id="Path_308605" data-name="Path 308605" d="M456.472,213.373a69.5,69.5,0,0,1-9.9,35.862H326.713a69.834,69.834,0,1,1,129.759-35.862Z" transform="translate(-311.416 -138.146)" fill="#265359" opacity="0.28"/>
        <g id="Group_123145" data-name="Group 123145" transform="translate(0.926 10.654)">
          <path id="Path_308606" data-name="Path 308606" d="M324.076,182.747H301.591c-.9,0-1.621-1.224-1.621-2.734h0c0-1.51.726-2.734,1.621-2.734h22.486c.895,0,1.62,1.224,1.62,2.734h0C325.7,181.523,324.971,182.747,324.076,182.747Z" transform="translate(-284.836 -168.494)" fill="#fbfaf8"/>
          <rect id="Rectangle_62500" data-name="Rectangle 62500" width="33.752" height="5.468" rx="2.734" transform="translate(81.762)" fill="#fbfaf8"/>
          <path id="Path_308607" data-name="Path 308607" d="M624.284,258.059H586.351a2.734,2.734,0,0,1-2.734-2.734h0a2.734,2.734,0,0,1,2.734-2.734h37.933a2.734,2.734,0,0,1,2.734,2.734h0A2.734,2.734,0,0,1,624.284,258.059Z" transform="translate(-468.103 -212.461)" fill="#fbfaf8"/>
          <path id="Path_308608" data-name="Path 308608" d="M662.388,278.965H624.455a2.734,2.734,0,0,1-2.734-2.734h0a2.734,2.734,0,0,1,2.734-2.734h37.933a2.734,2.734,0,0,1,2.734,2.734h0A2.734,2.734,0,0,1,662.388,278.965Z" transform="translate(-490.348 -224.666)" fill="#fbfaf8"/>
          <path id="Path_308609" data-name="Path 308609" d="M346.742,244.223H308.809a2.734,2.734,0,0,1-2.734-2.734h0a2.734,2.734,0,0,1,2.734-2.734h37.934a2.734,2.734,0,0,1,2.734,2.734h0A2.734,2.734,0,0,1,346.742,244.223Z" transform="translate(-306.075 -204.384)" fill="#fbfaf8"/>
        </g>
        <g id="Group_123147" data-name="Group 123147" transform="translate(0)">
          <g id="Group_123146" data-name="Group 123146">
            <line id="Line_531" data-name="Line 531" x1="125.162" y2="0.095" transform="translate(11.232 115.798)" fill="none" stroke="#265359" stroke-linecap="round" stroke-miterlimit="10" stroke-width="1" stroke-dasharray="7.945 7.945"/>
            <path id="Path_308612" data-name="Path 308612" d="M311.021,238.662a81.926,81.926,0,0,1-7.172-32.861,75.225,75.225,0,1,1,150.451,0c0,11.8-4.043,25.83-8.888,35.77" transform="translate(-303.849 -130.574)" fill="none" stroke="#265359" stroke-linecap="round" stroke-miterlimit="10" stroke-width="1" stroke-dasharray="7.951 7.951"/>
          </g>
        </g>
        <ellipse id="Ellipse_882" data-name="Ellipse 882" cx="28.504" cy="28.504" rx="28.504" ry="28.504" transform="translate(46.192 36)" fill="#fff"/>
      </g>
      <g id="Group_123149" data-name="Group 123149" transform="translate(31.289 43.952)">
        <line id="Line_532" data-name="Line 532" x1="5.23" y2="5.23" fill="none" stroke="#265359" stroke-linecap="round" stroke-miterlimit="10" stroke-width="1"/>
        <line id="Line_533" data-name="Line 533" x2="5.23" y2="5.23" fill="none" stroke="#265359" stroke-linecap="round" stroke-miterlimit="10" stroke-width="1"/>
      </g>
      <g id="Group_123151" data-name="Group 123151" transform="translate(97.553 34.885)">
        <line id="Line_536" data-name="Line 536" x1="5.87" y2="5.87" fill="none" stroke="#265359" stroke-linecap="round" stroke-miterlimit="10" stroke-width="1"/>
        <line id="Line_537" data-name="Line 537" x2="5.87" y2="5.87" fill="none" stroke="#265359" stroke-linecap="round" stroke-miterlimit="10" stroke-width="1"/>
      </g>
      <g id="Group_123152" data-name="Group 123152" transform="translate(211.306 106.456)">
        <line id="Line_538" data-name="Line 538" x1="5.444" y2="5.444" fill="none" stroke="#265359" stroke-linecap="round" stroke-miterlimit="10" stroke-width="1"/>
        <line id="Line_539" data-name="Line 539" x2="5.444" y2="5.444" fill="none" stroke="#265359" stroke-linecap="round" stroke-miterlimit="10" stroke-width="1"/>
      </g>
      <g id="Group_123153" data-name="Group 123153" transform="translate(206.613 43.952)">
        <line id="Line_540" data-name="Line 540" x1="5.23" y2="5.23" fill="none" stroke="#265359" stroke-linecap="round" stroke-miterlimit="10" stroke-width="1"/>
        <line id="Line_541" data-name="Line 541" x2="5.23" y2="5.23" fill="none" stroke="#265359" stroke-linecap="round" stroke-miterlimit="10" stroke-width="1"/>
      </g>
      <g id="Group_123154" data-name="Group 123154" transform="translate(171.978 21.112)">
        <line id="Line_542" data-name="Line 542" x1="5.709" y2="5.709" fill="none" stroke="#265359" stroke-linecap="round" stroke-miterlimit="10" stroke-width="1"/>
        <line id="Line_543" data-name="Line 543" x2="5.709" y2="5.709" fill="none" stroke="#265359" stroke-linecap="round" stroke-miterlimit="10" stroke-width="1"/>
      </g>
      <circle id="Ellipse_878" data-name="Ellipse 878" cx="3.401" cy="3.401" r="3.401" transform="translate(14.049 70.18)" fill="none" stroke="#265359" stroke-linecap="round" stroke-miterlimit="10" stroke-width="1"/>
      <path id="Path_308613" data-name="Path 308613" d="M273.1,332.056a3.572,3.572,0,1,1-5.041.325A3.572,3.572,0,0,1,273.1,332.056Z" transform="translate(-241.63 -228.283)" fill="none" stroke="#265359" stroke-linecap="round" stroke-miterlimit="10" stroke-width="1"/>
      <circle id="Ellipse_879" data-name="Ellipse 879" cx="3.401" cy="3.401" r="3.401" transform="translate(236.527 122.227)" fill="none" stroke="#265359" stroke-linecap="round" stroke-miterlimit="10" stroke-width="1"/>
      <path id="Path_308614" data-name="Path 308614" d="M564.093,185.388a3.5,3.5,0,1,1-3.5-3.5A3.5,3.5,0,0,1,564.093,185.388Z" transform="translate(-410.888 -141.137)" fill="none" stroke="#265359" stroke-linecap="round" stroke-miterlimit="10" stroke-width="1"/>
      <circle id="Ellipse_881" data-name="Ellipse 881" cx="3.401" cy="3.401" r="3.401" transform="translate(200.384 79.914)" fill="none" stroke="#265359" stroke-linecap="round" stroke-miterlimit="10" stroke-width="1"/>
    </g>
    <g id="Artwork_9" data-name="Artwork 9" transform="translate(103 62)">
      <g id="Artwork_9-2" data-name="Artwork 9" transform="translate(0 0)" clip-path="url(#clip-path)">
        <path id="Path_43154" data-name="Path 43154" d="M16.263,84.548H5.954c-.436,0-.436,0-.436.436v2.735a.945.945,0,0,1-.947,1.022A.928.928,0,0,1,3.7,87.7V75.02A.942.942,0,0,1,4.632,74,.9.9,0,0,1,5.533,75v7.289c0,.3.075.391.376.391h6.582c.286,0,.376-.09.376-.376-.015-1.082,0-2.179,0-3.276a2.108,2.108,0,0,1,2.209-2.149c3.006.045,6.026.015,9.032.015a4.519,4.519,0,0,1,2.374.571,4.393,4.393,0,0,1,2.344,3.877c.03,2.134.015,4.283,0,6.417a.922.922,0,0,1-1.172.932.947.947,0,0,1-.646-.9V85.059c0-.571.06-.526-.541-.526h-10.2Zm4.6-1.863h5.726c.406,0,.406,0,.406-.376v-.8a2.673,2.673,0,0,0-2.209-2.675,9,9,0,0,0-1.683-.03H15.227c-.5,0-.5,0-.5.5,0,1.007.015,2.014,0,3.036,0,.3.09.391.391.391h5.756" transform="translate(-3.144 -62.877)" fill="#265359"/>
        <path id="Path_43155" data-name="Path 43155" d="M26.1,8.067a.92.92,0,0,1-1.232.947,3.307,3.307,0,0,1-.5-.271L13.311,2.176a.526.526,0,0,0-.616,0L2.175,8.428l-.691.406C.867,9.195.326,9.119.011,8.608S-.064,7.6.522,7.256L5.541,4.28Q8.922,2.274,12.3.253a1.217,1.217,0,0,1,1.4,0L25.5,7.271a1.043,1.043,0,0,1,.6.812" transform="translate(0.109 -0.027)" fill="#265359"/>
        <path id="Path_43156" data-name="Path 43156" d="M25.714,98.642A2.585,2.585,0,0,1,23.1,96.087a2.615,2.615,0,1,1,5.23-.045,2.585,2.585,0,0,1-2.615,2.6M25.7,95.305a.721.721,0,0,0-.736.751.751.751,0,0,0,.736.766.8.8,0,0,0,.766-.781.751.751,0,0,0-.766-.736" transform="translate(-19.628 -79.406)" fill="#265359"/>
      </g>
    </g>
  </g>
</svg>
