<svg xmlns="http://www.w3.org/2000/svg" width="587.053" height="326.907" viewBox="0 0 587.053 326.907">
  <g id="Group_125061" data-name="Group 125061" transform="translate(-204.386 -82.971)">
    <g id="Group_123148" data-name="Group 123148">
      <path id="Path_308605" data-name="Path 308605" d="M652.371,311.32a166.991,166.991,0,0,1-23.783,86.165H340.6A167.788,167.788,0,1,1,652.371,311.32Z" fill="#265359" opacity="0.28"/>
      <g id="Group_123145" data-name="Group 123145">
        <path id="Path_308606" data-name="Path 308606" d="M397.681,190.416H306.539a6.569,6.569,0,0,1-6.569-6.568h0a6.569,6.569,0,0,1,6.569-6.569h91.142a6.569,6.569,0,0,1,6.568,6.569h0A6.569,6.569,0,0,1,397.681,190.416Z" fill="#fbfaf8"/>
        <rect id="Rectangle_62500" data-name="Rectangle 62500" width="104.279" height="13.137" rx="6.568" transform="translate(502.524 156.173)" fill="#fbfaf8"/>
        <path id="Path_308607" data-name="Path 308607" d="M681.327,265.728H590.185a6.569,6.569,0,0,1-6.568-6.569h0a6.569,6.569,0,0,1,6.568-6.568h91.142a6.569,6.569,0,0,1,6.569,6.568h0A6.569,6.569,0,0,1,681.327,265.728Z" fill="#fbfaf8"/>
        <path id="Path_308608" data-name="Path 308608" d="M719.432,286.634H628.29a6.569,6.569,0,0,1-6.569-6.568h0a6.569,6.569,0,0,1,6.569-6.569h91.142A6.569,6.569,0,0,1,726,280.066h0A6.569,6.569,0,0,1,719.432,286.634Z" fill="#fbfaf8"/>
        <path id="Path_308609" data-name="Path 308609" d="M403.785,251.892H312.643a6.569,6.569,0,0,1-6.568-6.569h0a6.569,6.569,0,0,1,6.568-6.568h91.142a6.569,6.569,0,0,1,6.569,6.568h0A6.569,6.569,0,0,1,403.785,251.892Z" fill="#fbfaf8"/>
      </g>
      <g id="Group_123147" data-name="Group 123147">
        <g id="Group_123146" data-name="Group 123146">
          <line id="Line_531" data-name="Line 531" x1="297.922" transform="translate(333.64 408.484)" fill="none" stroke="#265359" stroke-linecap="round" stroke-miterlimit="10" stroke-width="2" stroke-dasharray="7.945 7.945"/>
          <path id="Path_308612" data-name="Path 308612" d="M329.731,408.541c-10.57-22.969-25.882-70.273-25.882-97.221a180.742,180.742,0,1,1,361.484,0c0,28.36-16.353,73.338-28,97.221" fill="none" stroke="#265359" stroke-linecap="round" stroke-miterlimit="10" stroke-width="2" stroke-dasharray="7.951 7.951"/>
        </g>
      </g>
    </g>
    <g id="Group_123149" data-name="Group 123149">
      <line id="Line_532" data-name="Line 532" x1="8.995" y2="8.995" transform="translate(280.978 189.573)" fill="none" stroke="#265359" stroke-linecap="round" stroke-miterlimit="10" stroke-width="2"/>
      <line id="Line_533" data-name="Line 533" x2="8.995" y2="8.995" transform="translate(280.978 189.573)" fill="none" stroke="#265359" stroke-linecap="round" stroke-miterlimit="10" stroke-width="2"/>
    </g>
    <g id="Group_123150" data-name="Group 123150">
      <line id="Line_534" data-name="Line 534" x1="8.995" y2="8.995" transform="translate(205.8 373.145)" fill="none" stroke="#265359" stroke-linecap="round" stroke-miterlimit="10" stroke-width="2"/>
      <line id="Line_535" data-name="Line 535" x2="8.995" y2="8.995" transform="translate(205.8 373.145)" fill="none" stroke="#265359" stroke-linecap="round" stroke-miterlimit="10" stroke-width="2"/>
    </g>
    <g id="Group_123151" data-name="Group 123151">
      <line id="Line_536" data-name="Line 536" x1="8.995" y2="8.995" transform="translate(440.19 167.788)" fill="none" stroke="#265359" stroke-linecap="round" stroke-miterlimit="10" stroke-width="2"/>
      <line id="Line_537" data-name="Line 537" x2="8.995" y2="8.995" transform="translate(440.19 167.788)" fill="none" stroke="#265359" stroke-linecap="round" stroke-miterlimit="10" stroke-width="2"/>
    </g>
    <g id="Group_123152" data-name="Group 123152">
      <line id="Line_538" data-name="Line 538" x1="8.995" y2="8.995" transform="translate(713.499 343.836)" fill="none" stroke="#265359" stroke-linecap="round" stroke-miterlimit="10" stroke-width="2"/>
      <line id="Line_539" data-name="Line 539" x2="8.995" y2="8.995" transform="translate(713.499 343.836)" fill="none" stroke="#265359" stroke-linecap="round" stroke-miterlimit="10" stroke-width="2"/>
    </g>
    <g id="Group_123153" data-name="Group 123153">
      <line id="Line_540" data-name="Line 540" x1="8.995" y2="8.995" transform="translate(702.223 189.573)" fill="none" stroke="#265359" stroke-linecap="round" stroke-miterlimit="10" stroke-width="2"/>
      <line id="Line_541" data-name="Line 541" x2="8.995" y2="8.995" transform="translate(702.223 189.573)" fill="none" stroke="#265359" stroke-linecap="round" stroke-miterlimit="10" stroke-width="2"/>
    </g>
    <g id="Group_123154" data-name="Group 123154">
      <line id="Line_542" data-name="Line 542" x1="8.995" y2="8.995" transform="translate(619.008 134.697)" fill="none" stroke="#265359" stroke-linecap="round" stroke-miterlimit="10" stroke-width="2"/>
      <line id="Line_543" data-name="Line 543" x2="8.995" y2="8.995" transform="translate(619.008 134.697)" fill="none" stroke="#265359" stroke-linecap="round" stroke-miterlimit="10" stroke-width="2"/>
    </g>
    <circle id="Ellipse_878" data-name="Ellipse 878" cx="5.653" cy="5.653" r="5.653" transform="translate(239.556 252.591)" fill="none" stroke="#265359" stroke-linecap="round" stroke-miterlimit="10" stroke-width="2"/>
    <path id="Path_308613" data-name="Path 308613" d="M276.558,332.574a5.653,5.653,0,1,1-7.978.514A5.653,5.653,0,0,1,276.558,332.574Z" fill="none" stroke="#265359" stroke-linecap="round" stroke-miterlimit="10" stroke-width="2"/>
    <circle id="Ellipse_879" data-name="Ellipse 879" cx="5.653" cy="5.653" r="5.653" transform="translate(779.133 377.643)" fill="none" stroke="#265359" stroke-linecap="round" stroke-miterlimit="10" stroke-width="2"/>
    <path id="Path_308614" data-name="Path 308614" d="M568.407,187.545a5.654,5.654,0,1,1-5.654-5.653A5.654,5.654,0,0,1,568.407,187.545Z" fill="none" stroke="#265359" stroke-linecap="round" stroke-miterlimit="10" stroke-width="2"/>
    <circle id="Ellipse_880" data-name="Ellipse 880" cx="5.653" cy="5.653" r="5.653" transform="translate(415.94 83.971)" fill="none" stroke="#265359" stroke-linecap="round" stroke-miterlimit="10" stroke-width="2"/>
    <circle id="Ellipse_881" data-name="Ellipse 881" cx="5.653" cy="5.653" r="5.653" transform="translate(692.292 275.979)" fill="none" stroke="#265359" stroke-linecap="round" stroke-miterlimit="10" stroke-width="2"/>
    <circle id="Ellipse_883" data-name="Ellipse 883" cx="63.5" cy="63.5" r="63.5" transform="translate(421.642 241.971)" fill="#fff"/>
    <path id="Icon_awesome-suitcase-rolling" data-name="Icon awesome-suitcase-rolling" d="M34.652,20.766H4.95C2.216,20.766,0,23.556,0,27V56.069C0,59.51,2.216,62.3,4.95,62.3H6.6v2.077a1.9,1.9,0,0,0,1.65,2.077h3.3a1.9,1.9,0,0,0,1.65-2.077V62.3H26.4v2.077a1.9,1.9,0,0,0,1.65,2.077h3.3A1.9,1.9,0,0,0,33,64.376V62.3h1.65c2.734,0,4.95-2.789,4.95-6.23V27C39.6,23.556,37.386,20.766,34.652,20.766ZM33,48.8a.95.95,0,0,1-.825,1.038H7.425A.95.95,0,0,1,6.6,48.8V46.724a.95.95,0,0,1,.825-1.038H32.177A.95.95,0,0,1,33,46.724Zm0-12.46a.95.95,0,0,1-.825,1.038H7.425A.95.95,0,0,1,6.6,36.341V34.265a.95.95,0,0,1,.825-1.038H32.177A.95.95,0,0,1,33,34.265ZM14.851,6.23h9.9v9.383H29.7V6.23C29.7,2.789,27.485,0,24.751,0h-9.9C12.117,0,9.9,2.789,9.9,6.23v9.383h4.95Z" transform="translate(465.642 274.121)" fill="#265359"/>
  </g>
</svg>
