<svg xmlns="http://www.w3.org/2000/svg" width="20.854" height="19.323" viewBox="0 0 20.854 19.323"><defs><style>.a{fill:none;}.b,.c{stroke:none;}.c{fill:#265359;}</style></defs><g transform="translate(-50.001 -200)"><g class="a" transform="translate(50.002 200.001)"><path class="b" d="M0,19.322A10.432,10.432,0,0,1,7.223,9.4a5.3,5.3,0,1,1,6.649.082,10.433,10.433,0,0,1,6.981,9.844Z"/><path class="c" d="M 19.79991149902344 18.32209968566895 C 19.41756629943848 14.734055519104 16.99921226501465 11.6320743560791 13.54176044464111 10.42151927947998 L 11.81937980651855 9.818459510803223 L 13.25454044342041 8.691269874572754 C 14.30216026306152 7.868449687957764 14.90299987792969 6.633729934692383 14.90299987792969 5.303699493408203 C 14.90299987792969 2.930139780044556 12.97196006774902 0.9990997314453125 10.5984001159668 0.9990997314453125 C 8.22484016418457 0.9990997314453125 6.293800354003906 2.930139780044556 6.293800354003906 5.303699493408203 C 6.293800354003906 6.592549800872803 6.864630222320557 7.803099632263184 7.859910011291504 8.624959945678711 L 9.267720222473145 9.787469863891602 L 7.530080318450928 10.3477897644043 C 5.647270202636719 10.95491981506348 4.026500225067139 12.12117004394531 2.842990159988403 13.72047996520996 C 1.836088061332703 15.08113479614258 1.225420594215393 16.65552711486816 1.0510573387146 18.32209968566895 L 19.79991149902344 18.32209968566895 M 20.85300064086914 19.32209968566895 C 13.98960018157959 19.32209968566895 8.072999954223633 19.32209968566895 -0.000899813836440444 19.32209968566895 C -0.000899813836440444 14.6811695098877 3.031230211257935 10.74777984619141 7.223180294036865 9.396049499511719 C 6.044890403747559 8.423069953918457 5.293800354003906 6.951009750366211 5.293800354003906 5.303699493408203 C 5.293800354003906 2.374199628829956 7.668900012969971 -0.000900291430298239 10.5984001159668 -0.000900291430298239 C 13.52789974212646 -0.000900291430298239 15.90299987792969 2.374199628829956 15.90299987792969 5.303699493408203 C 15.90299987792969 6.997849941253662 15.10873985290527 8.506519317626953 13.87222003936768 9.477699279785156 C 17.93719100952148 10.90096950531006 20.85300064086914 14.7714900970459 20.85300064086914 19.32209968566895 Z"/></g></g></svg>