<svg xmlns="http://www.w3.org/2000/svg" width="42.77" height="42.185" viewBox="0 0 42.77 42.185"><defs><style>.a{fill:#1a171b;}</style></defs><g transform="translate(-1477.062 -219.215)"><g transform="translate(1477.062 219.215)"><path class="a" d="M1518.592,245.548a21.4,21.4,0,0,0,.662-5.232,21.008,21.008,0,0,0-2.807-10.5c-.01-.02-.01-.04-.02-.057-.01,0-.03-.02-.03-.02a21.244,21.244,0,0,0-7.654-7.656c-.01-.019-.02-.037-.039-.037s-.04,0-.047-.019a21.022,21.022,0,0,0-21,0,.069.069,0,0,1-.057.019l-.037.037a21.29,21.29,0,0,0-7.646,7.656l-.029.02c-.01.017-.01.037-.02.057a21.073,21.073,0,0,0,7.7,28.738c.019,0,.029.017.037.037.03,0,.057.02.078.02a20.815,20.815,0,0,0,10.475,2.789,21.129,21.129,0,0,0,10.473-2.789c.03,0,.057-.02.078-.02.019-.02.029-.037.046-.037a21.8,21.8,0,0,0,4.8-3.809.643.643,0,0,0-.933-.884,20.836,20.836,0,0,1-4,3.309l-1.288-2.252a.644.644,0,0,0-.877-.23.62.62,0,0,0-.23.864l1.29,2.251a19.659,19.659,0,0,1-8.714,2.309v-2.558a.643.643,0,0,0-.645-.635.635.635,0,0,0-.636.635v2.558a19.639,19.639,0,0,1-8.714-2.327l1.29-2.232a.638.638,0,0,0-1.107-.635l-1.288,2.212a19.8,19.8,0,0,1-9.349-16.177h2.568a.634.634,0,1,0,0-1.268h-2.568a19.729,19.729,0,0,1,2.336-8.714l2.222,1.268a.493.493,0,0,0,.317.1.647.647,0,0,0,.56-.327.632.632,0,0,0-.241-.864l-2.211-1.29a20,20,0,0,1,6.366-6.366l1.288,2.211a.623.623,0,0,0,.55.327.5.5,0,0,0,.317-.1.631.631,0,0,0,.24-.864l-1.29-2.212a19.924,19.924,0,0,1,8.714-2.349v2.578a.634.634,0,0,0,.636.635.643.643,0,0,0,.645-.635V220.5a19.882,19.882,0,0,1,8.7,2.349l-1.28,2.212a.62.62,0,0,0,.23.864.506.506,0,0,0,.32.1.637.637,0,0,0,.557-.327l1.278-2.211a20.032,20.032,0,0,1,6.376,6.366l-2.22,1.29a.641.641,0,0,0,.317,1.192.493.493,0,0,0,.317-.1l2.231-1.268a19.589,19.589,0,0,1,2.327,8.714h-2.567a.634.634,0,1,0,0,1.268h2.567a20.352,20.352,0,0,1-.6,4.251l-1.213-.345.943,3.693,2.741-2.655Z" transform="translate(-1477.062 -219.215)"/></g><g transform="translate(1494.431 227.967)"><path class="a" d="M1498.219,229.837a3.626,3.626,0,1,0-3.626,3.636A3.622,3.622,0,0,0,1498.219,229.837Zm-5.975,0a2.347,2.347,0,1,1,2.348,2.347A2.356,2.356,0,0,1,1492.244,229.837Z" transform="translate(-1490.966 -226.221)"/></g><g transform="translate(1482.812 236.624)"><path class="a" d="M1488.59,237.191v7.77h-6.29a.629.629,0,0,0-.636.635.642.642,0,0,0,.636.636h29.41a.636.636,0,0,0,.636-.636.623.623,0,0,0-.636-.635h-6.356v-7.77a4.061,4.061,0,0,0-4.05-4.04h-8.674A4.051,4.051,0,0,0,1488.59,237.191Zm15.484,0v7.77h-2.135v-7.175a.635.635,0,0,0-1.269,0v7.175h-7.4v-7.175a.639.639,0,0,0-1.278,0v7.175h-2.135v-7.77a2.765,2.765,0,0,1,2.77-2.752h3.74v7.714a.64.64,0,1,0,1.28,0v-7.714h3.654A2.759,2.759,0,0,1,1504.074,237.191Z" transform="translate(-1481.665 -233.151)"/></g></g></svg>