<svg xmlns="http://www.w3.org/2000/svg" width="45.463" height="44.697" viewBox="0 0 45.463 44.697"><defs><style>.a{fill:#1a171b;}</style></defs><g transform="translate(-1556.284 -221.703)"><g transform="translate(1556.284 228.267)"><path class="a" d="M1601.052,226.646a6.859,6.859,0,0,0-6.861,6.849V235.6h-37.222a.683.683,0,0,0-.685.675v12.7a2.706,2.706,0,0,0,1.308,2.35,11.167,11.167,0,0,0,2.75,1.146v2.842a4.757,4.757,0,1,0,5.378,5.4h20.406a4.749,4.749,0,1,0,5.387-5.4v-2.863a10.171,10.171,0,0,0,2.741-1.125,2.7,2.7,0,0,0,1.318-2.35V233.495a5.494,5.494,0,0,1,5.48-5.48.685.685,0,1,0,0-1.369Zm-40.024,36.743a3.374,3.374,0,1,1,3.373-3.375A3.379,3.379,0,0,1,1561.029,263.389Zm33.163-3.375a3.368,3.368,0,1,1-3.374-3.373A3.371,3.371,0,0,1,1594.191,260.013Zm-4.058-4.7a4.816,4.816,0,0,0-4.007,4.007H1565.72a4.8,4.8,0,0,0-4-4.007v-2.576a13.321,13.321,0,0,0,1.564.1,10.96,10.96,0,0,0,6.747-2.229,9.959,9.959,0,0,1,11.787,0,11.157,11.157,0,0,0,8.312,2.127Zm4.058-6.338a1.321,1.321,0,0,1-.633,1.166,10.133,10.133,0,0,1-10.887-.613,11.408,11.408,0,0,0-13.5,0,10.115,10.115,0,0,1-10.876.613,1.328,1.328,0,0,1-.646-1.166v-12h36.538Z" transform="translate(-1556.284 -226.646)"/></g><g transform="translate(1560.096 260.715)"><path class="a" d="M1560.087,251.083a.925.925,0,0,0-.932.919.931.931,0,1,0,1.862,0A.916.916,0,0,0,1560.087,251.083Z" transform="translate(-1559.155 -251.083)"/></g><g transform="translate(1589.888 260.715)"><path class="a" d="M1581.591,252a.93.93,0,1,0,1.859,0,.93.93,0,0,0-1.859,0Z" transform="translate(-1581.591 -251.083)"/></g><g transform="translate(1563.163 221.703)"><path class="a" d="M1562.15,235.5H1586.3a.7.7,0,0,0,.7-.7.711.711,0,0,0-.7-.694h-1.082a11.018,11.018,0,0,0-10.295-10.284v-1.454a.69.69,0,0,0-1.38,0v1.454a11,11,0,0,0-10.295,10.284h-1.1a.7.7,0,0,0-.685.694A.689.689,0,0,0,1562.15,235.5Zm12.074-10.348a9.655,9.655,0,0,1,9.62,8.958H1564.6A9.67,9.67,0,0,1,1574.224,225.157Z" transform="translate(-1561.465 -221.703)"/></g></g></svg>