<svg xmlns="http://www.w3.org/2000/svg" width="57" height="57" viewBox="0 0 57 57">
  <g id="Group_54146" data-name="Group 54146" transform="translate(-1427 -8176)">
    <circle id="Ellipse_777" data-name="Ellipse 777" cx="28.5" cy="28.5" r="28.5" transform="translate(1427 8176)" fill="#fff"/>
    <g id="Icon_feather-instagram" data-name="Icon feather-instagram" transform="translate(1438.444 8186.467)">
      <path id="Path_161351" data-name="Path 161351" d="M10.5,3h15A7.5,7.5,0,0,1,33,10.5v15A7.5,7.5,0,0,1,25.5,33h-15A7.5,7.5,0,0,1,3,25.5v-15A7.5,7.5,0,0,1,10.5,3Z" fill="none" stroke="#265359" stroke-linecap="round" stroke-linejoin="round" stroke-width="4"/>
      <path id="Path_161352" data-name="Path 161352" d="M24,17.055A6,6,0,1,1,18.945,12,6,6,0,0,1,24,17.055Z" fill="none" stroke="#265359" stroke-linecap="round" stroke-linejoin="round" stroke-width="4"/>
      <path id="Path_161353" data-name="Path 161353" d="M26.25,9.75h0" fill="none" stroke="#265359" stroke-linecap="round" stroke-linejoin="round" stroke-width="4"/>
    </g>
  </g>
</svg>
