<svg xmlns="http://www.w3.org/2000/svg" width="47.982" height="47.97" viewBox="0 0 47.982 47.97"><defs><style>.a{fill:#1a171b;}</style></defs><g transform="translate(-911.997 -204.824)"><path class="a" d="M959.256,241.9H957.8V207a2.172,2.172,0,0,0-2.179-2.179H916.366a2.183,2.183,0,0,0-2.19,2.179V241.9h-1.445a.734.734,0,0,0-.734.734v2.912a3.642,3.642,0,0,0,3.635,3.626h0v2.913a.729.729,0,0,0,1.458,0v-2.913h18.169v2.913a.731.731,0,0,0,.733.713.721.721,0,0,0,.723-.713v-2.913H954.9v2.913a.723.723,0,0,0,1.445,0v-2.913h0a3.643,3.643,0,0,0,3.638-3.626V242.63A.726.726,0,0,0,959.256,241.9ZM915.632,207a.728.728,0,0,1,.734-.734h39.253a.723.723,0,0,1,.722.734V241.9h-7.714V215.181a5.094,5.094,0,0,0-5.082-5.094H933.372a5.109,5.109,0,0,0-5.05,4.4,5.8,5.8,0,0,0-5.06,4.833,1.464,1.464,0,0,0,.323,1.164,1.481,1.481,0,0,0,1.111.52H933.3a1.459,1.459,0,0,0,1.437-1.684,5.81,5.81,0,0,0-4.952-4.813,3.647,3.647,0,0,1,3.582-2.957h10.173a3.636,3.636,0,0,1,3.637,3.627V241.9h-31.55ZM929,215.914a4.338,4.338,0,0,1,4.3,3.626l-8.609.022A4.339,4.339,0,0,1,929,215.914Zm29.53,29.628a2.2,2.2,0,0,1-2.19,2.181H915.632a2.195,2.195,0,0,1-2.179-2.181v-2.179h45.078Z"/><path class="a" d="M929,223.359a.723.723,0,0,0-.723.713v.754a.723.723,0,0,0,1.445,0v-.754A.721.721,0,0,0,929,223.359Z"/><path class="a" d="M929,226.66a.727.727,0,0,0-.723.734v1.295a.723.723,0,0,0,1.445,0v-1.295A.725.725,0,0,0,929,226.66Z"/><path class="a" d="M929,234.407a.723.723,0,0,0-.723.714v1.293a.723.723,0,1,0,1.445,0v-1.293A.721.721,0,0,0,929,234.407Z"/><path class="a" d="M929,230.523a.726.726,0,0,0-.723.733v1.295a.723.723,0,0,0,1.445,0v-1.295A.724.724,0,0,0,929,230.523Z"/><path class="a" d="M929,238.27a.723.723,0,0,0-.723.714v.733a.723.723,0,1,0,1.445,0v-.733A.721.721,0,0,0,929,238.27Z"/><path class="a" d="M925.366,222.431a.721.721,0,0,0-.723.713v.734a.726.726,0,0,0,.723.734.736.736,0,0,0,.733-.734v-.734A.731.731,0,0,0,925.366,222.431Z"/><path class="a" d="M925.366,233.565a.726.726,0,0,0-.723.734v1.295a.725.725,0,0,0,.723.734.735.735,0,0,0,.733-.734V234.3A.736.736,0,0,0,925.366,233.565Z"/><path class="a" d="M925.366,229.661a.724.724,0,0,0-.723.733v1.295a.726.726,0,0,0,.723.734.736.736,0,0,0,.733-.734v-1.295A.734.734,0,0,0,925.366,229.661Z"/><path class="a" d="M925.366,225.754a.726.726,0,0,0-.723.734v1.295a.724.724,0,0,0,.723.733.734.734,0,0,0,.733-.733v-1.295A.736.736,0,0,0,925.366,225.754Z"/><path class="a" d="M925.366,237.494a.706.706,0,0,0-.723.712v.733a.72.72,0,0,0,.723.712.731.731,0,0,0,.733-.712v-.733A.716.716,0,0,0,925.366,237.494Z"/><path class="a" d="M932.638,222.431a.73.73,0,0,0-.734.713v.734a.734.734,0,0,0,1.468,0v-.734A.732.732,0,0,0,932.638,222.431Z"/><path class="a" d="M932.638,225.754a.735.735,0,0,0-.734.734v1.295a.734.734,0,0,0,1.468,0v-1.295A.736.736,0,0,0,932.638,225.754Z"/><path class="a" d="M932.638,233.565a.735.735,0,0,0-.734.734v1.295a.734.734,0,0,0,1.468,0V234.3A.736.736,0,0,0,932.638,233.565Z"/><path class="a" d="M932.638,229.661a.733.733,0,0,0-.734.733v1.295a.734.734,0,1,0,1.468,0v-1.295A.734.734,0,0,0,932.638,229.661Z"/><path class="a" d="M932.638,237.494a.715.715,0,0,0-.734.712v.733a.734.734,0,0,0,1.468,0v-.733A.717.717,0,0,0,932.638,237.494Z"/></g></svg>