<svg xmlns="http://www.w3.org/2000/svg" width="40.807" height="46.168" viewBox="0 0 40.807 46.168">
  <g id="t_c" data-name="t&amp;c" transform="translate(-1518.636 -849.936)">
    <path id="Path_275" data-name="Path 275" d="M1518.64,873.793V854.959c0-2.536,1-3.533,3.57-3.536,6.441-.007,12.882.01,19.323-.016a2.924,2.924,0,0,1,2.271.937q3.9,3.973,7.869,7.87a2.794,2.794,0,0,1,.9,2.159c-.022,10.151-.01,20.3-.018,30.452,0,2.257-1.032,3.273-3.3,3.274q-13.7.009-27.4,0c-2.191,0-3.213-1.029-3.216-3.227Q1518.63,883.332,1518.64,873.793Zm2.07-.038c0,6.237.02,12.474-.017,18.711-.007,1.137.335,1.6,1.532,1.6q13.392-.053,26.783,0c1.118,0,1.5-.4,1.484-1.509-.048-3.668-.018-7.337-.018-11.006,0-5.87-.023-11.741.021-17.611.008-1.074-.324-1.456-1.4-1.391-1.3.078-2.608.02-3.913.018-2.826-.005-3.762-.927-3.769-3.71,0-1.3-.065-2.613.019-3.912.072-1.128-.328-1.471-1.454-1.462-5.87.049-11.741.02-17.611.025-1.572,0-1.655.082-1.656,1.664Q1520.7,864.46,1520.71,873.755Zm27.763-13.287-4.961-4.942v3.913c0,.619.275,1.02.938,1.025,1.41.011,2.82,0,4.02,0Z" fill="#265359"/>
    <path id="Path_276" data-name="Path 276" d="M1559.42,871.4c0,5.829-.047,10.762.022,15.692.03,2.121-.914,3.944-1.462,5.89-.209.744-.48,1.471-.727,2.2a1.058,1.058,0,0,1-1.041.868,1.006,1.006,0,0,1-.991-.776c-.9-3.191-2.36-6.193-2.314-9.674.123-9.413.029-18.829.013-28.243a4.749,4.749,0,0,1,.554-2.7c.407-.648.154-1.437.214-2.161a2.481,2.481,0,0,1,2.421-2.56c1.428-.025,2.228,1,2.553,2.574C1560.02,859.071,1559.1,865.7,1559.42,871.4Zm-4.41,2.6h.01c0,4.036.012,8.072-.011,12.108,0,.8.1,1.3,1.108,1.3s1.248-.383,1.244-1.306q-.045-12.108-.017-24.217c0-.927-.25-1.3-1.243-1.3-1.012,0-1.1.51-1.1,1.306C1555.02,865.927,1555.01,869.963,1555.01,874Zm2.293-16.715c.137-.91-.19-1.327-1.182-1.322-.962.005-1.119.47-1.138,1.283-.022.9.221,1.326,1.219,1.309.948-.016,1.228-.417,1.1-1.27Z" fill="#265359"/>
    <path id="Path_277" data-name="Path 277" d="M1543.83,883.71c2.1.024,4.714,2.626,4.734,4.706.02,1.993-2.68,4.7-4.715,4.732-2.051.028-4.866-2.774-4.8-4.779C1539.11,886.286,1541.78,883.687,1543.83,883.71Zm1.99,4.576c-.41-.33-.29-1.145-.59-1.3a4.64,4.64,0,0,1-1.432-.776c-.149-.157-2.267,2.022-2.125,2.242.513.8.9,1.729,1.943,2.031.092.027.178.162.252.151A4.579,4.579,0,0,0,1545.82,888.286Z" fill="#265359"/>
    <path id="Path_278" data-name="Path 278" d="M1535.61,868.526H1546a9.685,9.685,0,0,1,.977.03.9.9,0,0,1,.9.837.929.929,0,0,1-.777,1.078,5.213,5.213,0,0,1-1.211.109q-10.272.009-20.543,0c-.859,0-2.059.207-2.026-1.112.033-1.288,1.231-.918,2.014-.925C1528.76,868.508,1532.18,868.526,1535.61,868.526Z" fill="#265359"/>
    <path id="Path_279" data-name="Path 279" d="M1535.6,874.319h-10.762c-.7,0-1.521.031-1.544-.944-.025-1.014.8-1.108,1.563-1.109q10.7-.012,21.4,0a3.165,3.165,0,0,1,.728.067.981.981,0,0,1,.887,1.12.929.929,0,0,1-1.022.85c-1.182.024-2.364.019-3.546.02Z" fill="#265359"/>
    <path id="Path_280" data-name="Path 280" d="M1535.56,876.121h10.4a6.915,6.915,0,0,1,1.1.047.9.9,0,0,1,.833.9.917.917,0,0,1-.737.992,4.98,4.98,0,0,1-1.208.12q-10.335.011-20.669.005c-.2,0-.408,0-.612-.01-.7-.043-1.363-.207-1.366-1.063,0-.893.684-.994,1.381-.994Z" fill="#265359"/>
    <path id="Path_281" data-name="Path 281" d="M1535.48,881.914h-10.632c-.7,0-1.524.058-1.552-.926-.03-1.029.832-1.1,1.569-1.106q10.755-.024,21.509,0c.7,0,1.5.112,1.494,1.058,0,.985-.8.971-1.511.972Q1540.92,881.918,1535.48,881.914Z" fill="#265359"/>
    <path id="Path_282" data-name="Path 282" d="M1535.54,866.719h-7.95a8.542,8.542,0,0,1-1.1-.039.951.951,0,0,1-.958-.928,1,1,0,0,1,.966-1.06,5.76,5.76,0,0,1,.975-.047h16.267c.2,0,.408,0,.612.01.715.039,1.35.254,1.315,1.1-.033.787-.665.951-1.322.953-2.935.007-5.871,0-8.806,0Z" fill="#265359"/>
  </g>
</svg>
