<svg xmlns="http://www.w3.org/2000/svg" xmlns:xlink="http://www.w3.org/1999/xlink" width="32.831" height="29.641" viewBox="0 0 32.831 29.641"><defs><style>.a{fill:none;}.b{clip-path:url(#a);}.c{fill:#265359;}</style><clipPath id="a"><rect class="a" width="32.831" height="29.641"/></clipPath></defs><g class="b" transform="translate(0 0)"><path class="c" d="M3.265,16.517c-.416.392-.686.661-.979.906A1.572,1.572,0,0,1,.474,17.4,1.2,1.2,0,0,1,.3,15.611a26.784,26.784,0,0,1,3.55-3.55,1.3,1.3,0,0,1,1.861.294c.979.979,1.983,1.934,2.938,2.938s.686,1.542.122,2.106-1.3.514-2.081-.147L6.4,17.007c-.22.22-.122.441-.073.661a12.092,12.092,0,0,0,12.388,9.157A11.815,11.815,0,0,0,29.877,16.615,11.977,11.977,0,0,0,20.109,2.978c-.686-.122-1.371-.1-2.057-.2a1.528,1.528,0,0,1-1.371-1.469A1.431,1.431,0,0,1,18.3-.009,14.468,14.468,0,0,1,29.51,5.524,14.8,14.8,0,1,1,3.46,17.545c-.049-.294-.122-.588-.22-1.028" transform="translate(0.016 0.009)"/><path class="c" d="M55.376,27.436c0,1.4-.024,2.767,0,4.162a2.179,2.179,0,0,1-.686,1.689l-4.284,4.26a1.472,1.472,0,1,1-2.032-2.081c.783-.783,2.228-2.277,3.379-3.379a1.983,1.983,0,0,0,.637-1.591c-.024-2.326,0-4.627,0-6.953a5.411,5.411,0,0,1,.049-.906,1.525,1.525,0,0,1,1.542-1.347,1.45,1.45,0,0,1,1.347,1.518c.024,1.542,0,3.06,0,4.6Z" transform="translate(-36.059 -16.076)"/><path class="c" d="M66.6,92.965a5.385,5.385,0,0,1,.049-.808.984.984,0,0,1,1-.857.93.93,0,0,1,.93.832,6.513,6.513,0,0,1,.049,1.42c-.024.637-.343,1.126-1.028,1.1s-.955-.539-.979-1.175V92.94H66.6" transform="translate(-50.293 -68.947)"/><path class="c" d="M93.776,83.97a2.736,2.736,0,0,1-1.983-1.934.93.93,0,0,1,1.371-.881,3.476,3.476,0,0,1,1.493,1.518.93.93,0,0,1-.881,1.3" transform="translate(-69.318 -61.201)"/><path class="c" d="M105.414,58.108c-1.2,0-1.714-.294-1.714-.979s.588-1.028,1.714-1.028l.637.049c.612.1,1.053.392,1,1.053a.961.961,0,0,1-1.1.93h-.539" transform="translate(-78.311 -42.365)"/><path class="c" d="M91.7,29.254a3.043,3.043,0,0,1,1.91-1.959.979.979,0,0,1,.906.49.808.808,0,0,1-.024,1,12.9,12.9,0,0,1-1.249,1.273.857.857,0,0,1-1,.073.906.906,0,0,1-.514-.881" transform="translate(-69.249 -20.611)"/></g></svg>