<svg xmlns="http://www.w3.org/2000/svg" xmlns:xlink="http://www.w3.org/1999/xlink" width="26.884" height="24.272" viewBox="0 0 26.884 24.272"><defs><style>.a{fill:none;}.b{clip-path:url(#a);}.c{fill:#d4b2b1;}</style><clipPath id="a"><rect class="a" width="26.884" height="24.272"/></clipPath></defs><g transform="translate(13.442 12.136)"><g class="b" transform="translate(-13.442 -12.136)"><path class="c" d="M2.669,13.523c-.341.321-.561.541-.8.742a1.287,1.287,0,0,1-1.484-.02.982.982,0,0,1-.14-1.463A21.932,21.932,0,0,1,3.151,9.874a1.063,1.063,0,0,1,1.524.241c.8.8,1.624,1.584,2.406,2.406s.561,1.263.1,1.724-1.063.421-1.7-.12l-.241-.2c-.18.18-.1.361-.06.541a9.9,9.9,0,0,0,10.144,7.5,9.675,9.675,0,0,0,9.142-8.36,9.808,9.808,0,0,0-8-11.167c-.561-.1-1.123-.08-1.684-.16a1.251,1.251,0,0,1-1.123-1.2A1.172,1.172,0,0,1,14.979-.009a11.847,11.847,0,0,1,9.182,4.531A12.116,12.116,0,1,1,2.83,14.365c-.04-.241-.1-.481-.18-.842" transform="translate(0.017 0.009)"/><path class="c" d="M53.994,26.322c0,1.143-.02,2.265,0,3.408a1.784,1.784,0,0,1-.561,1.383L49.925,34.6a1.205,1.205,0,1,1-1.664-1.7c.642-.642,1.824-1.864,2.767-2.767a1.624,1.624,0,0,0,.521-1.3c-.02-1.9,0-3.789,0-5.694a4.431,4.431,0,0,1,.04-.742,1.249,1.249,0,0,1,1.263-1.1,1.187,1.187,0,0,1,1.1,1.243c.02,1.263,0,2.506,0,3.769Z" transform="translate(-38.176 -17.02)"/><path class="c" d="M66.6,92.663a4.41,4.41,0,0,1,.04-.662.806.806,0,0,1,.822-.7.762.762,0,0,1,.762.682,5.332,5.332,0,0,1,.04,1.163c-.02.521-.281.922-.842.9s-.782-.441-.8-.962v-.441H66.6" transform="translate(-53.246 -72.996)"/><path class="c" d="M93.417,83.439a2.24,2.24,0,0,1-1.624-1.584.762.762,0,0,1,1.123-.722,2.847,2.847,0,0,1,1.223,1.243.762.762,0,0,1-.722,1.063" transform="translate(-73.389 -64.795)"/><path class="c" d="M105.1,57.744c-.982,0-1.4-.241-1.4-.8s.481-.842,1.4-.842l.521.04c.5.08.862.321.822.862a.787.787,0,0,1-.9.762H105.1" transform="translate(-82.91 -44.853)"/><path class="c" d="M91.7,28.9a2.491,2.491,0,0,1,1.564-1.6.8.8,0,0,1,.742.4.662.662,0,0,1-.02.822,10.565,10.565,0,0,1-1.022,1.042.7.7,0,0,1-.822.06.742.742,0,0,1-.421-.722" transform="translate(-73.316 -21.822)"/></g></g></svg>