<svg xmlns="http://www.w3.org/2000/svg" xmlns:xlink="http://www.w3.org/1999/xlink" width="19.023" height="20.796" viewBox="0 0 19.023 20.796"><defs><style>.a{fill:none;}.b{clip-path:url(#a);}.c{fill:#265359;}</style><clipPath id="a"><rect class="a" width="19.023" height="20.796"/></clipPath></defs><g transform="translate(9.512 10.398)"><g class="b" transform="translate(-9.512 -10.398)"><path class="c" d="M10.365,14.835l-1.1,1.6a1.4,1.4,0,0,1-1.151.7.551.551,0,0,0-.451.3l-3.6,5.206a.551.551,0,0,0-.05.651,1.3,1.3,0,0,1-.25,1.5,1.3,1.3,0,0,1-1.352.4,1.3,1.3,0,0,1-1-1.2,1.051,1.051,0,0,0-.5-.8,1.637,1.637,0,0,1-.451-2.6l2.253-3.254a1.381,1.381,0,0,1,2.153-.35l1,.7a.3.3,0,0,0,.5-.1l.5-.751a.451.451,0,0,0,0-.5,1.151,1.151,0,0,1,.1-1.151l3.454-5.307a2.45,2.45,0,0,1,2.7-.851,2.553,2.553,0,0,1,2.1,1.852,5.307,5.307,0,0,1,.15.651,4.506,4.506,0,0,0,2,3.054,8.31,8.31,0,0,1,1.051.851,1.252,1.252,0,0,1,.2,1.8,1.2,1.2,0,0,1-1.8.1l-1.852-1.5c-.25-.2-.35-.15-.4.15a2.053,2.053,0,0,0,.1,1.4q1.352,2.929,2.553,5.857a1.43,1.43,0,0,1-1.352,2.1,1.452,1.452,0,0,1-1.151-.8l-1.9-3.254-.35-.6a26.233,26.233,0,0,1-2,2.854L9.514,24.8a1.313,1.313,0,0,1-2.153-1.5c.7-1.1,1.5-2.153,2.1-3.254a5.33,5.33,0,0,0,.851-3.7c-.1-.451.05-.9-.05-1.4m1,.9a3.1,3.1,0,0,0,.451,1.552l3.5,6.007.451.751a.366.366,0,0,0,.5.2.4.4,0,0,0,.2-.551l-.15-.35-2.553-6.057a1.9,1.9,0,0,1-.1-1.2c.25-1.4.5-2.8.8-4.155a1.752,1.752,0,0,0-.1-.951,1.552,1.552,0,0,0-1.352-1.1c-.6-.05-1.252-.15-1.652.5L7.912,15.536c-.1.2-.25.4,0,.551s.4-.05.5-.25l1.2-1.7,1.252-1.8c.15-.25.35-.5.7-.4s.35.5.3.8v.25l-.5,2.753M1.955,22.695c.35-.35.9-.05,1.2-.5l2.253-3.2a.3.3,0,0,0-.1-.5l-1-.7a.451.451,0,0,0-.7.15l-2.453,3.4a.6.6,0,0,0-.05.751,1.752,1.752,0,0,0,.851.6m9.362-4.255c-.15.05-.15.2-.2.3a5.757,5.757,0,0,1-1.051,2.253L8.413,23.546c-.15.2-.35.451-.05.651s.451-.1.6-.25l2.053-2.753a6.758,6.758,0,0,0,.8-1.452.5.5,0,0,0,0-.5l-.5-.8m3.8-4.756c-.1.25-.25.551,0,.8l2.453,2.053a.25.25,0,0,0,.35-.05c.1-.15,0-.25-.1-.35l-.7-.6a20.075,20.075,0,0,1-2.1-1.852" transform="translate(-0.002 -4.472)"/><path class="c" d="M26.553,4.531a2.3,2.3,0,0,1-2.253-2.3,2.3,2.3,0,0,1,4.606.05,2.3,2.3,0,0,1-2.353,2.253m1.3-2.3a1.3,1.3,0,1,0-2.553,0,1.3,1.3,0,1,0,2.553,0" transform="translate(-12.135 0.025)"/></g></g></svg>