<svg xmlns="http://www.w3.org/2000/svg" xmlns:xlink="http://www.w3.org/1999/xlink" width="22.184" height="22.618" viewBox="0 0 22.184 22.618"><defs><style>.a{fill:none;}.b{clip-path:url(#a);}</style><clipPath id="a"><rect class="a" width="22.184" height="22.618"/></clipPath></defs><g transform="translate(11.092 11.309)"><g class="b" transform="translate(-11.092 -11.309)"><path d="M31.222,0a6.327,6.327,0,0,1,6.365,6.4A6.414,6.414,0,1,1,31.222,0m-.038,11.045a4.733,4.733,0,0,0,4.66-4.6,4.651,4.651,0,0,0-9.3-.095,4.71,4.71,0,0,0,4.641,4.7" transform="translate(-20.102 0.002)"/><path d="M22.071,85.5a.753.753,0,0,1-.493.815.871.871,0,0,1-1.061-.3c-.379-.493-.7-1.023-1.08-1.516a10.893,10.893,0,0,0-17.5.777l-.341.511c-.4.568-.89.739-1.345.455s-.511-.8-.152-1.4a11.424,11.424,0,0,1,1.667-2.179A12.719,12.719,0,0,1,21.654,84.5a2.093,2.093,0,0,1,.436,1" transform="translate(0.113 -63.789)"/></g></g></svg>