<svg xmlns="http://www.w3.org/2000/svg" width="49.31" height="48.688" viewBox="0 0 49.31 48.688"><defs><style>.a{fill:#1a171b;}</style></defs><g transform="translate(-994.156 -204.105)"><path class="a" d="M1041.227,236.36H1019.56V219.617a2.988,2.988,0,1,0-1.5,0V236.36H996.4a2.241,2.241,0,0,0-2.239,2.241v8.959A2.24,2.24,0,0,0,996.4,249.8h.754v2.241a.744.744,0,1,0,1.488,0V249.8h40.348v2.241a.747.747,0,0,0,.743.754.755.755,0,0,0,.754-.754V249.8h.745a2.233,2.233,0,0,0,2.239-2.239V238.6A2.235,2.235,0,0,0,1041.227,236.36Zm-23.908-19.625a1.492,1.492,0,0,1,2.984,0,1.492,1.492,0,1,1-2.984,0Zm24.65,30.825a.746.746,0,0,1-.742.754H996.4a.746.746,0,0,1-.742-.754V238.6a.746.746,0,0,1,.742-.754h44.832a.746.746,0,0,1,.742.754Z"/><path class="a" d="M1006.93,229.375a.7.7,0,0,0,.522-.22.72.72,0,0,0,0-1.043,16.115,16.115,0,0,1,0-22.731.719.719,0,0,0,0-1.042.71.71,0,0,0-1.054,0,17.567,17.567,0,0,0,0,24.816A.705.705,0,0,0,1006.93,229.375Z"/><path class="a" d="M1030.17,229.155a.71.71,0,0,0,.533.22.74.74,0,0,0,.532-.22,17.567,17.567,0,0,0,0-24.816.723.723,0,0,0-1.065,0,.734.734,0,0,0,0,1.042,16.1,16.1,0,0,1,0,22.731A.736.736,0,0,0,1030.17,229.155Z"/><path class="a" d="M1012.1,224.209a.846.846,0,0,0,.534-.223.736.736,0,0,0,0-1.042,8.753,8.753,0,0,1,0-12.4.752.752,0,0,0-1.065-1.063,10.251,10.251,0,0,0,0,14.5A.815.815,0,0,0,1012.1,224.209Z"/><path class="a" d="M1025,223.986a.733.733,0,0,0,1.053,0,10.251,10.251,0,0,0,0-14.5.75.75,0,0,0-1.053,0,.76.76,0,0,0,0,1.063,8.782,8.782,0,0,1,0,12.4A.734.734,0,0,0,1025,223.986Z"/><path class="a" d="M999.979,242.548a.777.777,0,0,0,0,1.065.793.793,0,0,0,.531.22.74.74,0,0,0,.531-.243.712.712,0,0,0,.212-.511.8.8,0,0,0-.212-.531A.761.761,0,0,0,999.979,242.548Z"/><path class="a" d="M1008.969,242.326a.754.754,0,0,0,0,1.507.753.753,0,1,0,0-1.507Z"/><path class="a" d="M1004.745,242.326a.754.754,0,1,0,.743.753A.749.749,0,0,0,1004.745,242.326Z"/><path class="a" d="M1012.684,242.548a.753.753,0,0,0,.522,1.285.8.8,0,0,0,.532-.22.75.75,0,0,0,0-1.065A.751.751,0,0,0,1012.684,242.548Z"/><path class="a" d="M1037.123,242.326h-19.061a.746.746,0,0,0-.743.753.728.728,0,0,0,.743.734h19.061a.727.727,0,0,0,.743-.734A.745.745,0,0,0,1037.123,242.326Z"/></g></svg>