<svg xmlns="http://www.w3.org/2000/svg" width="294" height="278" viewBox="0 0 294 278"><defs><style>.a{fill:#fff;}.b{opacity:0.3;}.c{fill:#ffc9af;}.d{opacity:0.6;}.e{fill:#265359;}.f{fill:#ffd91e;}.g{fill:#363636;}.h{fill:#313e40;}.i{fill:#000072;}</style></defs><g transform="translate(-2774.222 -2120.926)"><rect class="a" width="294" height="278" transform="translate(2774.222 2120.926)"/><g transform="translate(2856.223 2182.926)"><g transform="translate(51.389 124.403)"><path class="a" d="M2132.733,2972.04l-5.02-2.337.81-5.021Z" transform="translate(-2127.713 -2964.683)"/></g><g class="b" transform="translate(51.389 124.403)"><path class="a" d="M2132.733,2972.04l-5.02-2.337.81-5.021Z" transform="translate(-2127.713 -2964.683)"/></g><g transform="translate(1.035 126.214)"><path class="c" d="M2846.039,3020.068l-.348-5.918a33.242,33.242,0,0,1-4.23-.247h-.005c-7.8-1-8.471-4.8-4.944-6.9a12.484,12.484,0,0,1,6.756-1.389l-.408-6.024a20.247,20.247,0,0,0-6.837.761,14.444,14.444,0,0,0-6.847,4.188C2824.05,3010.437,2827.208,3019.533,2846.039,3020.068Z" transform="translate(-2826.98 -2999.559)"/></g><g transform="translate(71.404 105.293)"><path class="c" d="M1375.973,2601.471l3.62,20.459s5.152,3.671,5.386,7.829a4.207,4.207,0,0,0,.525,1.5l0,0a.02.02,0,0,0,0,.008,4.261,4.261,0,0,0,3.688,2.124h5.9a4.42,4.42,0,0,0,2.01-.465c.156-.081.306-.164.449-.252,3.841-2.371,2.984-7.821-1.153-10.083a3.661,3.661,0,0,1-1.841-2.586l-4.111-23.295-13.674,2.145-.343,1.112Z" transform="translate(-1375.973 -2596.716)"/></g><g class="d" transform="translate(72.041 105.293)"><path class="a" d="M1375.976,2599.406l11.768-1.846,4.111,23.295a3.661,3.661,0,0,0,1.841,2.586c4.038,2.207,4.952,7.46,1.415,9.912a4.289,4.289,0,0,0,1.363-.421c4.349-2.21,3.586-7.99-.7-10.335a3.661,3.661,0,0,1-1.841-2.586l-4.111-23.295-13.674,2.145Z" transform="translate(-1375.976 -2596.716)"/></g><g transform="translate(48.792 108.625)"><path class="c" d="M1665.471,2662.926l.551,2.319,1.779,7.489,9.53,18.543a5.118,5.118,0,0,0,4.633,2.939h11.9a3.2,3.2,0,0,0,3.189-2.784,6.572,6.572,0,0,0-3.573-6.4,3.669,3.669,0,0,1-1.844-2.586l-3.8-21.578Z" transform="translate(-1665.471 -2660.866)"/></g><g class="d" transform="translate(68.834 108.625)"><path class="a" d="M1665.471,2661.079l3.765,21.365a3.67,3.67,0,0,0,1.844,2.586,6.571,6.571,0,0,1,3.573,6.4,3.2,3.2,0,0,1-3.189,2.784h2.358a3.2,3.2,0,0,0,3.189-2.784,6.572,6.572,0,0,0-3.573-6.4,3.669,3.669,0,0,1-1.844-2.586l-3.8-21.578Z" transform="translate(-1665.471 -2660.866)"/></g><g transform="translate(16.827 94.914)"><path class="c" d="M2037.465,2443.926h30.426a4.657,4.657,0,0,0,4.163-2.524c2.29-4.513-2.181-8.663-7.453-9.681a16.969,16.969,0,0,0,.644-8.735c3.446-.5,6.022-.873,6.022-.873s4.414-10.042,4.155-10.3c-.1-.1-1.659-1.6-3.607-3.474-3.293-3.16-7.687-7.354-7.972-7.518-.454-.26-16.8-3.955-16.8-3.955-4.048,15.492-13.947,17.631-16.014,30.384A17.8,17.8,0,0,0,2037.465,2443.926Z" transform="translate(-2030.818 -2396.866)"/></g><g transform="translate(10.491 1.039)"><path class="e" d="M753.885,637.175c-7.4,6.855-8.3,17.156-6.513,28.888a17.325,17.325,0,0,1,6.318-8.135c-8.7,24.624,26.616,23.845,42.976,44.229a16.554,16.554,0,0,1,4.217-3.015c15.077-7.842,47.821-3.877,48.366-26.717a9.847,9.847,0,0,1,2.49,3.1,16.157,16.157,0,0,1,1.535,5.726c4.534-9.844,5.622-19.55,1.342-29.039,2.856,2.163,6.123,3.243,9.089,2.423-7.772-5.463-8.31-35.66-36.788-49.423a8.6,8.6,0,0,0,8.4-4.329c-6.837.345-10.213-8.4-19.107-3.051-5-9.218-12.724-3.246-21.488-8.569-.236,3.365,1.395,5.72,4.869,7.076-11.88.049-20.493,4.9-27.387,11.158l0,.005a114.236,114.236,0,0,0-12.256,13.778c-4.794,6.014-9.039,11.272-13.911,13.23C746.03,634.513,749.471,638.279,753.885,637.175Z" transform="translate(-746.03 -589.266)"/></g><g class="d" transform="translate(37.752 112.565)"><path class="a" d="M2107.4,2753.971c5.556,1.294,7.181,3.933,7.364,7.063-.952-2.034-5.28-4.5-7.92-4.977s-2.337-1.8-2.337-1.8c2.968-9.224-.96-14.942-7.252-15.594a3.787,3.787,0,0,1-2.827-1.712l-.052-.081C2105.073,2735.457,2110.654,2744.84,2107.4,2753.971Z" transform="translate(-2094.38 -2736.732)"/></g><g class="d" transform="translate(64.793 84.198)"><path class="a" d="M1024.38,2217l.55.231c15.077-7.842,47.821-3.877,48.366-26.717C1065.68,2210.987,1031.836,2207.7,1024.38,2217Z" transform="translate(-1024.38 -2190.516)"/></g><g class="d" transform="translate(88.787 18.06)"><path class="a" d="M746.03,917.849c23.682,11.446,28.043,34.259,33.309,44.757a5.254,5.254,0,0,0,6.026,2.772l.044-.012c-7.577-5.326-8.278-34.154-34.687-48.35A8.79,8.79,0,0,1,746.03,917.849Z" transform="translate(-746.03 -917.016)"/></g><g class="d" transform="translate(115.788 60.617)"><path class="a" d="M872.1,1763.142a16.156,16.156,0,0,1,1.535,5.726c4.534-9.844,5.622-19.551.562-29.255l-2.508-3.155C872.167,1737.318,877.525,1753.233,872.1,1763.142Z" transform="translate(-871.689 -1736.458)"/></g><g class="d" transform="translate(59.157 1.039)"><path class="a" d="M1293.285,592.652c7.466,2.623,13.968-1.018,18.364,7.089,8.894-5.344,12.269,3.4,19.106,3.051a11.348,11.348,0,0,1-1.3,1.677,9.327,9.327,0,0,0,3.887-3.583c-6.837.345-10.213-8.4-19.107-3.051-5-9.218-12.724-3.246-21.488-8.569A6.955,6.955,0,0,0,1293.285,592.652Z" transform="translate(-1292.73 -589.266)"/></g><g transform="translate(28.34 28.501)"><path class="f" d="M1248.19,1179.507c51.068,4.587,53.358-40.058,11.848-60.025a14.506,14.506,0,0,0-8.12-1.311C1204.507,1124.186,1198.334,1172.842,1248.19,1179.507Z" transform="translate(-1213.485 -1118.054)"/></g><g transform="translate(28.34 28.501)"><path class="c" d="M1248.19,1179.507c51.068,4.587,53.358-40.058,11.848-60.025a14.506,14.506,0,0,0-8.12-1.311C1204.507,1124.186,1198.334,1172.842,1248.19,1179.507Z" transform="translate(-1213.485 -1118.054)"/></g><g class="b" transform="translate(28.339 30.116)"><path class="e" d="M1506.586,1209c11.667,1.046,20.789-.475,27.424-3.687a63.5,63.5,0,0,1-19.008.852c-43.362-5.8-44.341-43.359-12.664-57C1462.367,1159.291,1459.679,1202.733,1506.586,1209Z" transform="translate(-1471.88 -1149.166)"/></g><g class="d" transform="translate(50.163 28.501)"><path class="a" d="M1213.488,1122.611a62.667,62.667,0,0,1,13.542-3.2,14.51,14.51,0,0,1,8.12,1.309c32.321,15.549,38.089,46.063,14.944,56.636,26.65-9.21,21.8-41.659-11.875-57.859a14.49,14.49,0,0,0-8.12-1.311A60.435,60.435,0,0,0,1213.488,1122.611Z" transform="translate(-1213.488 -1118.064)"/></g><g transform="translate(9.452 0)"><path class="g" d="M777.72,684.234a1.039,1.039,0,0,0,.741-.311c4.3-4.375,12.736-6.056,21.67-7.835,13.716-2.732,29.17-5.81,31.031-20.209A13.234,13.234,0,0,1,833.3,662.4a1.039,1.039,0,0,0,1.976.321c4.505-9.784,5.336-18.634,2.511-26.95a10.266,10.266,0,0,0,7.253.9,1.039,1.039,0,0,0,.32-1.851c-2.313-1.626-4.044-6.013-6.235-11.566-2.276-5.768-5.109-12.948-9.764-19.79a52.215,52.215,0,0,0-17.791-16.512,9.9,9.9,0,0,0,5.678-4.475,1.039,1.039,0,0,0-.928-1.6c-2.364.117-4.32-1.024-6.392-2.236-3.221-1.884-6.85-4.006-12.28-1.183-3.1-4.952-7.132-5.221-11.387-5.505-3.177-.212-6.463-.431-9.945-2.546a1.039,1.039,0,0,0-1.575.815,7.314,7.314,0,0,0,2.4,6.265c-18.129,1.55-28.376,14.411-36.707,24.865-4.848,6.084-9.034,11.337-13.734,13.226a1.038,1.038,0,0,0-.38,1.664,10.7,10.7,0,0,0,6.044,3.15c-5.318,6.258-6.894,15.2-4.962,27.856a1.039,1.039,0,0,0,2.014.167,16.769,16.769,0,0,1,3.384-5.437c-1.229,5.681-.028,10.317,3.68,14.4,3.85,4.24,10.039,7.385,16.591,10.714,8.236,4.185,17.57,8.928,23.843,16.744a1.039,1.039,0,0,0,.758.387ZM830.3,652.424a1.039,1.039,0,0,0-1.038,1.014c-.354,14.8-15.191,17.754-29.539,20.612-8.738,1.74-17.018,3.389-21.91,7.632-6.52-7.647-15.686-12.305-23.807-16.432-13-6.607-23.27-11.825-18.285-25.939a1.039,1.039,0,0,0-1.556-1.21,17.6,17.6,0,0,0-5.157,5.446c-1.209-11.427.929-19.288,6.634-24.572a1.039,1.039,0,0,0-.957-1.77,6.981,6.981,0,0,1-5.714-1.4c4.561-2.459,8.543-7.455,13.082-13.152,8.576-10.762,19.249-24.156,38.59-24.237a1.039,1.039,0,0,0,.373-2.006c-2.432-.949-3.778-2.347-4.134-4.332a24.123,24.123,0,0,0,9.233,1.955c4.254.284,7.613.508,10.229,5.333a1.039,1.039,0,0,0,1.448.4c4.889-2.938,7.758-1.261,11.079.681a16.928,16.928,0,0,0,5.5,2.386,7.352,7.352,0,0,1-6.323,2.386,1.039,1.039,0,0,0-.531,1.971c18.7,9.038,25.04,25.1,29.669,36.835,1.824,4.624,3.347,8.484,5.289,10.886a11.027,11.027,0,0,1-6.18-2.484,1.039,1.039,0,0,0-1.574,1.255c3.476,7.705,3.482,15.914,0,25.008a11.647,11.647,0,0,0-3.757-6.024A1.038,1.038,0,0,0,830.3,652.424Z" transform="translate(-726.045 -569.266)"/></g><g transform="translate(55.935 70.918)"><path class="g" d="M1863.893,1941.7a7.407,7.407,0,0,0,9.938,2.41,9.263,9.263,0,0,0,3.42-3.749,7.2,7.2,0,0,1-5.832-5.542c-1.587,2.75-5.422,3.607-8.242,2.576A5.719,5.719,0,0,0,1863.893,1941.7Z" transform="translate(-1863.03 -1934.816)"/></g><g transform="translate(103.276 35.676)"><path class="c" d="M898.729,1260.158a40.372,40.372,0,0,1,3.15,3.752,43.12,43.12,0,0,1,3.905,6.372,48.175,48.175,0,0,1,1.974,4.5l0,0a9.339,9.339,0,1,0-9.026-14.63Z" transform="translate(-898.729 -1256.216)"/></g><g transform="translate(106.426 40.249)"><path class="c" d="M986.779,1347.387a43.112,43.112,0,0,1,3.905,6.372,4.551,4.551,0,0,0,.566.034,4.764,4.764,0,1,0-4.471-6.406Z" transform="translate(-986.779 -1344.266)"/></g><g class="d" transform="translate(103.276 35.676)"><path class="a" d="M898.729,1260.158q.506.534.987,1.08a9.336,9.336,0,0,1,15.9,5.438,9.338,9.338,0,0,0-16.892-6.518Z" transform="translate(-898.729 -1256.216)"/></g><g transform="translate(102.238 34.637)"><path class="g" d="M888.794,1256.865a1.037,1.037,0,0,0,.155-.012,10.378,10.378,0,1,0-10.028-16.258,1.038,1.038,0,0,0,.093,1.315,39.545,39.545,0,0,1,3.069,3.656,42.291,42.291,0,0,1,3.812,6.22,47.279,47.279,0,0,1,1.91,4.352,1.041,1.041,0,0,0,.989.726Zm-1.405-18.572a8.3,8.3,0,0,1,2.059,16.341c-.525-1.314-1.095-2.583-1.7-3.78a44.355,44.355,0,0,0-4-6.525c-.813-1.1-1.692-2.168-2.619-3.189A8.319,8.319,0,0,1,887.389,1238.293Z" transform="translate(-878.729 -1236.216)"/></g><g transform="translate(25.201 19.865)"><path class="e" d="M2388.548,960.155a40.37,40.37,0,0,0-4.589,1.715,43.107,43.107,0,0,0-6.537,3.624,48.172,48.172,0,0,0-3.934,2.948v0a9.339,9.339,0,1,1,15.059-8.291Z" transform="translate(-2369.919 -951.761)"/></g><g transform="translate(29.775 24.438)"><path class="c" d="M2466.527,1045.361a43.124,43.124,0,0,0-6.537,3.624,4.582,4.582,0,0,1-.509-.249,4.764,4.764,0,1,1,7.046-3.375Z" transform="translate(-2457.06 -1039.825)"/></g><g class="d" transform="translate(27.021 19.865)"><path class="a" d="M2369.93,955.57a9.336,9.336,0,0,1,15.362,5.069c.478-.169.958-.327,1.447-.475a9.337,9.337,0,0,0-16.808-4.594Z" transform="translate(-2369.93 -951.768)"/></g><g class="b" transform="translate(16.827 94.914)"><path class="e" d="M2101.028,2443.926h23.414c.021-.039.039-.081.06-.119a4.422,4.422,0,0,0-3.34-6.357,19.956,19.956,0,0,1-12.041-6.593c-6.751-7.445-2.337-21.121,5.105-23.612s21.467,6.3,21.467,6.3,0-.361-.026-.989c-7.255-7.162-16.907-11.428-25.061-15.689h0c-4.048,15.492-13.947,17.631-16.014,30.384A17.805,17.805,0,0,0,2101.028,2443.926Z" transform="translate(-2094.38 -2396.866)"/></g><g class="b" transform="translate(106.426 40.249)"><path class="e" d="M986.779,1347.387q.5.67.966,1.361a4.763,4.763,0,0,1,8.037,1.753,4.655,4.655,0,0,0,.234-1.47,4.764,4.764,0,0,0-9.237-1.644Z" transform="translate(-986.779 -1344.266)"/></g><g class="b" transform="translate(30.465 24.439)"><path class="e" d="M2457.061,1042.136a4.758,4.758,0,0,1,6.19,4.495q1.27-.674,2.586-1.259a4.763,4.763,0,0,0-8.777-3.235Z" transform="translate(-2457.061 -1039.837)"/></g><g transform="translate(105.517 39.34)"><path class="g" d="M974.659,1338.11a5.673,5.673,0,1,0-5.325-7.627.909.909,0,0,0,.124.854,42.416,42.416,0,0,1,3.823,6.238.909.909,0,0,0,.7.494A5.463,5.463,0,0,0,974.659,1338.11Zm0-9.527a3.855,3.855,0,0,1,.008,7.709,44.264,44.264,0,0,0-3.439-5.614A3.868,3.868,0,0,1,974.659,1328.583Z" transform="translate(-969.278 -1326.765)"/></g><g transform="translate(24.179 18.823)"><path class="g" d="M2354.509,950.468a1.04,1.04,0,0,0,.58-.177,1.07,1.07,0,0,0,.145-.118c1.25-1.033,2.524-1.986,3.786-2.832a42.255,42.255,0,0,1,6.38-3.538,39.533,39.533,0,0,1,4.471-1.672,1.039,1.039,0,0,0,.729-1.1,10.377,10.377,0,1,0-16.733,9.215A1.039,1.039,0,0,0,2354.509,950.468Zm13.9-10.05c-1.311.433-2.6.932-3.851,1.487a44.352,44.352,0,0,0-6.693,3.711c-1.113.745-2.232,1.569-3.337,2.455A8.357,8.357,0,0,1,2353.054,938a8.3,8.3,0,0,1,15.354,2.42Z" transform="translate(-2349.916 -931.703)"/></g><g transform="translate(28.868 23.531)"><path class="g" d="M2443.4,1033.335a.908.908,0,0,0,.506-.154,42.387,42.387,0,0,1,6.4-3.548.909.909,0,0,0,.528-.682,5.673,5.673,0,1,0-8.39,4.018,5.387,5.387,0,0,0,.611.3A.91.91,0,0,0,2443.4,1033.335Zm5.688-5.147a44.257,44.257,0,0,0-5.757,3.193,3.855,3.855,0,1,1,5.757-3.193Z" transform="translate(-2439.566 -1022.359)"/></g><g transform="translate(27.301 27.462)"><path class="g" d="M1236.363,1161.908c8.258,0,15.305-1.426,21.019-4.261,6.685-3.317,11.148-8.439,12.9-14.813,1.958-7.1.367-15.238-4.482-22.9-5.162-8.158-13.56-15.2-24.286-20.358a15.52,15.52,0,0,0-8.7-1.406c-11.877,1.507-21.937,5.747-29.092,12.264-6.584,6-10.225,13.526-10.251,21.2a25.43,25.43,0,0,0,8.785,18.931c6.26,5.688,15.534,9.492,26.822,11l.045,0Q1232.885,1161.909,1236.363,1161.908Zm-7.142-1.372h0Zm5.577-60.415a13.405,13.405,0,0,1,5.821,1.326c10.375,4.991,18.478,11.767,23.431,19.6,4.531,7.163,6.035,14.705,4.234,21.239-1.6,5.788-5.685,10.458-11.825,13.5-6.866,3.407-16.245,4.692-27.123,3.717-10.858-1.455-19.736-5.077-25.678-10.476-5.324-4.838-8.126-10.85-8.1-17.386.043-12.841,11.8-28.148,37.526-31.411A13.653,13.653,0,0,1,1234.8,1100.122Z" transform="translate(-1193.477 -1098.044)"/></g><g transform="translate(59.796 63.175)"><path class="g" d="M1854.346,1787.13c-.359,1.7,1.754,3.591,4.718,4.215s5.658-.25,6.017-1.954-1.956-2.631-4.92-3.255S1854.7,1785.427,1854.346,1787.13Z" transform="translate(-1854.306 -1785.726)"/></g><g transform="translate(51.716 67.117)"><path class="g" d="M1757.711,1872.084a5.748,5.748,0,0,0,5.394-3.663,1.039,1.039,0,0,0-1.9-.839,3.738,3.738,0,0,1-4.317,2.353,6.168,6.168,0,0,1-4.98-4.68,1.039,1.039,0,0,0-1.926-.357c-1.332,2.309-4.688,2.959-6.986,2.119a3.747,3.747,0,0,1-2.607-4.243,1.039,1.039,0,1,0-2.063-.241,5.79,5.79,0,0,0,3.958,6.435,10.059,10.059,0,0,1,14.259,3.014A6.987,6.987,0,0,0,1757.711,1872.084Z" transform="translate(-1738.275 -1861.616)"/></g><g transform="translate(56.798 76.794)"><path class="c" d="M1928.88,2048.957a7.407,7.407,0,0,0,9.938,2.409A7.407,7.407,0,0,0,1928.88,2048.957Z" transform="translate(-1928.88 -2047.952)"/></g><g transform="translate(63.284 66.735)"><path class="g" d="M1947.29,1859.486a1.039,1.039,0,0,0,1.026-.885l.471-3.144a1.039,1.039,0,0,0-2.054-.308l-.471,3.145a1.039,1.039,0,0,0,.873,1.181A1.065,1.065,0,0,0,1947.29,1859.486Z" transform="translate(-1946.25 -1854.264)"/></g><g transform="translate(54.895 72.456)"><path class="g" d="M1851.215,1974.213a8.175,8.175,0,0,0,4.177-1.148,10.283,10.283,0,0,0,3.81-4.157,1.039,1.039,0,0,0-1.834-.975,8.246,8.246,0,0,1-3.03,3.342,6.35,6.35,0,0,1-8.523-2.054,4.687,4.687,0,0,1-.591-3.538,1.039,1.039,0,0,0-2.027-.456,6.725,6.725,0,0,0,.844,5.075A8.535,8.535,0,0,0,1851.215,1974.213Z" transform="translate(-1843.024 -1964.417)"/></g><g transform="translate(79.372 104.253)"><path class="g" d="M1361.214,2615.452h5.9a5.492,5.492,0,0,0,2.479-.576,6.078,6.078,0,0,0,3.48-5.437,7.754,7.754,0,0,0-4.155-6.737,2.614,2.614,0,0,1-1.317-1.855l-4.109-23.3a1.039,1.039,0,0,0-2.046.361l4.109,23.3a4.683,4.683,0,0,0,2.367,3.317,5.66,5.66,0,0,1,3.074,4.882,4.009,4.009,0,0,1-2.344,3.616,3.4,3.4,0,0,1-1.538.351h-5.9a3.241,3.241,0,0,1-3.187-2.751,1.039,1.039,0,0,0-2.055.3A5.33,5.33,0,0,0,1361.214,2615.452Z" transform="translate(-1355.96 -2576.692)"/></g><g transform="translate(50.082 107.586)"><path class="g" d="M1660.661,2676.293h11.9a4.248,4.248,0,0,0,4.219-3.692,7.617,7.617,0,0,0-4.105-7.443,2.616,2.616,0,0,1-1.319-1.857l-3.8-21.577a1.039,1.039,0,1,0-2.046.361l3.8,21.578a4.684,4.684,0,0,0,2.369,3.318,5.532,5.532,0,0,1,3.04,5.359,2.167,2.167,0,0,1-2.158,1.875h-11.9a4.1,4.1,0,0,1-3.693-2.343l-.016-.033-9.531-18.543a1.039,1.039,0,0,0-1.848.949l9.522,18.528A6.183,6.183,0,0,0,1660.661,2676.293Z" transform="translate(-1645.459 -2640.866)"/></g><g transform="translate(90.605 137.313)"><path class="g" d="M1433.834,3213.7a8.33,8.33,0,0,1,.126.894,8.06,8.06,0,0,1,.028.9,5.934,5.934,0,0,1-.083.857,4.315,4.315,0,0,1-.21.772.92.92,0,1,0,1.784.371v-.028a6.525,6.525,0,0,0-.254-2.139,9.348,9.348,0,0,0-.329-.961,9.013,9.013,0,0,0-.43-.913.343.343,0,0,0-.638.23Z" transform="translate(-1433.639 -3213.271)"/></g><g transform="translate(86.206 138.063)"><path class="g" d="M1518.42,3228.083a7.72,7.72,0,0,1-.029,1.446,4.5,4.5,0,0,1-.332,1.279.932.932,0,1,0,1.783.415l0-.072a6.083,6.083,0,0,0-.208-1.725,8.727,8.727,0,0,0-.559-1.519.346.346,0,0,0-.659.17Z" transform="translate(-1517.978 -3227.708)"/></g><g transform="translate(75.853 138.063)"><path class="g" d="M1717.774,3228.083a7.741,7.741,0,0,1-.029,1.446,4.5,4.5,0,0,1-.332,1.279.932.932,0,1,0,1.783.415l0-.072a6.074,6.074,0,0,0-.208-1.725,8.707,8.707,0,0,0-.558-1.519.346.346,0,0,0-.659.17Z" transform="translate(-1717.332 -3227.708)"/></g><g transform="translate(71.438 138.063)"><path class="g" d="M1802.774,3228.083a7.731,7.731,0,0,1-.028,1.446,4.491,4.491,0,0,1-.332,1.279.933.933,0,1,0,1.783.415l0-.072a6.083,6.083,0,0,0-.208-1.725,8.708,8.708,0,0,0-.559-1.519.346.346,0,0,0-.659.17Z" transform="translate(-1802.332 -3227.708)"/></g><g transform="translate(53.319 138.063)"><path class="g" d="M2151.654,3228.083a7.689,7.689,0,0,1-.029,1.446,4.491,4.491,0,0,1-.332,1.279.932.932,0,1,0,1.783.415l0-.072a6.088,6.088,0,0,0-.208-1.725,8.737,8.737,0,0,0-.559-1.519.346.346,0,0,0-.659.17Z" transform="translate(-2151.212 -3227.708)"/></g><g transform="translate(48.792 138.063)"><path class="g" d="M2238.823,3228.083a7.731,7.731,0,0,1-.029,1.446,4.507,4.507,0,0,1-.332,1.279.932.932,0,1,0,1.783.415l0-.072a6.088,6.088,0,0,0-.208-1.725,8.717,8.717,0,0,0-.559-1.519.346.346,0,0,0-.659.17Z" transform="translate(-2238.382 -3227.708)"/></g><g transform="translate(72.575 104.858)"><path class="h" d="M1599.353,2607.112a1.036,1.036,0,0,0,.669-.245c7.8-6.575,9.536-16.885,9.606-17.321a1.039,1.039,0,0,0-2.051-.33c-.023.143-1.711,10.009-8.894,16.062a1.039,1.039,0,0,0,.67,1.833Z" transform="translate(-1598.314 -2588.342)"/></g><g transform="translate(15.793 93.874)"><path class="g" d="M2080.3,2377.6a37.777,37.777,0,0,1-2.173,6.114,36.617,36.617,0,0,1-3.258,5.611c-1.247,1.787-2.641,3.49-4.033,5.251a40.272,40.272,0,0,0-3.881,5.639,23.43,23.43,0,0,0-1.457,3.168,25.011,25.011,0,0,0-.976,3.348c-.066.282-.11.569-.165.853s-.107.568-.142.866-.08.589-.1.883-.052.589-.055.883a18.7,18.7,0,0,0,.185,3.518,18.426,18.426,0,0,0,.815,3.43c.17.565.418,1.1.637,1.65.121.269.259.531.389.8a8.39,8.39,0,0,0,.417.78,19.082,19.082,0,0,0,4.573,5.34,1.036,1.036,0,0,0,.651.229h30.419l.117,0,.237-.008c.158-.01.315-.028.471-.047a5.928,5.928,0,0,0,1.8-.569,5.793,5.793,0,0,0,1.522-1.129,5.582,5.582,0,0,0,1.056-1.565,6.607,6.607,0,0,0,.547-1.756,6.106,6.106,0,0,0-.571-3.638,8.6,8.6,0,0,0-2.2-2.745,13.5,13.5,0,0,0-6.064-2.8h0l.792,1.34a17.448,17.448,0,0,0,1.024-7.15,13.343,13.343,0,0,0-.784-3.621,11.077,11.077,0,0,0-1.874-3.243,10.547,10.547,0,0,0-2.881-2.366,12.187,12.187,0,0,0-3.421-1.26,16.532,16.532,0,0,0-3.544-.35,24.135,24.135,0,0,0-3.488.318.39.39,0,0,0,.076.775h.01a27.5,27.5,0,0,1,3.359.041,17.207,17.207,0,0,1,3.236.594,9.845,9.845,0,0,1,5.173,3.431,9.108,9.108,0,0,1,1.4,2.747,12.352,12.352,0,0,1,.557,3.083,19.425,19.425,0,0,1-.817,6.363l-.007.023a1.05,1.05,0,0,0,.721,1.3c.025.007.052.014.077.019h0a11.446,11.446,0,0,1,5.116,2.349,6.554,6.554,0,0,1,1.671,2.067,4.012,4.012,0,0,1,.388,2.409,4.552,4.552,0,0,1-.379,1.2,3.483,3.483,0,0,1-.672,1,3.7,3.7,0,0,1-.964.715,3.836,3.836,0,0,1-1.152.364c-.1.011-.2.023-.3.03l-.152,0-.077,0h-30.419l.651.229a17,17,0,0,1-4.069-4.749,6.909,6.909,0,0,1-.37-.692c-.115-.235-.238-.466-.345-.7-.192-.487-.416-.962-.565-1.466a16.363,16.363,0,0,1-.726-3.06,16.612,16.612,0,0,1-.166-3.144c0-.263.028-.523.049-.783s.05-.52.086-.777.078-.518.128-.781.091-.527.152-.786a23,23,0,0,1,.892-3.06,21.4,21.4,0,0,1,1.333-2.9,38.288,38.288,0,0,1,3.69-5.352c1.37-1.733,2.8-3.479,4.1-5.346a38.675,38.675,0,0,0,3.442-5.93,39.825,39.825,0,0,0,2.3-6.461,1.039,1.039,0,0,0-2.009-.528Z" transform="translate(-2064.044 -2376.827)"/></g><g transform="translate(19.274 135.634)"><path class="e" d="M2397.465,3193.7c5.7,7.321,23.963,6.038,21.286-8.557l-4.853,2.131c-3.338-7.314-13.316-8.424-16.888-2.685A8.017,8.017,0,0,0,2397.465,3193.7Z" transform="translate(-2395.805 -3180.93)"/></g><g class="d" transform="translate(19.624 135.633)"><path class="a" d="M2395.805,3186.468c3.892-5.007,13.238-3.708,16.445,3.321l4.854-2.13a12.538,12.538,0,0,1-.252,6.214c1.532-2.075,2.243-4.962,1.55-8.74l-4.853,2.132c-3.337-7.315-13.316-8.424-16.889-2.685A7.887,7.887,0,0,0,2395.805,3186.468Z" transform="translate(-2395.805 -3180.924)"/></g><g class="b" transform="translate(19.275 136.495)"><path class="e" d="M2428.89,3209.422c4.285,5.5,15.666,6.144,19.92-.073-5.224,2.921-13.288,1.644-16.738-2.791a8.009,8.009,0,0,1-.5-9.042,7.443,7.443,0,0,0-3.142,2.794A8.02,8.02,0,0,0,2428.89,3209.422Z" transform="translate(-2427.23 -3197.516)"/></g><g transform="translate(18.233 134.594)"><path class="e" d="M2388.844,3180.13a14.816,14.816,0,0,0,6.038-1.234c4.926-2.209,7.12-6.917,6.019-12.919a1.039,1.039,0,0,0-1.439-.764l-3.956,1.738a11.846,11.846,0,0,0-9.564-6.01,9.247,9.247,0,0,0-8.685,4.122,9.041,9.041,0,0,0,.518,10.3h0C2380.145,3178.4,2384.494,3180.13,2388.844,3180.13Zm10.2-12.464c.421,4.4-1.329,7.684-5.01,9.335-4.876,2.186-11.707.823-14.619-2.917h0a6.96,6.96,0,0,1-.394-7.924,7.209,7.209,0,0,1,6.789-3.146,9.793,9.793,0,0,1,8.273,5.714,1.039,1.039,0,0,0,1.363.52Z" transform="translate(-2375.894 -3160.916)"/></g><g transform="translate(32.77 140.85)"><path class="g" d="M2476.311,3281.689l-3.837,3.884a.392.392,0,0,0,.485.609l4.646-2.867a1.046,1.046,0,0,0-1.1-1.781A1.1,1.1,0,0,0,2476.311,3281.689Z" transform="translate(-2472.36 -3281.378)"/></g><g transform="translate(0 125.177)"><path class="e" d="M2833.4,3002.152a1.039,1.039,0,0,0,.035-2.077c-8.83-.3-15.044-2.668-17.05-6.49a6.022,6.022,0,0,1,.479-6.243c2.4-3.749,7.765-5.971,13.648-5.657a1.039,1.039,0,0,0,.11-2.074c-6.622-.349-12.707,2.244-15.507,6.61a8.119,8.119,0,0,0-.57,8.329c1.388,2.646,5.678,7.151,18.818,7.6Z" transform="translate(-2813.652 -2979.579)"/></g><g transform="translate(7.483 131.219)"><path class="e" d="M2825.922,3106.542a1.039,1.039,0,0,0,0-2.077c-6.273,0-9.286-1.389-10.014-2.689a1.242,1.242,0,0,1,.065-1.348c.782-1.277,3.455-2.578,7.485-2.423a1.039,1.039,0,1,0,.081-2.076c-4.294-.168-7.964,1.173-9.337,3.414a3.288,3.288,0,0,0-.107,3.448C2815.45,3105.211,2819.65,3106.542,2825.922,3106.542Z" transform="translate(-2813.658 -3095.916)"/></g><g class="b" transform="translate(59.158 25.666)"><path class="e" d="M1055.316,1127.761q-.814-.109-1.6-.234c31.786,12.381,54.806-7.4,46.785-32.324,1.67.286,3.225-.6,4.08-3.152l-8.416-15.4a13.958,13.958,0,0,0-2.246,5.944,70.885,70.885,0,0,0-13.129-13.456,25.327,25.327,0,0,0-22.441-4.807c-4.934,1.345-6.915,3.5-6.915,3.5a66.426,66.426,0,0,1,7.616-1.407,14.491,14.491,0,0,1,8.12,1.311C1108.673,1087.7,1106.385,1132.347,1055.316,1127.761Z" transform="translate(-1051.429 -1063.473)"/></g><g class="b" transform="translate(36.658 8.115)"><path class="i" d="M1906.88,736.679l4.762,3.612c7.624-10,26.458-13.347,26.458-13.347l-3.83-1.428c-11.88.049-20.493,4.9-27.388,11.158Z" transform="translate(-1906.88 -725.516)"/></g><g class="b" transform="translate(10.491 33.056)"><path class="e" d="M2023.167,1221.658c-7.4,6.855-8.3,17.156-6.512,28.888a17.325,17.325,0,0,1,6.318-8.135c-8.7,24.625,26.616,23.845,42.975,44.229,5.427-15.468-10.631-19.016-10.631-19.016-15-4.388-22.672-12.578-22.672-12.578-7.728-8.481-4.913-21.812-4.913-21.812l-5.624,3.55c2.6-14.022,8.914-20.254,8.914-20.254l-6.146,1.124c4.588-3.116,7.769-9.25,7.769-9.25l-3.422-2.638c-4.794,6.014-9.039,11.272-13.911,13.23C2015.312,1219,2018.753,1222.761,2023.167,1221.658Z" transform="translate(-2015.312 -1205.766)"/></g><g class="b" transform="translate(71.404 107.264)"><path class="g" d="M1423.38,2637.45l3.62,20.459s5.152,3.672,5.385,7.829a4.214,4.214,0,0,0,.525,1.5l0,0a.021.021,0,0,0,0,.008,4.261,4.261,0,0,0,3.687,2.124h5.9a4.5,4.5,0,0,0,2.117-.521c.118-.063.232-.128.342-.2a3.105,3.105,0,0,0-.376.078c-4.479,1.179-5.635-2.984-5.972-4.944a5.025,5.025,0,0,0-1.907-2.742,3.572,3.572,0,0,1-1.258-2.063l-3.469-17.343-1.766,3.074c-5.6-.32-1.615-10.054-1.615-10.054l-4.757,1.285Z" transform="translate(-1423.38 -2634.666)"/></g><g class="b" transform="translate(49.343 110.801)"><path class="e" d="M1875.507,2704.975l1.779,7.489,9.53,18.543a5.119,5.119,0,0,0,4.633,2.939h3.872a5.89,5.89,0,0,0,.171-.639c1.148-5.313-3.557-6.372-3.557-6.372-4.578-3.981-9.1-17.657-11.389-21.986s-4.817-.865-4.817-.865Z" transform="translate(-1875.507 -2702.773)"/></g><g class="b" transform="translate(10.078 126.214)"><path class="e" d="M2880.818,3007a12.488,12.488,0,0,1,6.757-1.389l-.408-6.024a20.249,20.249,0,0,0-6.837.761S2883.612,3003.629,2880.818,3007Z" transform="translate(-2880.33 -2999.559)"/></g><g class="b" transform="translate(1.035 131.195)"><path class="e" d="M2846.039,3110.994l-.348-5.918a33.193,33.193,0,0,1-4.23-.247h-.005c-6.751.948-13.905-1.553-12.28-9.364C2824.05,3101.363,2827.208,3110.459,2846.039,3110.994Z" transform="translate(-2826.98 -3095.466)"/></g><g transform="translate(75.578 48.945)"><g transform="translate(0.693 2.956)"><ellipse class="g" cx="5.467" cy="7.181" rx="5.467" ry="7.181" transform="matrix(-0.996, -0.089, 0.089, -0.996, 10.89, 15.278)"/></g><g transform="translate(9.429 3.104)"><g transform="translate(0)"><path class="a" d="M1470.368,1574.678c.575-.035,1.211.237,1.689-.167.557-.47.438-1.459.16-2.153a7.049,7.049,0,0,0-.426-.888,8.466,8.466,0,0,1,2.426,6.177,9.117,9.117,0,0,1-3.872,7.677c.042-.039.084-.08.125-.121a8.053,8.053,0,0,0,2.345-5.044,1.763,1.763,0,0,0-.437-1.508c-.541-.4-1.265.088-1.923.172a1.848,1.848,0,0,1-1.872-1.9A2.2,2.2,0,0,1,1470.368,1574.678Z" transform="translate(-1468.583 -1571.47)"/></g></g><g transform="translate(0)"><path class="g" d="M1443.118,1513.422q-.169,0-.34.01c-3.705.23-6.714,4.093-6.719,8.63-.006,4.4,2.808,7.809,6.353,7.809.114,0,.229,0,.345-.011a5.955,5.955,0,0,0,2.847-.953,9.117,9.117,0,0,0,3.872-7.677,8.465,8.465,0,0,0-2.426-6.177,5.651,5.651,0,0,0-3.932-1.632m0-1.712a7.4,7.4,0,0,1,5.115,2.107,10.183,10.183,0,0,1,2.955,7.417,10.764,10.764,0,0,1-4.667,9.121,7.611,7.611,0,0,1-3.658,1.216c-.15.009-.3.014-.451.014a7.419,7.419,0,0,1-5.258-2.247,10.277,10.277,0,0,1-2.807-7.277,11.407,11.407,0,0,1,2.333-6.979,8.268,8.268,0,0,1,5.992-3.357c.149-.009.3-.014.446-.014Z" transform="translate(-1434.347 -1511.71)"/></g></g><g transform="translate(43.239 43.187)"><g transform="translate(1.715 1.712)"><path class="c" d="M2098.857,1433.951a5.625,5.625,0,0,0-4.481.892,8.468,8.468,0,0,0-3.416,5.69,9.118,9.118,0,0,0,2.547,8.213,5.959,5.959,0,0,0,2.65,1.411c3.616.84,7.152-2.107,7.9-6.582S2102.473,1434.791,2098.857,1433.951Z" transform="translate(-2090.821 -1433.809)"/></g><g transform="translate(3.907 3.296)"><ellipse class="g" cx="5.467" cy="7.181" rx="5.467" ry="7.181" transform="translate(10.901 15.163) rotate(-175.573)"/></g><g transform="translate(1.819 2.52)"><path class="a" d="M2238.012,1452.753c-.561-.13-1.233.033-1.638-.445-.471-.556-.19-1.511.2-2.15a7.018,7.018,0,0,1,.567-.805,8.465,8.465,0,0,0-3.415,5.69,9.117,9.117,0,0,0,2.547,8.213c-.035-.045-.07-.093-.1-.14a8.053,8.053,0,0,1-1.477-5.362,1.764,1.764,0,0,1,.68-1.415c.6-.307,1.233.3,1.868.488a1.848,1.848,0,0,0,2.161-1.567A2.2,2.2,0,0,0,2238.012,1452.753Z" transform="translate(-2233.585 -1449.353)"/></g><g transform="translate(0)"><path class="g" d="M2066.353,1402.549a5.762,5.762,0,0,0-3.245,1.034,8.466,8.466,0,0,0-3.416,5.69,9.117,9.117,0,0,0,2.547,8.213,5.959,5.959,0,0,0,2.65,1.411,5.463,5.463,0,0,0,1.239.143c3.153,0,6-2.763,6.658-6.724.747-4.475-1.581-8.783-5.2-9.623a5.482,5.482,0,0,0-1.237-.142m0-1.712h0a7.215,7.215,0,0,1,1.622.186,8.268,8.268,0,0,1,5.355,4.3,11.408,11.408,0,0,1,1.145,7.27c-.787,4.725-4.3,8.155-8.347,8.155a7.2,7.2,0,0,1-1.627-.187,7.613,7.613,0,0,1-3.41-1.809,10.762,10.762,0,0,1-3.087-9.764,10.185,10.185,0,0,1,4.146-6.828,7.48,7.48,0,0,1,4.2-1.327Z" transform="translate(-2057.839 -1400.837)"/></g></g></g></g></svg>