<svg xmlns="http://www.w3.org/2000/svg" width="294" height="278" viewBox="0 0 294 278"><defs><style>.a{fill:#fff;}.b{fill:#265359;}.c{fill:#d4b2b1;}</style></defs><g transform="translate(-1611 -175)"><rect class="a" width="294" height="278" transform="translate(1611 175)"/><g transform="translate(1837.867 241.953)"><path class="b" d="M-16.671,124.926a157.637,157.637,0,0,1-40.773-25.19c-16.059-13.5-29.264-29.264-38.745-48.07-2.794-5.541-5.887-10.93-9.662-17.906-18.663,42.369-47.468,73.718-90.279,91.844,1.38-1.618,2.452-2.945,3.59-4.208,29.528-32.759,57.615-66.629,81.248-104.015,2.8-4.438,3.854-8.175.8-12.629a6.8,6.8,0,0,1-1.2-2.842,32.859,32.859,0,0,1,.013-4.52A19.2,19.2,0,0,1-108.429.566a59.938,59.938,0,0,1,3.071,6.31l6.778-10.83,1.812.48c-.216,1.44.082,3.361-.74,4.243-7.283,7.854-4.053,14.481,1.038,22.179C-73.638,57.5-47.5,89.387-19.833,120.1c1.263,1.4,2.392,2.915,3.581,4.377Z" transform="translate(25.724 0)"/><path class="c" d="M-172.391,106.929c-.887-33.265-1.76-65.928-2.63-98.592l.869-.26c.965,1.9,1.912,3.819,2.9,5.709A145.36,145.36,0,0,0-123.414,67.3c10.8,7.353,18.7,16.531,23.806,29.389l-24.286-5.822-.411-7.206c-.173,7.565-6.094,8.555-11.44,10.411-10.264,3.555-20.449,7.344-30.678,11.007C-168.157,105.7-169.943,106.176-172.391,106.929Z" transform="translate(95.915 40.008)"/><path class="c" d="M-129.956,106.8c-12.742-5.2-24.8-9.831-36.526-15.177-2.132-.973-2.92-4.887-4.654-8.04,1.06,9.208-5.009,10.1-11.5,10.61-3.054.238-6.09.731-9.71,1.185,3.6-9.1,6.228-17.664,14.857-23.325,17.889-11.734,33.477-26.141,45.44-44.065,4.087-6.12,7.556-12.655,11.907-20.017C-123.455,41.279-126.66,73.579-129.956,106.8Z" transform="translate(38.293 39.639)"/><path class="b" d="M-154.218,25.739q14.507,8.849,29.009,17.69a4.851,4.851,0,0,0,1.808.943c3.919.342,3.919.3,2.041,4.342-1.674-1.22-3.361-2.535-5.125-3.72q-14.059-9.427-28.152-18.8Z" transform="translate(163.691 98.733)"/><path class="b" d="M-202.256,44.4a24.664,24.664,0,0,1-1.5-3.127,3.006,3.006,0,0,1,.2-2.137c.134-.264,1.129-.1,1.734-.112,1.393-.026,3.028.433,4.131-.143,7.366-3.845,14.619-7.906,21.907-11.9l.692,1.168Z" transform="translate(0 102.866)"/></g></g></svg>