<svg xmlns="http://www.w3.org/2000/svg" width="294" height="278" viewBox="0 0 294 278"><defs><style>.a{fill:#fff;}.b{fill:#265359;}.c{fill:#d4b2b1;}</style></defs><g transform="translate(-977 -175)"><rect class="a" width="294" height="278" transform="translate(977 175)"/><path class="b" d="M21.238,83.646c.318-6.333-7.614-13.715-7.614-13.715s16.845-1.223,28.764,1.435c10.334,2.3,19.21,7.6,27.767,13.551A26.627,26.627,0,0,0,77.972,88.9c-7.734-8.066-15.656-15.964-23.12-24.271A67.637,67.637,0,0,1,44.84,50.745C32.617,27,20.78,3.056,8.809-20.821c-.857-1.7-1.71-3.414-3.174-6.333C.092-17.893-5.566-9.672-9.958-.826c-6.829,13.734-12.7,27.936-19.171,41.853-2.74,5.9-1.6,8.312,4.763,9.246a9.262,9.262,0,0,1,4.353,2.032c3.872,3.255,7.479,6.809,11.326,10.089,4.334,3.689,9.655,6.549,13.07,10.927C13.581,85.1,24.57,94.26,38.247,100.26c3.068,1.344,5.967,3.053,8.948,4.594l-.756,1.724c-11.129-4.459-22.976-7.7-33.223-13.681-14.529-8.48-28.976-16.547-45.585-20-3.2-.665-4.979-2.191-5.278-5.687-.472-5.538-3.255-9.8-7.031-14.014-3.034-3.381-4.267-8.379-6.588-13.272-2.34,3.053-4.585,6.313-7.175,9.265-2.88,3.275-6.251,6.121-9.078,9.439-2.3,2.692-4.113,5.793-6.665,9.472l-5.533-8.7C-69.4,50.842-59.372,42.563-49.384,34.232c2.4-2,4.613-3.135,7.512-.65,3.26,2.788,5.365,0,7.05-2.206C-27.15,21.307-19.888,11.16-14.836-.768-9.655-13-2.113-24.22,4.4-35.884l2.336.125C14.645-24.066,24.31-13.173,30.1-.513c12.94,28.3,32.024,51.484,54.933,71.758,7.4,6.545,17.048,10.469,24.9,16.571,11.119,8.635,21.531,18.174,33.459,28.369-21.045,1.372-40.129,3.019-58.8-3.222a16.755,16.755,0,0,0-3.381-.713c-7.676-.92-13.965-3.631-18.9-10.315C52.453,88.568,37.3,85.837,21.238,83.646Z" transform="translate(1091.719 272.884)"/><path class="c" d="M-27.222,21.92c.154-3.062,11.111,9.511,12.552,10.256l-.366.834c-5.382-2.156-11.111-3.724-16.067-6.616-7.026-4.1-14.2-5.908-22.045-9.674s-6.425-8.227-6.425-8.227S-47.11-13.134-44.667-18.9c2.506-5.913,6.153-11.341,9.3-16.982l1.129.061c3.826,5.654,8.5,10.922,11.3,17.045,6.258,13.684,25.27,54.6,24.718,54.532C-1.931,35.308-4.973,34-7.357,30.764-12.127,24.3-19.453,22.979-27.222,21.92Z" transform="translate(1132.237 301.546)"/></g></svg>