<svg xmlns="http://www.w3.org/2000/svg" width="294" height="278" viewBox="0 0 294 278"><defs><style>.a{fill:#fff;}.b,.e{fill:#363636;}.c{fill:#44264f;}.c,.g,.j,.o{opacity:0.36;}.c,.e,.g,.j,.o{mix-blend-mode:multiply;isolation:isolate;}.d,.o{fill:#3e4e6c;}.f{fill:#265359;}.g{fill:#44a9be;}.h,.j{fill:#ffc9af;}.i,.k,.l,.m,.n{fill:none;stroke-miterlimit:10;}.i{stroke:#f96e72;stroke-linecap:round;stroke-width:0.241px;}.k{stroke:#44264f;stroke-width:0.595px;}.l{stroke:#452432;}.l,.m{stroke-width:0.397px;}.m{stroke:#363636;}.n{stroke:#fff;stroke-width:0.882px;}</style></defs><g transform="translate(-1294 -791)"><rect class="a" width="294" height="278" transform="translate(1294 791)"/><g transform="translate(1166.004 576.499)"><ellipse class="b" cx="11.975" cy="8.742" rx="11.975" ry="8.742" transform="translate(262.979 270.501)"/><path class="c" d="M269.764,280.456c-1.38,3.508-5.695,6.107-10.874,6.3-.2.011-.407.011-.616.011s-.42,0-.617-.011c-5.19-.189-9.506-2.788-10.887-6.3,1.43-2.061,6.041-3.56,11.5-3.56S268.336,278.4,269.764,280.456Z" transform="translate(16.684 1.222)"/><path class="d" d="M344.354,392.325c-5.574-7.111-32.832-8.052-37.669-11.482h-62.94c-4.851,3.43-32.109,4.371-37.683,11.482-4.379,5.61-1.049,13.479,2.975,18,6.744,7.573,66.02-4.175,66.171-4.214.15.039,56.728,14.122,66.185,4.214C345.591,405.923,348.747,397.935,344.354,392.325Z" transform="translate(0 21.082)"/><path class="e" d="M344.354,392.325c-5.574-7.111-32.832-8.052-37.669-11.482h-62.94c-4.851,3.43-32.109,4.371-37.683,11.482-4.379,5.61-1.049,13.479,2.975,18,6.744,7.573,66.02-4.175,66.171-4.214.15.039,56.728,14.122,66.185,4.214C345.591,405.923,348.747,397.935,344.354,392.325Z" transform="translate(0 21.082)"/><path class="f" d="M264.578,398.029c-20.32,0-31.492-4.692-31.492-4.692s5.026-6.105,5.614-10.154c2.1-14.467-9.116-58.172-7.2-61.165s23.6-6.576,23.6-6.576h19s21.642,3.582,23.558,6.576-9.3,46.7-7.2,61.165c.588,4.048,5.614,10.154,5.614,10.154S284.9,398.029,264.578,398.029Z" transform="translate(10.641 8.586)"/><path class="g" d="M284.494,351.307s-6.851,1.783-10.777,1.765c-7.566-.033-12.008-6.22-12.071-6.305v-.007l0,0,0,0v.007c-.061.086-4.5,6.272-12.069,6.305-3.925.018-10.777-1.765-10.777-1.765s11.1,5.954,22.849.715C273.4,357.262,284.494,351.307,284.494,351.307Z" transform="translate(13.573 14.57)"/><g transform="translate(275.22 327.749)"><path class="h" d="M286.766,365.322c.117-.928-2.655-8.584-2.915-15.858,1.3-4.643-.488-9.677-1.4-10.842-2.394-3.405-2.98-13.645-.456-20.056,5.757.935,6.947,1.615,8.515,3.371,5.5,6.159,9.958,46.76,9.958,46.76.518,5.663-3.557,8.83-10.112,7.812-2.9-.451-29.47-6.878-31.3-7.081-1.521-.168-3.725-.833-3.82-1.909l.014-20.946c0-.924,2.3-2.071,2.516-.5.459,3.415.53,6.534,1.337,8.989.632,1.924,2.316,5.572,3.179,7.776C262.495,363.388,286.766,365.322,286.766,365.322Z" transform="translate(-255.235 -318.566)"/><path class="i" d="M277.919,357.822s3.464.438,4.758,2.816" transform="translate(-246.388 -311.066)"/></g><g transform="translate(229.947 327.749)"><path class="h" d="M236.411,365.322c-.117-.928,2.655-8.584,2.915-15.858-1.3-4.643.488-9.677,1.4-10.842,2.395-3.405,2.98-13.645.457-20.056-5.757.935-6.949,1.615-8.515,3.371-5.5,6.159-9.959,46.76-9.959,46.76-.517,5.663,3.558,8.83,10.112,7.812,2.9-.451,29.471-6.878,31.3-7.081,1.521-.168,3.724-.833,3.818-1.909l-.013-20.946c0-.924-2.3-2.071-2.516-.5-.459,3.415-.53,6.534-1.337,8.989-.634,1.924-2.316,5.572-3.179,7.776C260.682,363.388,236.411,365.322,236.411,365.322Z" transform="translate(-222.665 -318.566)"/><path class="i" d="M233.889,357.822s-3.464.438-4.758,2.816" transform="translate(-220.144 -311.066)"/></g><path class="h" d="M274.3,317.807s.07,13.912-15.194,13.912c-16.071,0-15.228-13.682-15.228-13.682,1.757-.385,3.223-.886,4.8-1.164,2.576-.451,1.216-8.948,1.216-8.948h19.542s-1.307,8.315,1.216,8.948C271.315,317.04,272.847,317.425,274.3,317.807Z" transform="translate(15.554 7.15)"/><path class="j" d="M267.742,307.925a32.3,32.3,0,0,0-.334,4.193c-3.823,2.716-6.839,3.43-9.438,3.43a15.448,15.448,0,0,1-9.41-3.252,34.275,34.275,0,0,0-.347-4.371Z" transform="translate(17.245 7.15)"/><path class="h" d="M274,304.045c0,8.173-10.568,13.752-14.672,13.752-4.448,0-14.671-5.579-14.671-13.752,0-14.882,0-17.3,14.671-17.3S274,289.163,274,304.045Z" transform="translate(15.859 3.104)"/><g transform="translate(264.254 299.444)"><path class="k" d="M247.346,295.681a9.6,9.6,0,0,1,8.033,0" transform="translate(-247.346 -294.801)"/><path class="l" d="M254,297.885a5.359,5.359,0,0,1-5.873,0" transform="translate(-247.043 -294.212)"/><g transform="translate(13.835)"><path class="k" d="M265.33,295.681a9.6,9.6,0,0,0-8.031,0" transform="translate(-257.299 -294.801)"/><path class="l" d="M258.075,297.885a5.362,5.362,0,0,0,5.874,0" transform="translate(-256.996 -294.212)"/></g></g><path class="m" d="M255.2,301.018c.083,1.929,2.708,4.207,2.465,4.624s-2.617.783-2.617.783" transform="translate(19.91 5.83)"/><path class="n" d="M260.537,307.42a14.852,14.852,0,0,1-8.28,0" transform="translate(18.823 7.054)"/><path class="b" d="M260.108,290.319s-10.7-.3-12.017,2.223c-.721,1.378.788,3.9-1.39,5.637-2.041,1.629-.609,8.189-1.031,7.387-1.3-2.475-2.524-3.864-2.88-5.33-.87-3.587-1.433-11.982,1.14-15.362,4.085-5.368,13.511-6.089,16.178-6.089Z" transform="translate(14.846 1.583)"/><path class="b" d="M255.044,290.319s10.7-.3,12.017,2.223c.721,1.378-.788,3.9,1.39,5.637,2.04,1.629.609,8.189,1.031,7.387,1.3-2.475,2.524-3.864,2.88-5.33.87-3.587,1.119-11.821-1.14-15.362-3.581-5.613-14.029-6.089-16.178-6.089Z" transform="translate(19.91 1.583)"/><path class="g" d="M235.178,350.243a6.289,6.289,0,0,0,1.408,1.854l1.482.731c-4.4-6.968-1.818-16.761-1.7-17.388-2.477,1.494-3.458,9.087-1.622,13.838l.085-.98Z" transform="translate(11.623 12.407)"/><g transform="translate(205.251 405.234)"><g transform="translate(19.211)"><path class="h" d="M259.364,404.992l5.185-11.436c-4.59-.278-5.053-6.687-7.659-7.462-2.99-.889-5.561.555-8.952.349-8.529-.518-11.662-2.013-16.627-2.325a19.267,19.267,0,0,1-2.649-.487c-.719-.1-1.275.716-1.275.716a1.972,1.972,0,0,0-1.055-.136c-1.037.166-.915.9-.915.9a1.714,1.714,0,0,0-1.453.012c-1.043.493-.631,1.129-.631,1.129a1.872,1.872,0,0,0-1.6.422c-.873.654.345,1.663.345,1.663-1.433,0-5.681,2.768-1.7,3.845,7.612,2.058,11.79,5.127,24.064,7.315,9.077,1.616,11.865,3.941,14.92,5.5" transform="translate(-218.719 -383.622)"/><path class="j" d="M227.475,384.014a.326.326,0,0,1,.192.08.17.17,0,0,1-.007.216.6.6,0,0,1-.2.147,3.8,3.8,0,0,0-.6.344.527.527,0,0,1-.808.056c-.143-.085-.513-.145-.489-.316.019-.142.4-.3.528-.354A2.466,2.466,0,0,1,227.475,384.014Z" transform="translate(-216.052 -383.553)"/><path class="j" d="M224.58,385.009a2.964,2.964,0,0,0,.716-.363.609.609,0,0,1,.22-.107.579.579,0,0,1,.217.014,2.335,2.335,0,0,1,.731.291.357.357,0,0,1,.172.182,1.858,1.858,0,0,0-1.177.513.266.266,0,0,1-.246.107,2.235,2.235,0,0,1-.778-.152,1.468,1.468,0,0,1-.644-.411A2.1,2.1,0,0,0,224.58,385.009Z" transform="translate(-216.741 -383.448)"/><path class="j" d="M223.42,386.12a1.741,1.741,0,0,0,.549-.207.609.609,0,0,0,.3-.431.18.18,0,0,1,.032-.113c.051-.057.157-.034.236-.007l.945.332a.437.437,0,0,1,.156.079.11.11,0,0,1,.028.144.234.234,0,0,1-.132.066,1.954,1.954,0,0,0-1.04.654.837.837,0,0,1-.179.191.625.625,0,0,1-.585,0,4.1,4.1,0,0,1-.487-.328,1.885,1.885,0,0,0-.613-.257.907.907,0,0,1-.178-.05c.04-.073.343.007.439,0A2.44,2.44,0,0,0,223.42,386.12Z" transform="translate(-217.262 -383.295)"/><path class="j" d="M222.074,387.759a1.194,1.194,0,0,0,.36-.268,1.121,1.121,0,0,0,.392-.828c-.007-.082-.024-.179.047-.235a.245.245,0,0,1,.171-.037c.3.024.5.257.737.417a1.561,1.561,0,0,0,.644.25c.094.016.217.044.221.126,0,.049-.043.09-.085.124a4.628,4.628,0,0,0-.678.609,1.154,1.154,0,0,0-.31.783,1.311,1.311,0,0,0,.139.472.133.133,0,0,1,.019.09c-.011.043-.064.069-.114.082a1.269,1.269,0,0,1-.363.03,2.443,2.443,0,0,1-.66-.069.7.7,0,0,1-.471-.374,2.863,2.863,0,0,1-.056-.41.9.9,0,0,0-.491-.538c-.153-.085-.128-.117.053-.136A1.4,1.4,0,0,0,222.074,387.759Z" transform="translate(-217.644 -383.093)"/><g transform="translate(37.173 6.071)"><path class="b" d="M322.015,390.631c8.328,5.3,9,10.1,3.218,18.187s-55.286,3.322-70.505-2.552l-9.266-3.574s2.38-11.238,6.618-10.847C287.343,395.1,312.519,384.586,322.015,390.631Z" transform="translate(-245.462 -388.719)"/></g><path class="o" d="M309.124,391.282a30.983,30.983,0,0,0-7.687,2.7c-1.321.738-2.474,1.656-3.753,2.442a20.164,20.164,0,0,1-6.158,2.454c-4.6,1-9.633.488-13.956,2.18a33.915,33.915,0,0,0-4.253,2.227,66.351,66.351,0,0,1-11.787,5.264,61.737,61.737,0,0,1-8.076-2.346c-1.932-.738-3.475-1.346-4.712-1.822a8.483,8.483,0,0,1,1.543-1.322,38.816,38.816,0,0,1,8.271-4.121,145.208,145.208,0,0,1,27.7-7.742c4.559-.8,9.188-1.394,13.817-1.763q1.5-.125,3-.214h.014c1.015-.06,2.029-.119,3.03-.155C308.345,388.971,308.345,389.519,309.124,391.282Z" transform="translate(-207.01 -382.584)"/></g><g transform="translate(74.897)"><path class="h" d="M263.966,404.992l-5.185-11.436c4.59-.278,5.053-6.687,7.659-7.462,2.99-.889,5.561.555,8.952.349,8.529-.518,11.662-2.013,16.627-2.325a19.268,19.268,0,0,0,2.649-.487c.719-.1,1.275.716,1.275.716A1.972,1.972,0,0,1,297,384.21c1.037.166.915.9.915.9a1.714,1.714,0,0,1,1.453.012c1.042.493.631,1.129.631,1.129a1.872,1.872,0,0,1,1.6.422c.873.654-.345,1.663-.345,1.663,1.433,0,5.681,2.768,1.7,3.845-7.613,2.058-11.79,5.127-24.064,7.315-9.077,1.616-11.865,3.941-14.92,5.5" transform="translate(-258.781 -383.622)"/><path class="j" d="M283.6,384.014a.326.326,0,0,0-.192.08.17.17,0,0,0,.007.216.6.6,0,0,0,.2.147,3.8,3.8,0,0,1,.6.344.527.527,0,0,0,.808.056c.143-.085.513-.145.489-.316-.019-.142-.4-.3-.528-.354A2.466,2.466,0,0,0,283.6,384.014Z" transform="translate(-249.191 -383.553)"/><path class="j" d="M286.69,385.009a2.938,2.938,0,0,1-.716-.363.616.616,0,0,0-.221-.107.574.574,0,0,0-.215.014,2.336,2.336,0,0,0-.731.291.356.356,0,0,0-.172.182,1.862,1.862,0,0,1,1.177.513.266.266,0,0,0,.246.107,2.235,2.235,0,0,0,.778-.152,1.454,1.454,0,0,0,.642-.411A2.094,2.094,0,0,1,286.69,385.009Z" transform="translate(-248.698 -383.448)"/><path class="j" d="M287.957,386.12a1.741,1.741,0,0,1-.549-.207.609.609,0,0,1-.3-.431.18.18,0,0,0-.032-.113c-.051-.057-.157-.034-.236-.007l-.945.332a.436.436,0,0,0-.156.079.11.11,0,0,0-.028.144.234.234,0,0,0,.132.066,1.954,1.954,0,0,1,1.04.654.809.809,0,0,0,.179.191.625.625,0,0,0,.585,0,4.1,4.1,0,0,0,.486-.328,1.886,1.886,0,0,1,.613-.257.905.905,0,0,0,.178-.05c-.04-.073-.343.007-.441,0A2.439,2.439,0,0,1,287.957,386.12Z" transform="translate(-248.285 -383.295)"/><path class="j" d="M289.287,387.759a1.2,1.2,0,0,1-.36-.268,1.121,1.121,0,0,1-.392-.828c.007-.082.024-.179-.047-.235a.244.244,0,0,0-.171-.037c-.3.024-.5.257-.737.417a1.561,1.561,0,0,1-.644.25c-.095.016-.217.044-.221.126,0,.049.043.09.085.124a4.626,4.626,0,0,1,.678.609,1.154,1.154,0,0,1,.31.783,1.311,1.311,0,0,1-.139.472.133.133,0,0,0-.019.09c.011.043.064.069.114.082a1.269,1.269,0,0,0,.363.03,2.427,2.427,0,0,0,.659-.069.694.694,0,0,0,.473-.374,2.859,2.859,0,0,0,.056-.41.9.9,0,0,1,.491-.538c.153-.085.128-.117-.053-.136A1.4,1.4,0,0,1,289.287,387.759Z" transform="translate(-247.887 -383.093)"/></g><g transform="translate(0 6.071)"><path class="b" d="M211.9,390.631c-8.328,5.3-9,10.1-3.218,18.187s55.286,3.322,70.505-2.552l9.266-3.574s-2.38-11.238-6.618-10.847C246.572,395.1,221.4,384.586,211.9,390.631Z" transform="translate(-204.898 -388.719)"/></g></g><path class="g" d="M276.5,350.2l.323-1.9.106.974c1.836-4.751.855-12.343-1.622-13.836.117.628,2.694,10.421-1.7,17.388l1.482-.731a6.258,6.258,0,0,0,1.405-1.85" transform="translate(27.148 12.407)"/><path class="j" d="M255.228,342.08s.509-.083.625,1.722-.274,6.619-.313,8.273.956,4.614.781,6.369a29.207,29.207,0,0,1-1.084,4.582Z" transform="translate(19.982 13.676)"/><path class="j" d="M255.55,342.08s-.509-.083-.625,1.722.275,6.619.313,8.273-.956,4.614-.781,6.369a29.205,29.205,0,0,0,1.084,4.582Z" transform="translate(19.673 13.676)"/><g transform="translate(258.775 302.686)"><path class="h" d="M246.576,300.436c.072-1.935-2.239-3.888-3.005-2.373s1.3,9.332,2.592,8.124S246.516,302,246.576,300.436Z" transform="translate(-243.405 -297.523)"/><path class="h" d="M264.816,300.436c-.074-1.935,2.238-3.888,3-2.373s-1.3,9.332-2.591,8.124S264.874,302,264.816,300.436Z" transform="translate(-235.162 -297.523)"/></g></g></g></svg>