<svg xmlns="http://www.w3.org/2000/svg" width="294" height="278" viewBox="0 0 294 278"><defs><style>.a,.s{fill:#fff;}.b,.i{fill:#363636;}.c,.u{fill:#ffc9af;}.d{fill:#78d7e6;}.e,.g,.i,.j,.m,.t,.u{mix-blend-mode:multiply;}.e,.g,.i,.j,.m,.s,.t,.u{isolation:isolate;}.f{fill:#efcaa6;}.g,.k{fill:#f4d9bf;}.h{fill:#265359;}.j,.r,.s{opacity:0.5;}.l,.r{fill:#c39368;}.m,.p{fill:#c53623;}.n{fill:#461a00;}.o{fill:#f9cbc0;}.q{fill:#ef766c;}.s{mix-blend-mode:screen;}.t{fill:#8c8e90;opacity:0.4;}</style></defs><g transform="translate(-1611 -484)"><g transform="translate(317 -298)"><g transform="translate(-1482.034 -1651.915)"><rect class="a" width="294" height="278" transform="translate(2776.034 2433.915)"/></g></g><g transform="translate(1573.383 415.998)"><g transform="translate(116.617 130.002)"><g transform="translate(6.112 113.711)"><g transform="translate(0 13.431)"><path class="b" d="M124.575,193.321c2.253-3.766,8.455-7.577,10.942-9.006-1.488-.577-2.354-.632-4.974.636-3.031,1.48-11.15,7.283-11.577,13.725.427,3.59,3.9,4.257,6.314,1.1a20.992,20.992,0,0,1,3.523-3.915C126.04,196.276,122.845,196.219,124.575,193.321Z" transform="translate(-118.966 -183.923)"/><path class="c" d="M133.1,184.374c-.26-.1-.492-.2-.731-.274-2.487,1.429-8.689,5.24-10.942,9.006-1.73,2.9,1.465,2.956,4.228,2.545a9.477,9.477,0,0,1,7.529-1.873l2.362-8.311A23.163,23.163,0,0,0,133.1,184.374Z" transform="translate(-115.815 -183.709)"/></g><g transform="translate(1.128 19.945)"><path class="b" d="M124.97,197.819a36.1,36.1,0,0,1,3.752-8.8,5.372,5.372,0,0,1,2.081-2.1c-3.333-.334-4.646,1.248-7.131,5.68-2.734,4.875-6.98,14.964-1.9,15.291,3.385.21,5.687-3.676,7.139-6.93C126.591,202.449,124.31,201.2,124.97,197.819Z" transform="translate(-119.4 -186.872)"/><path class="c" d="M128.522,187.052c-.382-.071-.736-.117-1.077-.161a5.372,5.372,0,0,0-2.081,2.1,36.1,36.1,0,0,0-3.751,8.8c-.661,3.382,1.621,4.63,3.944,3.137.76-1.657,1.29-3.148,1.631-3.884,1.046-2.152,4.8-2,4.8-2l1.712-6.956S132.664,187.848,128.522,187.052Z" transform="translate(-116.042 -186.848)"/></g><path class="b" d="M137.458,186.461l-9.155-1.953-1.774,6.3,18.695-.148S143.791,189.05,137.458,186.461Z" transform="translate(-106.853 -169.784)"/><path class="b" d="M128.048,191.665l-2.292-.436,1.865-7.162,2.3.446Z" transform="translate(-108.091 -170.317)"/><g transform="translate(17.886)"><path class="d" d="M131.559,179.113c-1.709-.353-3.489-.767-5.357-1.27,0,0-1.519,3.166,1.67,7.9C131.713,184.638,131.728,180.746,131.559,179.113Z" transform="translate(-125.841 -177.843)"/><path class="b" d="M157.6,177.851s-8.793,4.995-27.187,1.253c.169,1.633.154,5.525-3.686,6.625,2.282,3.413,7.011,7.661,16.517,12.146-15.37.488-16.114.621-16.114.621l-.57,8.3s27.985.687,37.5-3.943c9.041.413,11.933-1.82,12.358-4.162C176.855,196.323,167.791,181.958,157.6,177.851Z" transform="translate(-124.693 -177.833)"/></g><path class="b" d="M0,0,9.913.124l.032,3.021L.032,3.021Z" transform="matrix(0.071, -0.997, 0.997, 0.071, 16.426, 29.706)"/><g transform="translate(36.206 6.985)"><path d="M135.1,181.039s1.483.868,3.606,2.269c1.046.722,2.289,1.533,3.562,2.483,1.254.928,2.6,1.946,3.895,3,.637.543,1.264,1.071,1.876,1.644.624.535,1.168,1.107,1.717,1.652a14.658,14.658,0,0,1,1.423,1.692,3.672,3.672,0,0,1,.539.857,3.435,3.435,0,0,1,.237.433,1.567,1.567,0,0,1,.159.422,2.748,2.748,0,0,1-.276,1.6,8.183,8.183,0,0,1-.679,1.071,6.238,6.238,0,0,1-.775.828,7.419,7.419,0,0,0,.674-.888,6.783,6.783,0,0,0,.544-1.082,2.613,2.613,0,0,0,.153-1.46,1.25,1.25,0,0,0-.153-.384c-.073-.128-.164-.276-.245-.391a5.326,5.326,0,0,0-.572-.8c-.414-.532-.931-1.045-1.449-1.593-.565-.521-1.113-1.089-1.735-1.615-.6-.541-1.228-1.06-1.886-1.608-1.264-1.043-2.581-2.088-3.817-3.04-1.241-.937-2.406-1.825-3.419-2.578C136.456,182.044,135.1,181.039,135.1,181.039Z" transform="translate(-129.336 -180.964)"/><path d="M139.253,181.005a3.552,3.552,0,0,1-.211.634,6.637,6.637,0,0,1-.65,1.3,7.626,7.626,0,0,1-.877,1.18,6.421,6.421,0,0,1-.523.484,6.733,6.733,0,0,1,.19-.647,7.906,7.906,0,0,1,.65-1.279,10.716,10.716,0,0,1,.892-1.175A6.892,6.892,0,0,1,139.253,181.005Z" transform="translate(-126.302 -181.005)"/><path d="M143.23,190.845c-.432-.049-.872-.126-1.288-.192-.237-.033-.458-.06-.671-.1l-.643-.155-.64-.157c-.206-.068-.427-.113-.63-.192l-1.264-.393c-.408-.128-.8-.3-1.207-.453-.4-.17-.809-.323-1.194-.512-.78-.345-1.545-.733-2.295-1.14l.445-.311a3.234,3.234,0,0,0,.221.389,3.805,3.805,0,0,0,.255.424,2.818,2.818,0,0,0,.291.4,2.483,2.483,0,0,0,.312.389l.333.389.356.356c.229.236.538.442.8.672a7.254,7.254,0,0,1-.955-.546l-.442-.32a3.894,3.894,0,0,1-.4-.34,4.828,4.828,0,0,1-.375-.36,2.735,2.735,0,0,1-.354-.411,4.1,4.1,0,0,1-.317-.429,2.223,2.223,0,0,1-.289-.415l-.4-.731.843.413c.359.172.741.376,1.132.546s.77.353,1.16.519.767.349,1.16.508c.393.128.775.325,1.2.477l1.184.448a5.944,5.944,0,0,0,.6.232l.6.2c.406.155.822.285,1.223.409C142.4,190.576,142.824,190.689,143.23,190.845Z" transform="translate(-132.883 -174.12)"/></g><path class="b" d="M128.585,192.015l-5.874-1.973-1.038,2.54s3.408.782,4.922,1.186C127.628,194.021,128.323,193.665,128.585,192.015Z" transform="translate(-114.631 -163.093)"/><g class="e" transform="translate(17.886)"><path class="b" d="M129.455,204.986l.317-5.627s11.671-1.617,14.5-.141a25.943,25.943,0,0,0,4.277,1.884l-1.574-1.708a25.824,25.824,0,0,0,8.359,1.838c-14.517-2.947-27.918-20.615-23.661-19.679,18.026,2.954,25.948-1.158,28.5-3.04-.468-.236-.944-.442-1.426-.654,0,0-8.793,4.995-27.187,1.253-1.709-.353-3.489-.767-5.357-1.27,0,0-1.519,3.166,1.67,7.9,2.282,3.413,7.011,7.661,16.517,12.146-15.37.488-16.114.621-16.114.621l-.57,8.3s21.666.528,33.368-2.494C138.584,207.73,129.455,204.986,129.455,204.986Z" transform="translate(-125.841 -177.843)"/></g><g class="e" transform="translate(43.42 5.98)"><path class="d" d="M152.858,196.354c-.952-3.879-11.993-11.649-11.993-11.649l1.251-4.155-3.309,3.349-3.151-1.61s5.044,3.623,7.732,5.889,8.975,7.076,7.316,9.437c-.523.756-1.012,1.458-1.428,2.068.07-.033.14-.066.211-.1a35.01,35.01,0,0,0,5.6-.15A3.409,3.409,0,0,1,152.858,196.354Z" transform="translate(-135.656 -180.55)"/></g></g><path class="f" d="M137.406,159.88s1.262.212,3.249,2.367c4.272,4.632,11.47,13.672,13.5,16.626,2.557,3.751,1.394,5.764-1.025,6.2-4.784.865-15.55-11.8-15.55-11.8Z" transform="translate(-83.32 -88.865)"/><path class="g" d="M142.8,170.167c.859,3.244.82,6.579,1.348,9.852a80.794,80.794,0,0,1-6.566-6.75l-.179-13.389a.08.08,0,0,1,.042.012C140.429,162.794,141.735,166.183,142.8,170.167Z" transform="translate(-83.32 -88.865)"/><g transform="translate(22.294 64.8)"><path class="c" d="M141.178,172.092c-5.828,1.906-8.507-8.547-9.707-11.266a19.047,19.047,0,0,1,2.193-.131,8.694,8.694,0,0,0-.252-3.43l6.689.951.083,2.919s1.132.276,1.454.316C142.015,161.812,147.723,169.931,141.178,172.092Z" transform="translate(-115.12 -157.265)"/><path class="g" d="M134.59,163.869a5.587,5.587,0,0,0,6.049,1.638c2.159-.844,2.367-3.123,1.839-5.348,1.244,2.688,2.136,6.555-2.092,7.948-4.306,1.412-6.9-3.91-8.421-7.891A28.436,28.436,0,0,0,134.59,163.869Z" transform="translate(-114.329 -153.28)"/><path class="g" d="M132.558,159.635a9.593,9.593,0,0,0-.341-2.37l6.689.951.083,2.843A12.908,12.908,0,0,1,132.558,159.635Z" transform="translate(-113.925 -157.265)"/><path class="h" d="M131.352,173.21c7.154-4.792,6.442-14.1,6.442-14.1s1.774-.214,3.744-.347c1.2,2.719,3,10.76,8.562,10.259,6.944-.623,1.982-9.272,1.605-9.633,1.3.209,4.735.9,6.379,3.026,2.042,2.641,6.559,20.557,7,43.264-4.717,3.339-24.507,7.088-39.893,1.345C128.56,184.909,129.929,174.172,131.352,173.21Z" transform="translate(-125.186 -155.202)"/><path class="i" d="M143.49,180.89c-6.892-3.658-10.451-9.95-13.523-16.388a11.409,11.409,0,0,1-1.077.806c-.661.447-1.316,3.078-2.167,7.991,1.863,2.534,4.03,4.882,6.03,7.352,2.724,3.337,6.088,7.52,10.976,8.129a49.432,49.432,0,0,0,18.367-1.631c-.1-1.6-.252-3.128-.4-4.642C155.4,183.529,149.034,183.843,143.49,180.89Z" transform="translate(-122.724 -147.301)"/><path class="i" d="M136.313,170.67c1.5.877,3.991,1.635,5.622.516a6.627,6.627,0,0,0,2.505-5.959,12.373,12.373,0,0,0-2.388-5.234c1.225,2.322,3.507,8.207-2.165,8.709-5.2.468-7.128-6.57-8.325-9.707C131.944,163.088,132.564,168.56,136.313,170.67Z" transform="translate(-114.974 -154.883)"/><path class="i" d="M139.962,171.388c.814,4.671,1.688,9.329,2.139,14.052.45,4.884.924,9.778,1.218,14.675.1,1.754.4,3.658.442,5.545a12.534,12.534,0,0,0,2.261-1.177c-.437-22.706-4.953-40.623-7-43.264a6,6,0,0,0-1.941-1.59C138.136,163.521,139.252,167.383,139.962,171.388Z" transform="translate(-106.129 -154.009)"/></g><path class="f" d="M164.872,172.766s-17.5,4.145-21.622,1.652.869-6,4.389-6.175c3.525-.195,23.282-1.177,23.282-1.177l-.107,4.756Z" transform="translate(-76.451 -78.971)"/><g transform="translate(61.477 60.129)"><g transform="translate(9.256 11.166)"><path class="b" d="M143.805,160.174a2.4,2.4,0,0,1,.2.311c.112.181.268.464.447.787.354.668.786,1.583,1.181,2.5s.747,1.844.986,2.569c.122.349.2.661.265.865a2.248,2.248,0,0,1,.086.314,1.547,1.547,0,0,1-.172-.285c-.107-.2-.291-.461-.46-.8-.341-.67-.767-1.581-1.168-2.5s-.744-1.859-.976-2.572c-.135-.354-.213-.651-.278-.86A3.352,3.352,0,0,0,143.805,160.174Z" transform="translate(-143.805 -159.756)"/><path class="b" d="M144.017,160.075s.091.114.237.288c.135.19.346.466.58.789.481.656,1.087,1.538,1.66,2.434.557.906,1.085,1.852,1.462,2.558.187.338.325.649.427.853s.153.349.153.349-.083-.112-.237-.3c-.148-.171-.362-.452-.6-.772-.484-.649-1.1-1.547-1.652-2.467-.557-.9-1.1-1.825-1.467-2.531-.177-.345-.315-.649-.408-.86A1.5,1.5,0,0,1,144.017,160.075Z" transform="translate(-143.465 -159.892)"/><path class="b" d="M144.089,160a3.787,3.787,0,0,1,.3.247c.172.171.442.4.749.715.6.6,1.358,1.417,2.1,2.27.739.832,1.462,1.69,1.949,2.363.263.349.45.625.606.822.135.2.211.33.211.33l-.284-.269c-.187-.185-.445-.421-.76-.715-.6-.6-1.371-1.417-2.115-2.251-.736-.858-1.423-1.709-1.938-2.394a8.228,8.228,0,0,1-.593-.822C144.175,160.1,144.089,160,144.089,160Z" transform="translate(-143.35 -159.998)"/><path class="b" d="M144.309,160.11l.3.174c.2.109.492.276.817.5.643.406,1.491.979,2.3,1.585.822.625,1.61,1.269,2.18,1.771.3.24.52.473.679.611.164.162.247.233.247.233s-.1-.045-.3-.147c-.2-.133-.481-.288-.791-.506-.666-.409-1.511-.991-2.339-1.607-.809-.6-1.592-1.25-2.167-1.742-.294-.259-.518-.487-.684-.63S144.309,160.11,144.309,160.11Z" transform="translate(-142.998 -159.844)"/><path class="b" d="M144.414,160.01s.1.048.325.14c.219.112.525.238.872.433.713.359,1.642.853,2.55,1.407s1.782,1.112,2.44,1.583c.317.226.565.428.752.556.193.154.3.228.3.228s-.125-.048-.336-.14-.52-.245-.877-.418c-.71-.364-1.655-.865-2.56-1.419s-1.769-1.138-2.417-1.578c-.336-.233-.583-.437-.765-.573S144.414,160.01,144.414,160.01Z" transform="translate(-142.83 -159.982)"/></g><path class="b" d="M146.484,161.731s-2.219.8-3.673,1.212c-1.47.4-.057,1.322,1.48,2.367,1.543,1.027,1.512-.1,2.68-2.874,2.929.143,3.689.045,3.751-.357s-1.1-3.563-1.78-3.487S146.484,161.731,146.484,161.731Z" transform="translate(-137.133 -150.767)"/><path class="b" d="M140.247,158.839s.255,1.329,3.132,1.771a2.591,2.591,0,0,0,2.1,3.77c-.981,1.058.78,3.228,3.8,2.115,1.61-.582.354-1.73.354-1.73s1.348-4.433-2.5-5.227a8.608,8.608,0,0,0-1.769-4.238A12.905,12.905,0,0,1,140.247,158.839Z" transform="translate(-140.247 -155.3)"/><g class="j" transform="translate(2.849 4.257)"><path class="b" d="M144.054,157.31a6.293,6.293,0,0,0-.708-.219,5.658,5.658,0,0,1-.7,2.919A3.615,3.615,0,0,0,144.054,157.31Z" transform="translate(-139.252 -157.091)"/><path class="b" d="M142.994,157.4a4.93,4.93,0,0,1-1.652.273c.091.021.182.036.284.05a4.246,4.246,0,0,0-.156.5C142.286,158.1,142.994,157.857,142.994,157.4Z" transform="translate(-141.342 -156.668)"/><path class="b" d="M143.371,160.359a3.027,3.027,0,0,0,1.681-.409,1.607,1.607,0,0,0-.414-.666A3.408,3.408,0,0,1,143.371,160.359Z" transform="translate(-138.092 -154.07)"/><path class="b" d="M141.956,159.138a2.281,2.281,0,0,0,.788.159.908.908,0,0,0-.258.758,5.8,5.8,0,0,0,2.765-1.065A10.406,10.406,0,0,1,141.956,159.138Z" transform="translate(-140.359 -154.475)"/></g></g><g transform="translate(5.353 58.237)"><g transform="translate(0 14.109)"><path class="b" d="M122.35,160.547s-.026.136-.081.395-.127.606-.187,1.032c-.14.884-.289,2.035-.377,3.2-.073,1.155-.125,2.315-.1,3.187,0,.456.029.815.036,1.072s.021.383.021.383.034-.133.091-.383c.042-.247.125-.606.2-1.044.133-.858.258-2.018.356-3.187.091-1.153.109-2.332.109-3.195,0-.449-.018-.81-.031-1.055C122.363,160.683,122.35,160.547,122.35,160.547Z" transform="translate(-113.991 -160.293)"/><path class="b" d="M123.027,160.509s-.052.128-.156.39c-.088.254-.221.625-.382,1.072-.26.877-.591,2.089-.877,3.282s-.536,2.413-.674,3.328c-.075.456-.107.851-.133,1.11s-.055.423-.055.423a4.083,4.083,0,0,0,.167-.4c.068-.247.216-.609.369-1.062.286-.887.611-2.089.905-3.273.281-1.207.5-2.42.645-3.349.083-.442.1-.825.151-1.105C123.017,160.642,123.027,160.509,123.027,160.509Z" transform="translate(-115.348 -160.345)"/><path class="b" d="M123.976,160.44a3.352,3.352,0,0,1-.226.39c-.112.245-.328.611-.546,1.032-.442.868-.989,2.042-1.514,3.225-.486,1.188-.944,2.389-1.254,3.3-.159.447-.265.832-.338,1.1-.1.276-.133.435-.133.435s.086-.14.229-.4c.127-.252.343-.6.567-1.02.442-.875,1-2.037,1.486-3.228.515-1.188.97-2.377,1.28-3.282.156-.466.258-.86.346-1.131C123.944,160.6,123.976,160.44,123.976,160.44Z" transform="translate(-116.608 -160.44)"/><path class="b" d="M124.674,160.647a3.339,3.339,0,0,0-.284.3c-.177.185-.419.452-.708.8-.575.67-1.29,1.607-1.982,2.546-.674.951-1.329,1.916-1.753,2.674a9.823,9.823,0,0,0-.531.917c-.122.228-.208.354-.208.354a2.078,2.078,0,0,0,.294-.3c.174-.185.445-.456.713-.794.578-.687,1.3-1.6,1.985-2.572.679-.939,1.314-1.918,1.772-2.643.216-.395.4-.727.515-.936A3.931,3.931,0,0,0,124.674,160.647Z" transform="translate(-117.819 -160.155)"/><path class="b" d="M125.136,160.565s-.112.107-.325.278c-.187.2-.5.442-.817.763-.653.627-1.493,1.509-2.31,2.417s-1.571,1.835-2.126,2.55c-.276.366-.481.668-.653.887-.146.2-.232.335-.232.335s.125-.088.338-.266c.193-.19.476-.43.817-.756.65-.635,1.509-1.507,2.3-2.42.807-.887,1.595-1.823,2.118-2.529.289-.378.5-.692.65-.9C125.063,160.693,125.136,160.565,125.136,160.565Z" transform="translate(-118.674 -160.268)"/></g><path class="b" d="M124.664,161.84s2.81.171,4.607.171.572,1.471-.752,3.111c-1.34,1.661-1.727.416-4.123-2.339-3.234,1.119-4.108,1.257-4.334.815s-.143-4.364.645-4.476C121.511,158.987,124.664,161.84,124.664,161.84Z" transform="translate(-116.636 -148.151)"/><path class="b" d="M130.54,156.826s.232,1.574-2.849,3c1.746,2.17.778,4.381-.892,4.937,1.517.853.377,3.867-3.445,3.577-2.027-.128-1.085-1.825-1.085-1.825s-3.221-4.537.812-6.672a9.93,9.93,0,0,1,.33-5.336A16.216,16.216,0,0,0,130.54,156.826Z" transform="translate(-114.866 -154.504)"/><g class="j" transform="translate(7.188 5.174)"><path class="b" d="M121.532,157.248a4.312,4.312,0,0,1,.708-.482,6.947,6.947,0,0,0,1.917,3.05C122.968,159.605,122.081,158.3,121.532,157.248Z" transform="translate(-121.285 -156.565)"/><path class="b" d="M122.966,156.912a5.967,5.967,0,0,0,1.959-.231c-.1.04-.187.1-.3.145.14.193.268.364.369.537C124.043,157.475,123.146,157.415,122.966,156.912Z" transform="translate(-118.988 -156.681)"/><path class="b" d="M123.521,160.364a3.7,3.7,0,0,1-2.081.074,1.856,1.856,0,0,1,.208-.872A4.305,4.305,0,0,0,123.521,160.364Z" transform="translate(-121.437 -152.71)"/><path class="b" d="M125.877,158.629a2.587,2.587,0,0,1-.809.452,1.234,1.234,0,0,1,.591.751,7,7,0,0,1-3.525-.3A11.745,11.745,0,0,0,125.877,158.629Z" transform="translate(-120.323 -153.999)"/></g></g><path class="k" d="M144.959,148.221s3.754-.673,3.754,2.954c0,3.556-3.832,4.911-3.832,4.911S142.086,148.492,144.959,148.221Z" transform="translate(-73.302 -104.986)"/><path class="c" d="M128.423,172.493s-1.657,3.047-5.211.818-3.562-9.146.229-9.736c3.767-.6,6.322,4.057,6.322,4.057s.554-3.653.765-7.516c7.68-3.96,15.667-14.19,18.123-22.015,10.656,6.1,27.335,10.484,33.259,9.721-2.755,6.7-.827,15-.827,15s.245,2.924.973,8.072c.749,5.155-4.173,11.554-15.836,14.575-12.03,2.581-21.463.668-31.908-6.5A38,38,0,0,1,128.423,172.493Z" transform="translate(-110.286 -118.85)"/><path class="b" d="M144.715,134.836c1.225-4.259,20.706-10.19,37.861,4.732,13.338,10.51,17.506,24.988,4.836,34.405,0,0-1.928-8.3.827-15-5.924.763-22.6-3.625-33.259-9.721-2.456,7.825-10.443,18.055-18.123,22.014-.211,3.862-.765,7.516-.765,7.516s-2.555-4.661-6.322-4.057c-3.79.589-3.79,7.5-.229,9.736s5.211-.818,5.211-.818a38,38,0,0,0,5.887,6.477c-1.707,2.232-17.3.772-22.444-15.488S120.161,133.6,144.715,134.836Z" transform="translate(-116.617 -130.002)"/><path class="b" d="M138.587,154.824a2.9,2.9,0,0,0,3.088-2.122c.2-.827-.622-1.286-1.418-1.053a3.619,3.619,0,0,0-1.361.7h0a1.632,1.632,0,0,1,.645-.647c-.252-.259-.705-.8-.7-.787.169.257.866.578.911.639a1.962,1.962,0,0,1,.752-.271,1.309,1.309,0,0,1,1.5.727,1.758,1.758,0,0,1-.541,2.2C139.437,155.584,138.472,154.809,138.587,154.824Z" transform="translate(-81.444 -101.207)"/><path class="l" d="M144.607,152.79s-1.332-1.861.1-3.049a1.405,1.405,0,0,1,2.263.231,1.378,1.378,0,0,0-1.988.582A2.422,2.422,0,0,0,144.607,152.79Z" transform="translate(-72.691 -103.478)"/><path class="l" d="M123.951,154.029s1.322-1.887-.1-3.078a1.423,1.423,0,0,0-2.279.235,1.394,1.394,0,0,1,1.985.585A2.473,2.473,0,0,1,123.951,154.029Z" transform="translate(-108.674 -101.805)"/><path class="m" d="M137.683,146.454s-.109-.254-.315-.682c-.232-.416-.523-1.043-.924-1.78-.408-.708-.869-1.559-1.423-2.462-.523-.868-1.111-1.8-1.733-2.722s-1.262-1.84-1.92-2.655c-.31-.435-.643-.808-.955-1.174s-.627-.711-.911-1.022a8.591,8.591,0,0,0-.819-.83,6.232,6.232,0,0,0-.669-.611c-.385-.3-.6-.48-.6-.48s.182.2.518.57c.325.352.773.915,1.27,1.559.526.654,1.082,1.431,1.668,2.284.315.409.617.856.924,1.3s.614.9.926,1.371c1.231,1.837,2.466,3.663,3.385,5.037.46.708.877,1.26,1.145,1.664S137.683,146.454,137.683,146.454Z" transform="translate(-99.319 -127.202)"/><g transform="translate(63.877 42.825)"><path class="n" d="M143.354,150.509c.021,1.4-.427,2.581-1.022,2.605-.622.036-1.124-1.072-1.16-2.479s.432-2.577,1.033-2.615S143.333,149.107,143.354,150.509Z" transform="translate(-141.17 -148.02)"/><path class="a" d="M141.932,149.1c-.026.442-.2.775-.382.775-.161-.012-.307-.364-.284-.794s.2-.768.385-.756S141.96,148.679,141.932,149.1Z" transform="translate(-141.02 -147.607)"/></g><g transform="translate(46.139 43.726)"><path class="n" d="M136.536,150.907c.029,1.393-.434,2.577-1.041,2.6s-1.108-1.082-1.142-2.489.424-2.565,1.038-2.615C135.995,148.375,136.51,149.514,136.536,150.907Z" transform="translate(-134.351 -148.399)"/><path class="a" d="M135.115,149.47c-.029.444-.2.772-.385.772s-.31-.364-.284-.772c.034-.435.208-.77.38-.77C135.018,148.707,135.135,149.054,135.115,149.47Z" transform="translate(-134.205 -147.984)"/></g><g transform="translate(39.155 32.755)"><path class="b" d="M146.055,147.52a3.978,3.978,0,0,0-.141-1.35,3.819,3.819,0,0,0-.229-.639,2.533,2.533,0,0,0-.453-.673,2,2,0,0,0-.767-.523,2.824,2.824,0,0,0-.487-.128,2.126,2.126,0,0,1-.289-.014l-.224.014a2.133,2.133,0,0,0-.481.107,1.683,1.683,0,0,0-.455.15,3.17,3.17,0,0,0-.747.482,4.818,4.818,0,0,0-.986,1.1,4.424,4.424,0,0,0-.622,1.229s.354-.43.931-1.015c.153-.145.3-.295.484-.452.172-.157.364-.3.565-.447a2.487,2.487,0,0,1,.323-.193c.114-.067.2-.1.338-.174a3.424,3.424,0,0,1,.349-.119,1.325,1.325,0,0,1,.359-.067l.211-.019c0,.017.1.017.159.019a2.21,2.21,0,0,1,.349.067,2.458,2.458,0,0,1,.567.347,2.915,2.915,0,0,1,.435.525,4.3,4.3,0,0,1,.31.544A9.858,9.858,0,0,1,146.055,147.52Z" transform="translate(-118.041 -143.221)"/><path class="b" d="M140.934,148.154a4.342,4.342,0,0,0-.083-.528,6.176,6.176,0,0,0-.45-1.362,4.647,4.647,0,0,0-.5-.844,3.461,3.461,0,0,0-.341-.428,1.9,1.9,0,0,0-.435-.411,3.786,3.786,0,0,0-1.124-.625,4.924,4.924,0,0,0-.687-.15,6.007,6.007,0,0,0-.7-.014,4.8,4.8,0,0,0-1.3.266,4.351,4.351,0,0,0-.583.261,5.536,5.536,0,0,0-.536.323,5.706,5.706,0,0,0-.885.723c-.258.259-.463.5-.656.727a7.535,7.535,0,0,0-.76,1.238,2.966,2.966,0,0,0-.229.5s.125-.183.33-.44a9.5,9.5,0,0,1,.963-1.072,8.877,8.877,0,0,1,.7-.632,10.328,10.328,0,0,1,.864-.618,5.975,5.975,0,0,1,1.03-.442,3.355,3.355,0,0,1,1.14-.231,4.045,4.045,0,0,1,.559.01c.185.014.372.069.539.093a3.388,3.388,0,0,1,.968.492,2.8,2.8,0,0,1,.4.316,3.81,3.81,0,0,1,.343.364,5.483,5.483,0,0,1,.541.753,9.168,9.168,0,0,1,.687,1.224C140.864,147.973,140.934,148.154,140.934,148.154Z" transform="translate(-131.667 -143.783)"/></g><path class="o" d="M132.075,151.706c-.075.742,1.473,1.5,3.465,1.669,1.972.155,3.64-.311,3.712-1.065.078-.732-1.454-1.512-3.447-1.68S132.147,150.932,132.075,151.706Z" transform="translate(-91.863 -101.643)"/><path class="o" d="M142.025,151.637c.12.561,1.415.787,2.87.48,1.441-.283,2.521-.97,2.386-1.512s-1.407-.775-2.87-.466C142.964,150.408,141.882,151.107,142.025,151.637Z" transform="translate(-75.943 -102.468)"/><g class="e" transform="translate(9.001 15.08)"><path class="p" d="M126.319,177.65c-7.014-.492-7.893-10.482-3.762-12.293,4.116-1.8,6.442-.159,6.442-.159s-.538-2.46-4.293-3.109c15.066-3.6,23.157-22.145,22.238-25.741,9.881,8.68,34.632,11.982,37.871,10.667-2.094,6.18-1.748,13.125-1.319,16.888-.518.463-1.046.9-1.626,1.336,0,0-1.928-8.3.827-15-5.924.763-22.6-3.625-33.259-9.721-2.456,7.825-10.443,18.055-18.123,22.014-.211,3.862-.765,7.516-.765,7.516s-2.555-4.661-6.322-4.057c-3.79.589-3.79,7.5-.229,9.736s5.211-.818,5.211-.818a38,38,0,0,0,5.887,6.477c-1.121,1.466-8.239,1.324-14.439-3.532C127.409,181.714,129.9,177.978,126.319,177.65Z" transform="translate(-120.076 -136.347)"/></g><path class="b" d="M153.229,155.2a14.021,14.021,0,0,1-7.937,6.116c-4.173,1.2-7.693.055-10.118-3.337a10.1,10.1,0,0,1-1.717-4.3C136.878,154.712,150.175,155.649,153.229,155.2Z" transform="translate(-89.645 -97.397)"/><path class="q" d="M141.384,157.153a12.555,12.555,0,0,1,2.656,3.054,8.482,8.482,0,0,1-9.254-3.542,9.847,9.847,0,0,1-1.087-2.011A10.93,10.93,0,0,1,141.384,157.153Z" transform="translate(-89.257 -96.083)"/><g transform="translate(91.842 80.799)"><path class="f" d="M156.547,177.563c-3.291-.107-4.425-2.9-4.62-4.953-.117-1.3,1.093-2.981,2.027-3.95,1.733-1.773,2.713-2.976,2.883-4.583,0,0,.8-.449,1.168.78.414,1.253-.166,2.541-1.108,4.072a17.269,17.269,0,0,1,6.918-2.284c3.387-.133,3.385,1.4,1.4,1.514a14.179,14.179,0,0,0-4.763,1.685,22.029,22.029,0,0,1,6.158-.428c2.352.359,1.886,1.766-.18,1.863a26.3,26.3,0,0,0-4.842.863s4.587-.01,5.968.613c1.371.663,1.114,2.115-1.92,1.892a20.453,20.453,0,0,0-3.51-.159s3.582,1.226,4.173,2.529c.588,1.286-.125,1.286-1.691.511a14.848,14.848,0,0,0-3.424-1.062,3.3,3.3,0,0,0-.479.266,12.013,12.013,0,0,1-1.324.544A8.222,8.222,0,0,1,156.547,177.563Z" transform="translate(-151.919 -163.996)"/><path class="r" d="M154.046,166.1c-.156.318.518,1.357.606,1.664a5.839,5.839,0,0,1,.4,1.916,3.742,3.742,0,0,1-1.283,2.992c-.01.036-.023-.024-.023-.024,1.246-1.528,1.043-3.256.442-4.975-.159-.459-.853-1.329-.232-1.711C154.046,165.913,154.077,166.048,154.046,166.1Z" transform="translate(-149.069 -161.302)"/><path class="r" d="M155,166.284a5.873,5.873,0,0,1,1.545,3.121c.187.9.445,2.256-.143,3.085-.021.012-.021-.017-.021-.017.882-1.818-.45-4.564-1.465-6.082C154.887,166.36,154.924,166.2,155,166.284Z" transform="translate(-147.135 -160.88)"/></g><g transform="translate(73.141 54.761)"><path class="h" d="M152.873,157.856c11.858,22.005,8.406,40.777,6.764,46.926a29.565,29.565,0,0,0,3.405.1,47.411,47.411,0,0,0,11.809-1.978,27.9,27.9,0,0,0,17.108-14.87c-.4-5.372-2.492-11.678-8.27-17.938C168.756,153.913,152.873,157.856,152.873,157.856Z" transform="translate(-131.69 -146.996)"/><path class="h" d="M165.266,159.247a15.641,15.641,0,0,0-11.195-2.722,27.161,27.161,0,0,0-8.343,13.056,30.039,30.039,0,0,0,2.17,20.935,20.6,20.6,0,0,0,2.367,3.817C149.365,186.548,148.852,166.977,165.266,159.247Z" transform="translate(-144.731 -148.434)"/><path class="c" d="M204.35,176.791a30.259,30.259,0,0,0-11.535-17.765.656.656,0,0,1-.114-.076c-7.774-3.335-18.591-5.013-29.237,2.947,0,0-.179-4.5,5.64-8.721a38.021,38.021,0,0,0-14.722,5.222,25.709,25.709,0,0,0-3.494,2.548,15.64,15.64,0,0,1,11.195,2.722c-16.413,7.73-15.9,27.3-15,35.087a32.658,32.658,0,0,0,14.27,10.049,30.135,30.135,0,0,0,8.143,1.837c1.642-6.149,5.094-24.921-6.764-46.926,0,0,15.883-3.943,30.816,12.238,5.778,6.261,7.872,12.566,8.27,17.938a33.63,33.63,0,0,0,1.675-4.015,26.217,26.217,0,0,0,.859-13.087Z" transform="translate(-141.547 -152.855)"/><path class="h" d="M153.155,162.084c10.646-7.96,21.463-6.282,29.237-2.947-6.842-5.2-15.342-6.874-23.6-5.773C152.976,157.585,153.155,162.084,153.155,162.084Z" transform="translate(-131.239 -153.042)"/><g transform="translate(5.076 16.548)"><path class="s" d="M154.492,160a2.132,2.132,0,0,0-.245.245,5.049,5.049,0,0,0-.6.687c-.237.3-.538.658-.848,1.112-.148.219-.3.475-.466.708-.151.295-.33.542-.494.825s-.325.594-.515.887c-.151.328-.3.658-.458.989-.375.673-.611,1.412-.96,2.163-.26.77-.6,1.545-.825,2.353s-.5,1.657-.671,2.531c-.2.8-.421,1.652-.562,2.5-.133.832-.32,1.647-.382,2.467-.081.8-.205,1.564-.25,2.306-.06.744-.128,1.436-.154,2.1-.114,1.281-.114,2.353-.135,3.123-.052.763-.06,1.2-.06,1.2s-.026-.435-.083-1.2c-.021-.38-.044-.839-.062-1.374-.023-.242-.029-.556-.044-.834,0-.283.016-.618.016-.915.005-.687.029-1.369.036-2.125s.112-1.538.2-2.356c.044-.813.2-1.654.333-2.5.112-.837.325-1.688.531-2.558a23.463,23.463,0,0,1,.734-2.493,24.423,24.423,0,0,1,.859-2.41c.351-.761.658-1.488,1.038-2.175.205-.307.364-.637.554-.97.172-.292.377-.578.546-.865.354-.561.757-1.058,1.1-1.5a12.707,12.707,0,0,1,.918-1.077A8.782,8.782,0,0,1,154.492,160Z" transform="translate(-146.682 -160.004)"/></g><g transform="translate(24.424 17.48)"><path class="s" d="M154.119,160.4s.263.551.705,1.526c.2.5.455,1.108.71,1.792.271.7.588,1.488.856,2.353.3.865.58,1.821.874,2.828s.572,2.065.827,3.152c.216,1.141.5,2.279.7,3.489.193,1.167.4,2.37.51,3.575.068.594.125,1.207.213,1.787.034.642.06,1.207.1,1.814.107,1.191.094,2.374.094,3.5a14.123,14.123,0,0,1-.023,1.666c-.018.551-.065,1.077-.094,1.614-.039.5-.073,1.032-.094,1.521-.075.49-.128.955-.193,1.4-.112.882-.224,1.733-.349,2.451-.141.72-.3,1.371-.385,1.878-.242,1.043-.377,1.642-.377,1.642s.086-.627.232-1.65c.1-.523.2-1.177.286-1.906.1-.72.127-1.559.229-2.429.047-.475.086-.941.135-1.4.005-.511.021-1.02.036-1.533.031-1.034.081-2.111.031-3.252-.016-1.12-.031-2.308-.148-3.477-.036-.575-.078-1.169-.107-1.783-.073-.578-.138-1.179-.229-1.783-.088-1.2-.286-2.408-.486-3.551-.141-1.205-.416-2.346-.632-3.468-.252-1.077-.471-2.158-.726-3.168-.271-1.01-.5-1.949-.783-2.817-.513-1.754-.97-3.206-1.34-4.212C154.348,160.962,154.119,160.4,154.119,160.4Z" transform="translate(-154.119 -160.396)"/></g><g transform="translate(35.515 12.063)"><path class="s" d="M158.382,158.117s.549.178,1.5.582a37.358,37.358,0,0,1,3.811,1.873,49.717,49.717,0,0,1,5,3.161c.848.677,1.733,1.355,2.578,2.111.856.725,1.66,1.509,2.487,2.308.406.414.8.834,1.181,1.243.349.43.721.841,1.061,1.286.687.877,1.355,1.764,1.93,2.624a27.226,27.226,0,0,1,1.558,2.579c.221.43.442.834.627,1.231s.367.8.531,1.193c.33.739.583,1.464.8,2.08.2.656.375,1.212.494,1.659.242.908.362,1.469.362,1.469s-.172-.542-.481-1.433c-.143-.461-.359-.991-.6-1.616-.26-.6-.559-1.314-.916-2.046-.182-.373-.362-.746-.575-1.155-.208-.373-.414-.775-.656-1.172-.484-.834-1.025-1.661-1.623-2.515a31.26,31.26,0,0,0-1.928-2.553c-.356-.447-.708-.837-1.077-1.272-.382-.385-.773-.813-1.173-1.2-.77-.813-1.582-1.583-2.425-2.341-.832-.708-1.686-1.424-2.505-2.054-.885-.656-1.7-1.276-2.516-1.818s-1.605-1.062-2.336-1.5c-1.478-.879-2.752-1.6-3.645-2.047C158.923,158.348,158.382,158.117,158.382,158.117Z" transform="translate(-158.382 -158.117)"/></g><g transform="translate(35.294 3.215)"><path class="s" d="M158.3,154.693s.33-.069.864-.143c.552-.045,1.335-.121,2.243-.145.479,0,.986-.026,1.525,0a12.936,12.936,0,0,1,1.7.076,16.472,16.472,0,0,1,1.8.181c.6.078,1.212.219,1.842.328.614.157,1.212.292,1.808.471.567.2,1.15.373,1.7.618a14.172,14.172,0,0,1,1.506.713,14.568,14.568,0,0,1,1.272.763c.382.254.7.513.989.727a6.652,6.652,0,0,1,.679.661c.369.383.585.563.585.563s-.234-.159-.674-.463a5.481,5.481,0,0,0-.736-.58c-.32-.183-.666-.395-1.048-.644s-.856-.425-1.306-.663-.981-.387-1.511-.594a14.178,14.178,0,0,0-1.665-.542c-.583-.185-1.163-.323-1.748-.456-.606-.1-1.207-.28-1.79-.321-.622-.1-1.192-.207-1.761-.252s-1.137-.14-1.657-.164c-.546-.05-1.033-.062-1.512-.086-.908-.009-1.691-.078-2.243-.071C158.627,154.693,158.3,154.693,158.3,154.693Z" transform="translate(-158.297 -154.394)"/></g><path class="t" d="M207.521,173.868a29.391,29.391,0,0,0-9.009-15.618c-.068-.05-.247-.252-.57-.554a6.649,6.649,0,0,0-.679-.661c-.286-.214-.606-.473-.989-.727a3.79,3.79,0,0,0-.323-.209.2.2,0,0,0-.081-.071,9.309,9.309,0,0,0-1.03-.727,28.857,28.857,0,0,1,3.671,6.489,23.581,23.581,0,0,1,.291,18.021,30.365,30.365,0,0,1-11.291,13.042c-9.6,6.36-24.335,9.669-34.141,1.921a22.3,22.3,0,0,1-8.255-13.717,26.618,26.618,0,0,1-.375-3.078,31.59,31.59,0,0,0,3.143,14.038,20.6,20.6,0,0,0,2.367,3.817,32.659,32.659,0,0,0,14.27,10.049,30.136,30.136,0,0,0,8.143,1.837,29.562,29.562,0,0,0,3.405.1,47.411,47.411,0,0,0,11.809-1.978,27.9,27.9,0,0,0,17.108-14.87,33.64,33.64,0,0,0,1.675-4.015,26.217,26.217,0,0,0,.858-13.087Z" transform="translate(-144.718 -149.932)"/></g><g transform="translate(23.785 68.664)"><path class="c" d="M134.079,170.186s2.75-3.166,2.854-11.29c0,0-11.182-.628-11.174,11.761,5.273,17.349,17.894,22.644,17.894,22.644l3.434-5.486Z" transform="translate(-125.759 -158.891)"/><path class="u" d="M131.319,171.8a21.8,21.8,0,0,1-2.19-3.3,12.393,12.393,0,0,1-1.03-3.061c.565,1,1.137,1.975,1.764,2.938.213.338,2.183-4.217,2.641-6.406a24.821,24.821,0,0,0,.6-2.76c-.239,7.618-2.8,10.594-2.8,10.594Z" transform="translate(-122.013 -158.46)"/><path class="c" d="M140.659,171.551c.206-.064,21.786-1.533,21.786-1.533l-.843,5.056s-24.666,6.477-29.213,1.992c0,0-1.93-1.695,1.264-4.8Z" transform="translate(-116.067 -143.57)"/><path class="c" d="M147.3,181.3c-3.288-.107-4.418-2.907-4.62-4.946-.114-1.3,1.077-2.99,2.016-3.948,1.743-1.787,2.724-2.976,2.88-4.59,0,0,.812-.461,1.2.784s-.174,2.539-1.113,4.067a16.837,16.837,0,0,1,6.915-2.275c3.385-.135,3.377,1.4,1.4,1.5a14.24,14.24,0,0,0-4.771,1.683,21.7,21.7,0,0,1,6.153-.43c2.352.364,1.9,1.759-.167,1.868a27.99,27.99,0,0,0-4.842.849s4.571,0,5.95.642,1.132,2.113-1.933,1.887a24.62,24.62,0,0,0-3.494-.183s3.593,1.238,4.183,2.529-.135,1.3-1.7.532a13.169,13.169,0,0,0-3.413-1.062c-.088-.012-.416.228-.486.257a10.4,10.4,0,0,1-1.316.551A8.527,8.527,0,0,1,147.3,181.3Z" transform="translate(-98.678 -146.715)"/></g></g></g></g></svg>