<svg xmlns="http://www.w3.org/2000/svg" width="294" height="278" viewBox="0 0 294 278"><defs><style>.a{fill:#fff;}.b{fill:#d4b2b1;}.c{fill:#265359;}</style></defs><g transform="translate(-1294 -175)"><path class="a" d="M0,0H294V278H0Z" transform="translate(1294 175)"/><path class="b" d="M0,0S10.992-19.611,21.992-19.611,44,0,44,0V40H0Z" transform="translate(1419 341)"/><path class="c" d="M1392.9,377.505a1.633,1.633,0,1,0,0-3.265h-8.164V359.545h1.633a1.633,1.633,0,0,0,0-3.266h-40.819v-17.96h.816a1.632,1.632,0,1,0,0-3.265h-2.022V315.461h.389a1.633,1.633,0,0,0,0-3.265h-.816v-1.633h-.817V308.93h-.816V307.3h-.817v-1.632h-.817v-1.633h-.966a2.406,2.406,0,0,0-1.482-3.116v-1.783h-1.633v1.783a2.408,2.408,0,0,0-1.482,3.116h-.966v1.633h-.816V307.3h-.817v1.633h-.816v1.633h-.816V312.2h-.817a1.633,1.633,0,0,0,0,3.265h.391v19.594h-1.206v-8.266h-3.265v5.377H1322.7v-5.377h-3.266v5.377h-3.265v-5.377H1312.9v5.377h-3.265v-5.377h-3.266v5.377H1303.1v-5.377h-3.265v5.377h-3.265v-5.377h-3.266v5.377h-3.265v-5.377h-3.266v5.377h-3.266v-5.377h-3.265v5.377h-3.265v-5.377h-3.265v8.266h-1.206V315.461h.389a1.633,1.633,0,1,0,0-3.265h-.817v-1.633h-.816V308.93h-.816V307.3h-.818v-1.632h-.816v-1.633h-.966a2.407,2.407,0,0,0-1.483-3.116v-1.783h-1.633v1.783a2.406,2.406,0,0,0-1.483,3.116h-.966v1.633h-.816V307.3h-.817v1.633h-.817v1.633h-.816V312.2h-.817a1.633,1.633,0,0,0,0,3.265h.39v19.594h-2.023a1.632,1.632,0,1,0,0,3.265h.817v17.96h-40.819a1.633,1.633,0,0,0,0,3.266h1.633V374.24h-8.164a1.633,1.633,0,0,0,0,3.265h3.266v65.31h-4.082v9.8h184.5v-9.8h-4.082v-65.31Zm-8.98,0h3.265v6.531h-3.265Zm-3.266,0v6.531h-3.265v-6.531Zm-6.531,0v6.531h-3.266v-6.531Zm-6.531,0v6.531h-3.265v-6.531Zm-6.531,0v6.531H1357.8v-6.531Zm-6.531,0v6.531h-3.266v-6.531Zm-7.347-17.96h1.633V374.24h-1.633Zm-1.633,0V365.2h-3.265v-5.654Zm-15.435,24.492c0-1.352.732-2.449,1.633-2.449s1.633,1.1,1.633,2.449-.73,2.449-1.633,2.449S1330.12,385.389,1330.12,384.037Zm13.022,2.449c-.9,0-1.633-1.1-1.633-2.449s.732-2.449,1.633-2.449,1.633,1.1,1.633,2.449S1344.044,386.486,1343.142,386.486Zm-2.058-67.76a.816.816,0,0,1,.816-.817h0a.816.816,0,0,1,.817.817v12.246h-1.633Zm-6.142,1.632a2.449,2.449,0,0,1,4.9,0v10.613h-4.9Zm4.082,39.186V365.2h-3.266v-5.654Zm-1.633,22.042a2.449,2.449,0,1,1-2.449,2.449A2.449,2.449,0,0,1,1337.39,381.587Zm-5.324-62.861a.816.816,0,0,1,.817-.817h0a.816.816,0,0,1,.816.817v12.246h-1.633Zm.426,40.819V365.2h-3.265v-5.654Zm-58.778-21.226h55.513v17.96h-55.513Zm52.016,34.288V359.545h1.865V374.24h-52.248V359.545h1.4v13.062Zm-45.717-3.266v-9.8h2.447v9.8Zm5.647,0v-9.8h2.446v9.8Zm5.712,0v-9.8h2.447v9.8Zm5.712,0v-9.8h2.447v9.8Zm5.712,0v-9.8h2.447v9.8Zm5.713,0v-9.8h2.446v9.8Zm5.711,0v-9.8h2.447v9.8Zm5.713,0v-9.8h2.446v9.8Zm-46.219-9.8V365.2h-3.265v-5.654Zm-15.436,24.492c0-1.352.732-2.449,1.633-2.449s1.633,1.1,1.633,2.449-.731,2.449-1.633,2.449S1258.278,385.389,1258.278,384.037Zm13.022,2.449c-.9,0-1.633-1.1-1.633-2.449s.731-2.449,1.633-2.449,1.633,1.1,1.633,2.449S1272.2,386.486,1271.3,386.486Zm-2.059-67.76a.816.816,0,0,1,.816-.817h0a.817.817,0,0,1,.816.817v12.246h-1.633Zm-6.141,1.632a2.449,2.449,0,0,1,4.9,0v10.613h-4.9Zm4.082,39.186V365.2h-3.265v-5.654Zm-1.633,22.042a2.449,2.449,0,1,1-2.449,2.449A2.45,2.45,0,0,1,1265.55,381.587Zm-5.324-62.861a.816.816,0,0,1,.816-.817h0a.817.817,0,0,1,.817.817v12.246h-1.633Zm-2.839,40.819h3.265V365.2h-3.265Zm-3.266,0h1.633V374.24h-1.633Zm-2.449,24.492h-3.265v-6.531h3.265Zm-6.531-6.531v6.531h-3.265v-6.531Zm-6.531,0v6.531h-3.266v-6.531Zm-6.531,0v6.531h-3.265v-6.531Zm-9.8,0h3.265v6.531h-3.265Zm-6.531,0h3.265v6.531h-3.265Zm13.878,65.31V423.223h1.633v-4.9a6.531,6.531,0,0,1,13.062,0v4.9h1.633v19.592Zm19.593,0V405.262c0-6.312-5.557-11.432-11.43-13.061-5.555,1.441-11.429,6.749-11.429,13.061v37.554h-1.633V390.568h26.124v52.248Zm4.9,0v-65.31h3.266a1.633,1.633,0,1,0,0,3.265V387.3a1.633,1.633,0,0,0,0,3.266v34.288a1.633,1.633,0,0,0,0,3.266V439.55a1.633,1.633,0,1,0,0,3.265Zm26.124,0V408.528c0-11.722,13.52-22.172,21.226-24.491h0c7.824,2.249,21.226,12.769,21.226,24.491v34.288Zm.108-57.146a3.266,3.266,0,1,1,3.265,3.265A3.265,3.265,0,0,1,1280.353,385.669Zm35.813,0a3.266,3.266,0,1,1,3.265,3.265A3.265,3.265,0,0,1,1316.165,385.669Zm9.8,57.146V379.139h-48.983v63.677h-3.265a1.633,1.633,0,1,0,0-3.265V428.121a1.633,1.633,0,0,0,0-3.266V390.568a1.633,1.633,0,0,0,0-3.266v-6.531a1.633,1.633,0,1,0,0-3.265h55.513a1.633,1.633,0,0,0,0,3.265V387.3a1.633,1.633,0,0,0,0,3.266v34.288a1.633,1.633,0,0,0,0,3.266V439.55a1.633,1.633,0,0,0,0,3.265Zm19.592,0a1.633,1.633,0,1,0,0-3.265V428.121a1.633,1.633,0,0,0,0-3.266V390.568a1.633,1.633,0,0,0,0-3.266v-6.531a1.633,1.633,0,1,0,0-3.265h3.265v65.31Zm11.429,0V423.223h1.632v-4.9a6.531,6.531,0,0,1,13.062,0v4.9h1.633v19.592Zm19.593,0V405.262c0-6.312-5.874-11.62-11.429-13.061-5.871,1.629-11.429,6.749-11.429,13.061v37.554h-1.633V390.568h26.125v52.248Zm-99.83-102.863h48.983v14.695h-48.983Zm-47.174,54.69a1.6,1.6,0,1,1-1.6-1.6A1.6,1.6,0,0,1,1229.573,394.642Zm19.649,0a1.6,1.6,0,1,1-1.6-1.6A1.6,1.6,0,0,1,1249.223,394.642Zm127.354,0a1.6,1.6,0,1,1-1.6-1.6A1.6,1.6,0,0,1,1376.577,394.642Zm-19.649,0a1.6,1.6,0,1,1-1.6-1.6A1.6,1.6,0,0,1,1356.927,394.642Z" transform="translate(139.596 -62.133)"/><path class="b" d="M0-8.28c.262-4.409,4.3-8.687,8.762-8.687s8.865,5.6,9.086,8.687,0,24.086,0,24.086H0S-.262-3.871,0-8.28Z" transform="translate(1496.023 365.012)"/><path class="b" d="M0-8.28c.35-4.188,4.3-8.687,8.762-8.687s8.07,4.72,9.086,8.687,0,24.086,0,24.086H0S-.35-4.092,0-8.28Z" transform="translate(1368.023 365.012)"/></g></svg>