<svg xmlns="http://www.w3.org/2000/svg" width="294" height="278" viewBox="0 0 294 278"><defs><style>.a{fill:#fff;}.b{fill:#363636;}.c{fill:#ffc9af;}.d{fill:#265359;}.e,.i{fill:none;stroke-linecap:round;stroke-linejoin:round;}.e{stroke:#e8b100;}.f{fill:#ffabb0;}.g{fill:#ffcdd3;}.h{fill:#004651;}.i{stroke:#ffcdd3;stroke-width:0.811px;}.j{fill:#ff453d;}</style></defs><g transform="translate(-1294 -484)"><path class="a" d="M0,0H294V278H0Z" transform="translate(1294 484)"/><g transform="translate(1322.041 289.561)"><g transform="translate(90.554 256.439)"><g transform="translate(13.95)"><path class="b" d="M174.468,262.852c-2.93-3.936-11.8-8.475-20.013-5.4-14.2,5.322-16.4,1.068-16.4,1.068a8.88,8.88,0,0,0-1.37,6.812l-4.71-5.3s-12.193,16.517,5.005,25.6c19.977,9.5,40.9,11.084,40.9,11.084s4.36-6.606,4.393-18.061C182.3,271.556,178.65,263.8,174.468,262.852Z" transform="translate(-127.783 -256.439)"/><path class="c" d="M182.134,312.5s-.053,12.064,2.866,21.388c2.088,6.671,16.213.253,8.18,10.365-21.054,15.145-34.041,4.916-37.278,2.018-1.83-1.638,7.135-7.9,7.135-7.9a61.619,61.619,0,0,0-2.65-14.857Z" transform="translate(-134.625 -270.203)"/><path class="c" d="M137.155,287.8c1.317,8.659,9.425,28.779,14.71,31.954S162.57,324.389,167,323s10.921-11.386,10.595-18.326c3.361.292,6.1-2.58,5.764-8.244-.449-7.522-8.376-6.695-9.3.754l-1.849,2.8s-.576-12.441-2.741-16.133c0,0-1.409,4.335-3.05,5.74,0,0,.761-5.93-.495-8.971,0,0-12.088,10.651-17.22,11.01S137.155,287.8,137.155,287.8Z" transform="translate(-130.084 -262.378)"/><path class="b" d="M160.874,297.566a20.757,20.757,0,0,1,4.667-1.592c2.226-.428,4.6-.166,4.711-.764.214-1.187-3.161-3.323-8.883-.343C160.087,295.533,160.874,297.566,160.874,297.566Z" transform="translate(-135.848 -265.502)"/><path class="b" d="M148.7,300.4a16.7,16.7,0,0,0-3.941.466c-1.764.463-3.4,1.48-3.686,1.083-.568-.787,1.139-3.511,6.329-3.338C148.561,298.655,148.7,300.4,148.7,300.4Z" transform="translate(-131.019 -266.792)"/><g transform="translate(15.065 32.347)"><path class="b" d="M159.151,315.555a.167.167,0,0,0-.2-.126h0a4.429,4.429,0,0,1-1.771,0,7.309,7.309,0,0,1-.868-.22c-.186-.06-.373-.131-.553-.206.074-2.566.228-5.137.464-7.7a.12.12,0,0,0-.1-.128.118.118,0,0,0-.135.1q-.661,3.965-1.067,7.971a.392.392,0,0,0,.232.4l.022.01h0a7.306,7.306,0,0,0,.966.241,7.782,7.782,0,0,0,.972.114,4.881,4.881,0,0,0,1.935-.26A.167.167,0,0,0,159.151,315.555Z" transform="translate(-149.509 -301.243)"/><path class="b" d="M179.447,329.469a.16.16,0,0,0-.226.017,27.609,27.609,0,0,1-3.034,3.046,8.623,8.623,0,0,1-3.611,2.011,13.312,13.312,0,0,1-4.2.354,23.219,23.219,0,0,1-4.233-.721.161.161,0,0,0-.1.3,16.922,16.922,0,0,0,4.273,1.084,12.6,12.6,0,0,0,4.452-.257,6.706,6.706,0,0,0,2.107-.88,11.787,11.787,0,0,0,1.779-1.364,18.128,18.128,0,0,0,2.821-3.386A.162.162,0,0,0,179.447,329.469Z" transform="translate(-151.725 -306.706)"/><path class="b" d="M192.93,299.558a2.123,2.123,0,0,0-1.7-.124,2.372,2.372,0,0,0-1.3,1.145,4.038,4.038,0,0,0-.43,1.609,4.4,4.4,0,0,0,.755,3.148,2.164,2.164,0,0,0,1.56.761,2.636,2.636,0,0,0,1.557-.487.165.165,0,0,0-.156-.289,1.9,1.9,0,0,1-2.356-.472,3.77,3.77,0,0,1-.534-2.172.949.949,0,0,1,.215-.376,1.059,1.059,0,0,1,.687-.307.634.634,0,0,1,.618.267l.012.022a.193.193,0,0,0,.349-.164,1.048,1.048,0,0,0-.977-.6,1.592,1.592,0,0,0-.848.209,2.139,2.139,0,0,1,1.1-1.649,1.661,1.661,0,0,1,2.17.871.155.155,0,0,0,.173.088.152.152,0,0,0,.114-.181A1.968,1.968,0,0,0,192.93,299.558Z" transform="translate(-157.993 -299.312)"/><path class="b" d="M159.189,322.141a14.867,14.867,0,0,0,3.232-.183,9.859,9.859,0,0,0,2.981-1,7.6,7.6,0,0,0,2.416-1.948,12.931,12.931,0,0,0,1.723-2.718l.008-.017a.163.163,0,0,1,.3.119,13.638,13.638,0,0,1-.512,1.628,7.656,7.656,0,0,1-.852,1.508,7.832,7.832,0,0,1-1.163,1.314,8.276,8.276,0,0,1-4.8,1.927,9.16,9.16,0,0,1-3.394-.358.142.142,0,0,1,.051-.278Z" transform="translate(-150.518 -303.456)"/><path class="b" d="M150.161,308.006c.262,1.047-.045,2.027-.686,2.186s-1.37-.56-1.632-1.608.046-2.027.686-2.186S149.9,306.958,150.161,308.006Z" transform="translate(-147.75 -301.046)"/><path class="b" d="M169.539,303.172c.262,1.048-.045,2.027-.686,2.187s-1.37-.561-1.632-1.608.046-2.027.686-2.187S169.277,302.124,169.539,303.172Z" transform="translate(-152.507 -299.859)"/></g></g><path class="c" d="M247.666,399.288s1.831,23.352.916,30.449-27.2.429-26.351-12.392c.174-2.6-3.151-13.844-1.6-16.482C226.732,390.495,245.293,390.346,247.666,399.288Z" transform="translate(-136.526 -289.921)"/><path class="d" d="M177.839,344.029a24.846,24.846,0,0,1-15.329,9.544c-10.412,2.024-12.725-6.363-12.725-6.363l-40.491,8.966,24.584,39.912.289,31.814h66.81l-5.5-32.971s16.364-1.615,28.633-4.049c0,0-5.785-24.873-13.3-32.682S177.839,344.029,177.839,344.029Z" transform="translate(-109.294 -277.943)"/><path class="d" d="M130.861,353.8l-21.567,4.776,19.453,31.583C132.58,378.141,135.288,365.867,130.861,353.8Z" transform="translate(-109.294 -280.341)"/><path class="d" d="M222.088,397.5c3.45-.359,17.989-1.937,28.633-4.049,0,0-5.785-24.873-13.3-32.682-2.172-2.256-5.845-4.39-9.965-6.286C211.945,361.667,218.688,382.966,222.088,397.5Z" transform="translate(-135.901 -280.509)"/></g><g transform="translate(33.968 269.246)"><g transform="translate(0 0)"><path class="b" d="M92.648,275.684c8.717-2.574,21.762,8.352,13.729,24.195-7.415,14.624-7.971,24.089-3.431,29.365s4.693,10.143,3.558,17.78-15.78,19.2-22.953,22.615-32.009,11.819-42.7,1.006c-8.592-8.687,1.146-17.239,1.146-17.239s-9.124-1.9-7.5-10.414c1.8-9.434,11.895-4.662,15.9-20.332,2.56-10.01,1.983-21.849,4.05-29.181C59.292,276.272,74.186,269.449,92.648,275.684Z" transform="translate(-34.297 -273.413)"/><path class="c" d="M111.432,292.511c3.891,7.464,2.86,23.964-.821,30.464a22.274,22.274,0,0,1-10.437,9.033l1.151,9.646,7.5,4.284s-3.332,13.262-17.771,12.187-16.719-14.972-16.719-14.972,9.566-1.126,9.8-2.7c1-6.648-.715-14.437-1.873-20.006a49.191,49.191,0,0,0-1.738-4.814s-3.9.376-5.748-2.356-3.127-7.384.294-9.279c4.439-2.46,6.72,3.923,6.72,3.923s5.4-2.777,5.747-12.55a16.642,16.642,0,0,1-.079,7.235s14.843-.416,18.383-13.333a16.456,16.456,0,0,1,1.236,10.35A10.033,10.033,0,0,0,111.432,292.511Z" transform="translate(-43.782 -277.307)"/><path class="e" d="M75.94,322.854a5.843,5.843,0,1,0,2.995-.715" transform="translate(-43.775 -285.376)"/><path class="f" d="M98.073,323.025a1.752,1.752,0,1,0-2.091-1.825A2,2,0,0,0,98.073,323.025Z" transform="translate(-49.44 -284.762)"/><path class="f" d="M122.037,321.52c1.2-.207,2.036-1.123,1.877-2.044a2,2,0,0,0-2.455-1.293c-1.2.207-2.036,1.123-1.876,2.044A2,2,0,0,0,122.037,321.52Z" transform="translate(-55.23 -284.394)"/><path class="b" d="M114.606,329.463a32.551,32.551,0,0,0-4.963-.871,19.06,19.06,0,0,1-5.533-1.687s-.752,3.972,4.16,5.193C111.963,333.016,114.606,329.463,114.606,329.463Z" transform="translate(-51.426 -286.545)"/><path class="b" d="M116.125,306.949a7.4,7.4,0,0,1,7.195-.674s-1.835-2.923-5.882-1.342C116.432,305.326,116.125,306.949,116.125,306.949Z" transform="translate(-54.386 -281.036)"/><path class="b" d="M102.792,307.8a8.318,8.318,0,0,0-8.029.945s1.335-3.623,6.13-2.823C102.085,306.125,102.792,307.8,102.792,307.8Z" transform="translate(-49.141 -281.367)"/><g transform="translate(31.408 28.207)"><path class="b" d="M115.648,321.09c-.1.1-.2.189-.3.278a6.848,6.848,0,0,1-.676.509,4.2,4.2,0,0,1-1.555.647h0a.133.133,0,0,0,.02.265,4.63,4.63,0,0,0,1.815-.38,7.573,7.573,0,0,0,.838-.413,6.887,6.887,0,0,0,.8-.528l.027-.023a.424.424,0,0,0,.023-.6l-.026-.028h0a13.418,13.418,0,0,1-2.165-3.019,20.039,20.039,0,0,1-1.477-3.492l0-.005a.106.106,0,0,0-.2.054,20.358,20.358,0,0,0,1.166,3.691A14.564,14.564,0,0,0,115.648,321.09Z" transform="translate(-84.966 -311.64)"/><path class="b" d="M114.555,329.357h-.007a11.251,11.251,0,0,1-1.406.319,10.3,10.3,0,0,1-1.411.171,9.75,9.75,0,0,1-2.776-.217,8.147,8.147,0,0,1-2.559-1.051,12.887,12.887,0,0,1-2.217-1.786l-.011-.009a.118.118,0,0,0-.149-.01.119.119,0,0,0-.029.166,12.95,12.95,0,0,0,.9,1.189,7.988,7.988,0,0,0,1.126,1.006,6.926,6.926,0,0,0,2.756,1.28,7.744,7.744,0,0,0,3.031.1,7.834,7.834,0,0,0,2.807-1.02.074.074,0,0,0-.059-.135Z" transform="translate(-82.809 -314.715)"/><path class="b" d="M104.485,343.533h-.007a14.672,14.672,0,0,1-3.771-.584,16.525,16.525,0,0,1-3.453-1.554,24.836,24.836,0,0,1-5.779-5.039l0,0a.113.113,0,0,0-.183.132,16.762,16.762,0,0,0,2.46,3.089,17.131,17.131,0,0,0,3.092,2.5,12.791,12.791,0,0,0,3.682,1.567,9.7,9.7,0,0,0,3.974.077.091.091,0,0,0-.012-.18Z" transform="translate(-79.692 -317.062)"/><path class="b" d="M118.586,312.753c.1,1.019.679,1.8,1.3,1.739s1.05-.933.953-1.952-.678-1.8-1.3-1.739S118.489,311.734,118.586,312.753Z" transform="translate(-86.394 -310.798)"/><path class="b" d="M99.736,314.533c.1,1.019.679,1.8,1.3,1.739s1.05-.933.954-1.952-.679-1.8-1.3-1.739S99.639,313.514,99.736,314.533Z" transform="translate(-81.767 -311.235)"/><path class="b" d="M78.011,311.707a2.419,2.419,0,0,1,1.547.658,3.817,3.817,0,0,1,.895,1.371,6.854,6.854,0,0,1,.441,1.528,3.238,3.238,0,0,1-.134,1.668,2.046,2.046,0,0,1-1.232,1.211,2.478,2.478,0,0,1-1.623-.017.126.126,0,0,1-.084-.121.125.125,0,0,1,.128-.121,2.031,2.031,0,0,0,2.116-1.215,3.2,3.2,0,0,0,.044-1.651,1.632,1.632,0,0,0-.168-.376,1.141,1.141,0,0,0-.609-.53A1.061,1.061,0,0,0,78,314.9a.071.071,0,0,1-.072.058.068.068,0,0,1-.063-.072,1.307,1.307,0,0,1,1.557-1.122,1.285,1.285,0,0,1,.344.128,2.358,2.358,0,0,0-1.782-1.649,1.713,1.713,0,0,0-1.848,1.578.1.1,0,0,1-.2.005v0A2.013,2.013,0,0,1,78.011,311.707Z" transform="translate(-75.924 -311.02)"/></g></g><g transform="translate(5.914 63.854)"><path class="g" d="M131.243,390c1.126-2.043,7.72-.632,7.72-.632s-.971,22.213-.755,25.573.656,23.973.656,23.973l-9.667.072S128.321,395.3,131.243,390Z" transform="translate(-63.479 -365.619)"/><path class="h" d="M110.955,431.366h0l2.7-46.666,5.229-.35a56.923,56.923,0,0,0-3.579-18.376c-1.965-4.662-20.012-7.93-20.012-7.93s-1.536,8.462-9.9,8.425C78.656,366.44,75,358.352,75,358.352s-15.141.424-21.039,4.75a21.012,21.012,0,0,0-6.58,9.629c-2.958,8.257-3.095,16.2-3.5,18.28l13.33.784c1.563,7.718.323,25.693.323,25.693l-4.953,14.945Z" transform="translate(-42.565 -358.045)"/><line class="i" y1="14.7" x2="2.979" transform="translate(19.779 19.619)"/><path class="j" d="M130.878,417.382s6.157-4.833,15.451-11.213c10.961-7.524,17-18.512,10.416-27.776-5.627-7.92-19.037-7.865-23.279,3.185-2.543-9.36-14.882-13.069-22.52-6.073-8.456,7.744-7.395,19.749,5.642,29.072C126.492,411.662,130.878,417.382,130.878,417.382Z" transform="translate(-57.694 -361.441)"/><path class="c" d="M43.907,401.459a102.3,102.3,0,0,1,17.846,1.109c-.357,1.327-2.083,11.02-2.083,11.02s25.965-2.344,28.068-2.991,2.583-4.882,5.472-6.794l2.159,2.666s13-7.178,14.159-6.052-8.6,6.492-7.692,7.025,10.512-4.429,11.427-2.658-10.309,5.391-9.971,6.575,8.865-4.248,9.519-2.371-8.994,4.639-8.76,5.361,6-2.291,6.617-.744-5.633,3.248-8.043,4.245-9.55.886-12.138,2.018S54.221,434.276,45.58,431.519C42.444,430.517,40.553,416.125,43.907,401.459Z" transform="translate(-42.135 -368.418)"/><path class="c" d="M174.127,405.1a63.078,63.078,0,0,0-5.574-7.457c-.74,1.615-1.922,3.867-1.922,3.867-.659,2.592-14.757-8.4-16.295-6.935s8.858,6.9,8.585,7.883-10.347-6.371-11.88-4.671,11.1,7.856,10.832,8.842-10.532-4.934-11.167-3.41,9.36,6.1,9.086,7.084-7.657-3.865-8.183-2.128,7.863,6.451,10.637,7.51,6.818.267,9.1,1.219,42.2,24.1,50.542,26.2,12.384-5.872,12.636-12.968c.256-7.213-9.894-10.377-20.523-13.427S174.127,405.1,174.127,405.1Z" transform="translate(-67.8 -366.979)"/></g></g><path class="c" d="M41.88,338.825s.848-1.677,2.221-4.007c1.62-2.749,1.817-5.752-.556-7.1a3.179,3.179,0,0,0-4.738,3.057,3.312,3.312,0,0,0-5.514.967c-1.053,2.543.4,5.045,4.179,5.749A17.251,17.251,0,0,1,41.88,338.825Z" transform="translate(0 -17.399)"/><path class="c" d="M203.886,331.2s-.848-1.676-2.221-4.007c-1.619-2.749-1.816-5.752.556-7.1a3.179,3.179,0,0,1,4.738,3.057,3.312,3.312,0,0,1,5.514.967c1.053,2.543-.4,5.045-4.179,5.749A17.253,17.253,0,0,0,203.886,331.2Z" transform="translate(-41.117 -15.527)"/></g></g></svg>